<?xml version="1.0" encoding="UTF-8"?>
<svg width="2461px" height="2472px" viewBox="0 0 2461 2472" version="1.1" xmlns="http://www.w3.org/2000/svg" xmlns:xlink="http://www.w3.org/1999/xlink">
    <title>whatsapp</title>
    <g id="Page-1" stroke="none" stroke-width="1" fill="none" fill-rule="evenodd">
        <g id="whatsapp" transform="translate(0.286452, 0.232665)" fill="#000000">
            <path d="M2101.94123,359.155287 C1870.63132,127.686188 1563.05829,0.144905444 1235.36381,1.13686838e-13 C560.090156,1.13686838e-13 10.5556473,549.35899 10.2842047,1224.59999 C10.2046088,1440.44584 66.6013995,1651.13835 173.796733,1836.86223 L0,2471.46032 L649.427424,2301.16989 C828.359116,2398.75044 1029.82054,2450.1735 1234.83726,2450.2531 L1235.35769,2450.2531 L1235.36381,2450.2531 C1910.52522,2450.2531 2460.13933,1900.79819 2460.42717,1225.5878 C2460.53935,898.340282 2333.22052,590.640714 2101.94123,359.155287 L2101.94123,359.155287 Z M1235.36381,2243.41997 L1234.96583,2243.41997 C1052.22374,2243.32404 873.020607,2194.26233 716.714574,2101.51264 L679.514693,2079.46048 L294.13152,2180.50243 L397.022549,1804.89323 L372.786604,1766.38716 C270.852767,1604.3094 217.039783,1417.00585 217.119291,1224.68163 C217.341839,663.444475 674.094005,206.851501 1235.74751,206.851501 C1507.73299,206.963752 1763.35843,312.979433 1955.61939,505.368962 C2147.86401,697.758492 2253.65723,953.510479 2253.57768,1225.51228 C2253.33681,1786.76373 1796.56831,2243.41997 1235.36381,2243.41997 Z" id="Shape" fill-rule="nonzero"></path>
            <path d="M929.176569,712.649057 C906.248854,661.672955 882.108831,660.652494 860.29546,659.760611 C842.453722,658.995265 822.028177,659.041646 801.635287,659.041646 C781.226069,659.041646 748.061091,666.711991 720.014744,697.342144 C691.95207,727.972298 612.866352,802.01898 612.866352,952.616555 C612.866352,1103.23046 722.565896,1248.75838 737.856482,1269.19821 C753.163395,1289.60743 949.618441,1608.53411 1260.74676,1731.2282 C1519.32134,1833.1947 1571.94038,1812.91201 1628.06573,1807.80971 C1684.19108,1802.70741 1809.16488,1733.77936 1834.6764,1662.29811 C1860.18793,1590.8332 1860.18793,1529.57493 1852.53447,1516.77019 C1844.88101,1504.01443 1824.4718,1496.36097 1793.85797,1481.05406 C1763.24414,1465.74714 1612.75882,1391.68413 1584.69614,1381.47952 C1556.63347,1371.27492 1536.22425,1366.17261 1515.81504,1396.81909 C1495.40582,1427.43292 1436.77626,1496.36097 1418.91819,1516.77019 C1401.06013,1537.22635 1383.20206,1539.7775 1352.58824,1524.47058 C1321.97441,1509.11673 1223.38768,1476.82731 1106.4347,1372.54845 C1015.43817,1291.42181 954.002341,1191.2248 936.144276,1160.58036 C918.28621,1129.96653 934.229891,1113.38404 949.585786,1098.12407 C963.329353,1084.41112 980.199613,1062.39161 995.506526,1044.51722 C1010.78078,1026.64283 1015.88309,1013.88707 1026.0877,993.47785 C1036.29231,973.035977 1031.19,955.163626 1023.53655,939.856712 C1015.88309,924.549799 956.394301,773.174633 929.176569,712.649057 L929.176569,712.649057 Z" id="Path"></path>
        </g>
    </g>
</svg>