<?xml version="1.0" encoding="UTF-8"?>
<svg width="517px" height="517px" viewBox="0 0 517 517" version="1.1" xmlns="http://www.w3.org/2000/svg" xmlns:xlink="http://www.w3.org/1999/xlink">
    <title>hotspot-imageCarousel</title>
    <g id="Page-1" stroke="none" stroke-width="1" fill="none" fill-rule="evenodd">
        <g id="hotspot-imageCarousel" transform="translate(0.708000, 0.000000)" fill="#000000" fill-rule="nonzero">
            <path d="M198.881,282.105 C212.045,282.105 224.67,276.8706 233.975,267.562 C243.2797,258.2495 248.502,245.624 248.495007,232.46 C248.487188,219.3 243.2489,206.679 233.933,197.378 C224.6171,188.077 211.988,182.862 198.824,182.877963 C185.66,182.894 173.043,188.1397 163.75,197.46 C154.457,206.7803 149.246,219.413 149.269917,232.577 C149.293437,245.722 154.5317,258.319 163.832,267.604 C173.1367,276.8892 185.742,282.104 198.883,282.104 L198.881,282.105 Z M198.881,209.218 L198.881,209.214094 C205.0763,209.214094 211.022,211.678894 215.401,216.057894 C219.7838,220.440694 222.2448,226.381894 222.2448,232.577894 C222.2448,238.773194 219.7839,244.718894 215.401,249.097894 C211.0221,253.480694 205.077,255.941694 198.881,255.941694 C192.6857,255.941694 186.744,253.480794 182.361,249.097894 C177.9821,244.718994 175.5172,238.773894 175.5172,232.577894 C175.5172,226.382594 177.982,220.440894 182.361,216.057894 C186.7438,211.678994 192.685,209.214094 198.881,209.214094 L198.881,209.218 Z" id="Shape"></path>
            <path d="M468.121,0 L181.211,0 C168.457,0.023438 156.231,5.1016 147.207,14.121 C138.1875,23.1405 133.109,35.367 133.086,48.125 L133.086,61.25 L119.961,61.25 C107.207,61.273438 94.981,66.3516 85.957,75.371 C76.9375,84.3905 71.859,96.617 71.836,109.375 L71.836,133.086 L48.125,133.086 C35.367,133.109437 23.141,138.1876 14.121,147.207 C5.1015,156.2304 0.023,168.457 5.68434189e-14,181.211 L5.68434189e-14,468.121 C0.023438,480.879 5.1016,493.105 14.121,502.125 C23.1405,511.1445 35.367,516.223 48.125,516.246 L335.035,516.246 C347.789,516.222562 360.015,511.1444 369.039,502.125 C378.0585,493.1055 383.137,480.879 383.16,468.121 L383.16,444.32 L406.871,444.32 C419.629,444.296562 431.855,439.2184 440.875,430.199 C449.8945,421.1795 454.973,408.953 454.996,396.195 L454.996,383.16 L468.121,383.16 C480.879,383.136563 493.105,378.0584 502.125,369.039 C511.1445,360.0156 516.223,347.789 516.246,335.035 L516.246,48.125 C516.222562,35.367 511.1444,23.141 502.125,14.121 C493.1055,5.1015 480.879,0.023 468.121,0 L468.121,0 Z M48.121,159.34 L335.031,159.34 C340.8318,159.34 346.394,161.6447 350.496,165.7502 C354.6015,169.8518 356.9062,175.4143 356.9062,181.2152 L356.9062,410.5552 L283.2302,336.8792 C278.1052,331.762 269.8042,331.762 264.6792,336.8792 L214.3672,387.2772 L123.3672,296.1912 C118.2227,291.1209 109.9612,291.1209 104.8162,296.1912 L26.0662,374.9412 L26.0662,181.2112 C26.0662,175.3792 28.3943,169.7892 32.535,165.6842 C36.6756,161.5748 42.285,159.2897 48.117,159.335795 L48.121,159.34 Z M26.246,468.13 L26.246,411.954 L113.746,324.454 L279.996,490.704005 L48.116,490.704005 C42.1902,490.707906 36.518,488.3056 32.393,484.0517 C28.2719,479.7978 26.0492,474.0517 26.2407,468.1297 L26.246,468.13 Z M335.036,490.005 L317.536,490.005 L233.36,405.829 L274.309,364.79 L357.258,447.739 L357.258,468.13 C357.258,473.9933 354.9064,479.61 350.7268,483.724 C346.551,487.8373 340.8948,490.099 335.0358,490.0052 L335.036,490.005 Z M428.747,396.204 C428.747,402.0048 426.4423,407.571 422.3408,411.673 C418.2392,415.7746 412.6728,418.0792 406.8718,418.0792 L383.1608,418.0792 L383.1608,181.2192 C383.137363,168.4652 378.0592,156.2392 369.0398,147.2152 C360.0164,138.1957 347.7898,133.1172 335.0358,133.0942 L98.0858,133.0942 L98.0858,109.3832 C98.0858,103.5824 100.3905,98.0162 104.496,93.9142 C108.5976,89.8126 114.1601,87.508 119.961,87.508 L406.871,87.508 C412.6718,87.508 418.238,89.8127 422.34,93.9142 C426.442,98.0157 428.747,103.5822 428.747,109.3832 L428.747,396.204 Z M489.997,334.954 C489.997,340.7548 487.6923,346.321 483.5908,350.423 C479.4892,354.5246 473.9228,356.8292 468.1218,356.8292 L454.9968,356.8292 L454.9968,109.3792 C454.973362,96.6212 449.8952,84.3952 440.8758,75.3752 C431.8563,66.3557 419.6298,61.2772 406.8718,61.2542 L159.3318,61.2542 L159.3318,48.1292 C159.3318,42.3284 161.6365,36.7622 165.742,32.6602 C169.8436,28.5586 175.4061,26.254 181.207,26.254 L468.117,26.254 C473.9178,26.254 479.484,28.5587 483.586,32.6602 C487.688,36.7617 489.9922,42.3282 489.9922,48.1292 L489.997,334.954 Z" id="Shape"></path>
        </g>
    </g>
</svg>