<?xml version="1.0" encoding="UTF-8"?>
<svg width="26px" height="19px" viewBox="0 0 26 19" version="1.1" xmlns="http://www.w3.org/2000/svg" xmlns:xlink="http://www.w3.org/1999/xlink">
    <title>hotspot-video</title>
    <g id="Page-1" stroke="none" stroke-width="1" fill="none" fill-rule="evenodd">
        <g id="hotspot-video" transform="translate(0.135417, 0.168750)" fill="#000000" fill-rule="nonzero">
            <path d="M22.425,0 C24.2395833,0 25.7291666,1.4625 25.7291666,3.30416667 L25.7291666,14.625 C25.7291666,16.4395833 24.2395833,17.9291667 22.425,17.9291667 L3.30416666,17.9291667 C1.48958333,17.9291667 0,16.4395833 0,14.625 L0,3.30416667 C0,1.4625 1.48958333,0 3.35833333,0 Z M22.425,1.38125 L3.30416666,1.38125 C2.24791666,1.38125 1.38125,2.24791667 1.38125,3.30416667 L1.38125,14.625 C1.38125,15.68125 2.24791666,16.5479167 3.30416666,16.5479167 L22.425,16.5479167 C23.48125,16.5479167 24.3479166,15.68125 24.3479166,14.625 L24.3479166,3.30416667 C24.3479166,2.24791667 23.48125,1.38125 22.425,1.38125 Z M11.5,5.58062485 C11.7270715,5.58062485 11.947382,5.6579056 12.124695,5.79975604 L15.523914,8.51913119 C15.9551759,8.86414074 16.0250973,9.49343311 15.6800878,9.92469505 C15.633956,9.98235975 15.5815787,10.034737 15.523914,10.0808688 L12.124695,12.800244 C11.6934331,13.1452535 11.0641407,13.0753321 10.7191312,12.6440702 C10.5772808,12.4667572 10.5,12.2464466 10.5,12.0193752 L10.5,6.58062485 C10.5,6.0283401 10.9477153,5.58062485 11.5,5.58062485 Z" id="Combined-Shape"></path>
        </g>
    </g>
</svg>