<?xml version="1.0" encoding="UTF-8"?>
<svg width="163px" height="27px" viewBox="0 0 163 27" version="1.1" xmlns="http://www.w3.org/2000/svg" xmlns:xlink="http://www.w3.org/1999/xlink">
    <title>primary / authentic-logo-red copy</title>
    <g id="🎨-Design" stroke="none" stroke-width="1" fill="none" fill-rule="evenodd">
        <g id="Home" transform="translate(-120.000000, -62.000000)" fill="#FFFFFF">
            <g id="authentic-logo-white" transform="translate(120.000000, 62.000000)">
                <path d="M9.43578394,1.09382545 L5.19817761e-05,26.5011209 L4.26203779,26.5011209 L5.79290109,22.3281045 L17.1613155,22.3281045 L18.6921788,26.5011209 L22.9552042,26.5011209 L13.5179128,1.09382545 L9.43578394,1.09382545 Z M11.4771083,6.53806098 L15.8139478,18.4802717 L7.14130835,18.4802717 L11.4771083,6.53806098 Z" id="Fill-1"></path>
                <path d="M37.6269045,18.371066 C37.6269045,21.0569372 36.24211,22.9438303 33.6185898,22.9438303 C30.9955894,22.9438303 29.6461425,21.5654248 29.6461425,18.371066 L29.6461425,8.35251273 L25.6393872,8.35251273 L25.6393872,19.243055 C25.6393872,24.0695453 28.115799,26.7196878 32.6356144,26.7196878 C35.1489333,26.7196878 36.7894781,25.5209618 37.6269045,24.4325289 L39.1889569,26.5011727 L41.6352192,26.5011727 L41.6352192,8.35251273 L37.6269045,8.35251273 L37.6269045,18.371066 Z" id="Fill-2"></path>
                <polygon id="Fill-4" points="52.6493258 0.14815232 48.6410111 0.583111217 48.6410111 8.35282341 44.9612212 8.35282341 44.9612212 12.1286809 48.6410111 12.1286809 48.6410111 22.7261437 48.6410111 26.5014834 52.6493258 26.5014834 58.1162492 26.5014834 58.1162492 22.7261437 52.6493258 22.7261437 52.6493258 12.1286809 58.1162492 12.1286809 58.1162492 8.35282341 52.6493258 8.35282341"></polygon>
                <polygon id="Fill-6" points="129.339235 0.14815232 125.330921 0.583111217 125.330921 8.35282341 121.651651 8.35282341 121.651651 12.1286809 125.330921 12.1286809 125.330921 22.7261437 125.330921 26.5014834 129.339235 26.5014834 134.806159 26.5014834 134.806159 22.7261437 129.339235 22.7261437 129.339235 12.1286809 134.806159 12.1286809 134.806159 8.35282341 129.339235 8.35282341"></polygon>
                <path d="M71.719672,8.13575821 C69.3513823,8.13575821 67.6016758,9.11545135 66.5090188,10.4213637 L66.5090188,0.148048758 L62.4996644,0.583007655 L62.4996644,26.5013798 L66.5090188,26.5013798 L66.5090188,16.4828266 C66.5090188,13.8342376 68.1495637,11.9100623 70.7346174,11.9100623 C73.505246,11.9100623 74.7070647,13.6519691 74.7070647,16.4828266 L74.7070647,26.5013798 L78.7153794,26.5013798 L78.7153794,15.6129088 C78.7153794,10.7843472 76.0565116,8.13575821 71.719672,8.13575821" id="Fill-8"></path>
                <polygon id="Fill-10" points="139.038255 26.5012763 143.04553 26.5012763 143.04553 8.35261629 139.038255 8.35261629"></polygon>
                <polygon id="Fill-12" points="139.038255 4.65028759 143.04553 4.65028759 143.04553 0.658504092 139.038255 0.658504092"></polygon>
                <path d="M159.565287,19.6347251 L159.518503,19.7962813 C159.292902,20.5761005 158.296411,23.1211278 154.931111,23.1211278 C151.440015,23.1211278 149.850412,20.3254813 149.850412,17.7271197 C149.850412,13.9714567 152.459378,12.2611362 154.884328,12.2611362 C158.195047,12.2611362 159.1276,14.5503663 159.374513,15.5331663 L159.417138,15.704043 L162.83598,14.6301088 L162.798033,14.4799444 C162.124349,11.718991 159.691082,8.76955546 154.884328,8.76955546 C150.629619,8.76955546 146.108244,11.9095444 146.108244,17.7271197 C146.108244,22.9031306 149.819223,26.6598291 154.931111,26.6598291 C159.753461,26.6598291 162.245987,23.5074127 162.916032,20.8080785 L162.954498,20.6558429 L159.565287,19.6347251 Z" id="Fill-13"></path>
                <path d="M86.7898126,15.4275334 C87.350696,13.5318376 89.2454317,12.0027499 91.4562167,12.0027499 C93.6664818,12.0027499 95.5612175,13.5318376 96.1231405,15.4275334 L86.7898126,15.4275334 Z M91.4562167,8.28695821 C86.4737634,8.28695821 82.5423817,12.4397801 82.5423817,17.6126841 C82.5423817,22.7850703 86.4737634,26.9378921 91.5607,26.9378921 C95.5263897,26.9378921 98.9306762,24.7154593 100.122618,21.4009689 L95.5263897,21.4009689 C94.789808,22.5665552 93.3504326,23.1501251 91.5607,23.1501251 C89.0354254,23.1501251 87.034127,21.2922292 86.6130746,18.9973032 L100.264529,18.9973032 C100.334704,18.5597553 100.369532,18.0859608 100.369532,17.6126841 C100.369532,12.4397801 96.4386699,8.28695821 91.4562167,8.28695821 L91.4562167,8.28695821 Z" id="Fill-14"></path>
                <path d="M107.771373,16.483914 C107.771373,13.7980428 109.156167,11.9111497 111.779688,11.9111497 C114.402688,11.9111497 115.751615,13.2895551 115.751615,16.483914 L115.751615,26.5024672 L119.75889,26.5024672 L119.75889,15.6119249 C119.75889,10.7854346 117.282478,8.13529218 112.762663,8.13529218 C110.248824,8.13529218 108.608279,9.33350038 107.771373,10.422451 L106.208801,8.35328944 L103.763058,8.35328944 L103.763058,26.5024672 L107.771373,26.5024672 L107.771373,16.483914 Z" id="Fill-15"></path>
            </g>
        </g>
    </g>
</svg>