<svg width="20" height="16" viewBox="0 0 20 16" fill="none" xmlns="http://www.w3.org/2000/svg">
<path d="M0.0427912 15.5V11.3409C0.0427912 10.1134 0.273852 8.8209 0.735973 7.46342C1.19809 6.10594 1.84073 4.80622 2.66389 3.56427C3.48704 2.32232 4.4546 1.26089 5.56658 0.379972L8.77255 2.67613C7.89163 3.96141 7.14068 5.30445 6.51971 6.70525C5.89873 8.10606 5.58825 9.62962 5.58825 11.2759V15.5H0.0427912ZM11.0904 15.5V11.3409C11.0904 10.1134 11.3214 8.8209 11.7836 7.46342C12.2457 6.10594 12.8883 4.80622 13.7115 3.56427C14.5346 2.32232 15.5022 1.26089 16.6142 0.379972L19.8201 2.67613C18.9392 3.96141 18.1883 5.30445 17.5673 6.70525C16.9463 8.10606 16.6358 9.62962 16.6358 11.2759V15.5H11.0904Z" fill="#0A1622"/>
</svg>
