<?xml version="1.0" encoding="UTF-8"?>
<svg width="22px" height="22px" viewBox="0 0 22 22" version="1.1" xmlns="http://www.w3.org/2000/svg" xmlns:xlink="http://www.w3.org/1999/xlink">
    <title>noun_Ruler_2258262</title>
    <g id="🔗-Symbols" stroke="none" stroke-width="1" fill="none" fill-rule="evenodd">
        <g id="Group" fill="#000000" transform="translate(-0.000000, -0.521614)">
            <g id="sqft" transform="translate(0.000000, 0.521614)">
                <g id="noun_Ruler_2258262" transform="translate(10.606602, 10.606602) rotate(45.000000) translate(-10.606602, -10.606602) translate(7.106602, -0.893398)">
                    <path d="M5.7826087,23 L1.15652174,23 C0.547826087,23 -2.05791701e-13,22.4435484 -2.05791701e-13,21.7634409 L-2.05791701e-13,19.6612903 L1.88695652,19.6612903 C2.43478261,19.6612903 2.43478261,18.733871 1.88695652,18.733871 L-2.05791701e-13,18.733871 L-2.05791701e-13,16.5698925 L2.86086957,16.5698925 C3.40869565,16.5698925 3.40869565,15.7043011 2.86086957,15.7043011 L-2.05791701e-13,15.7043011 L-2.05791701e-13,13.2311828 L1.82608696,13.2311828 C2.37391304,13.2311828 2.37391304,12.3655914 1.82608696,12.3655914 L-2.05791701e-13,12.3655914 L-2.05791701e-13,10.1397849 L2.86086957,10.1397849 C3.40869565,10.1397849 3.40869565,9.27419355 2.86086957,9.27419355 L-2.05791701e-13,9.27419355 L-2.05791701e-13,6.80107527 L1.82608696,6.80107527 C2.37391304,6.80107527 2.37391304,5.93548387 1.82608696,5.93548387 L-2.05791701e-13,5.93548387 L-2.05791701e-13,3.77150538 L2.86086957,3.77150538 C3.40869565,3.77150538 3.40869565,2.90591398 2.86086957,2.90591398 L-2.05791701e-13,2.90591398 L-2.05791701e-13,1.17473118 C-2.05791701e-13,0.556451613 0.547826087,-4.21466758e-13 1.15652174,-4.21466758e-13 L5.7826087,-4.21466758e-13 C6.45217391,-4.21466758e-13 7,0.556451613 7,1.17473118 L7,21.7634409 C7,22.4435484 6.45217391,23 5.7826087,23 Z" id="Path"></path>
                </g>
            </g>
        </g>
    </g>
</svg>