<?xml version="1.0" encoding="UTF-8"?>
<svg width="17px" height="32px" viewBox="0 0 17 32" version="1.1" xmlns="http://www.w3.org/2000/svg" xmlns:xlink="http://www.w3.org/1999/xlink">
    <title>Path</title>
    <g id="🔗-Symbols" stroke="none" stroke-width="1" fill="none" fill-rule="evenodd">
        <g id="Footer-Microsite" fill="#FFFFFF">
            <path d="M11.8386412,9.76205186 C13.5230007,9.76205186 15.3036093,9.71412525 16.9879689,9.80997847 C16.9398443,11.5832631 16.9879689,13.452401 16.9398443,15.2256857 C15.2554848,15.2256857 13.5230007,15.2256857 11.8386412,15.2256857 C11.8386412,20.8330993 11.8386412,26.3925864 11.8386412,32 C9.43241331,32 7.02618542,32 4.61995754,32 C4.61995754,26.3925864 4.61995754,20.8330993 4.61995754,15.2256857 C3.12809625,15.1777591 1.53998585,15.2256857 7.10542736e-14,15.1777591 C7.10542736e-14,13.3565478 7.10542736e-14,11.5353365 7.10542736e-14,9.71412525 C1.53998585,9.71412525 3.07997169,9.71412525 4.57183298,9.71412525 C4.61995754,8.27632687 4.57183298,6.98230834 4.66808209,5.83206964 C4.76433121,4.68183095 5.14932767,3.7232987 5.67869781,2.90854629 C6.73743808,1.37489469 8.46992215,0.128802771 10.8280255,0.032949546 C12.7530078,-0.0629036787 14.9186129,0.0808761584 16.9879689,0.0808761584 C16.9879689,1.90208743 17.0360934,3.77122531 16.9398443,5.54450997 C15.9292286,5.59243658 14.8704883,5.44865674 14.0042463,5.54450997 C13.0898797,5.64036319 12.4161359,6.16755593 12.1273885,6.8385285 C11.6942675,7.65328091 11.8386412,8.65973977 11.8386412,9.76205186 Z" id="Path"></path>
        </g>
    </g>
</svg>