<?xml version="1.0" encoding="UTF-8"?>
<svg width="467px" height="374px" viewBox="0 0 467 374" version="1.1" xmlns="http://www.w3.org/2000/svg" xmlns:xlink="http://www.w3.org/1999/xlink">
    <title>Shape</title>
    <g id="Page-1" stroke="none" stroke-width="1" fill="none" fill-rule="evenodd">
        <g id="noun-youtube-3451621" fill="#000000" fill-rule="nonzero">
            <path d="M377.064,11.90025 C281.584,-3.96675 184.144,-3.96675 88.664,11.90025 C34.066,23.33425 -1.42108547e-14,58.56425 -1.42108547e-14,104.53325 L-1.42108547e-14,267.86325 C-1.42108547e-14,314.53125 34.066,349.29725 89.602,361.19525 L89.598094,361.199156 C137.094094,369.195256 185.168094,373.254156 233.328094,373.332156 C281.640094,373.320437 329.867094,369.339956 377.528094,361.430156 C431.661094,351.164156 466.661094,314.762156 466.661094,268.098156 L466.661094,104.768156 C466.661094,58.334156 431.661094,21.932156 377.063094,11.901156 L377.064,11.90025 Z M309.396,197.17025 L192.726,267.17025 C190.9018,268.28355 188.7963,268.84995 186.6596,268.80305 C184.6362,268.787426 182.6401,268.30696 180.8276,267.40465 C177.0932,265.13515 174.8628,261.03745 174.9956,256.67065 L174.9956,116.67065 C175.030756,112.46755 177.2378,108.58475 180.8276,106.40465 C184.5424,104.41245 189.0112,104.41245 192.7256,106.40465 L309.3956,176.40465 C312.8214,178.58825 314.8956,182.37345 314.8956,186.43565 C314.8956,190.50205 312.8214,194.28335 309.3956,196.47065 L309.396,197.17025 Z" id="Shape"></path>
        </g>
    </g>
</svg>