<?xml version="1.0" encoding="UTF-8"?>
<svg width="150px" height="12px" viewBox="0 0 150 12" version="1.1" xmlns="http://www.w3.org/2000/svg" xmlns:xlink="http://www.w3.org/1999/xlink">
    <title>Built With Authentic</title>
    <g id="🔗-Symbols" stroke="none" stroke-width="1" fill="none" fill-rule="evenodd">
        <g id="Footer---Simple" transform="translate(-488.000000, -490.000000)">
            <g transform="translate(-6.000000, 0.000000)" id="Group">
                <g transform="translate(494.000000, 490.000000)" id="Built-With-Authentic">
                    <g>
                        <path d="M4.83579144,11.8623837 C5.66917046,11.8623837 6.39563572,11.7279433 7.01518724,11.4590626 C7.63473875,11.1901819 8.11173859,10.8105856 8.44618674,10.3202738 C8.7806349,9.82996193 8.94785898,9.2632036 8.94785898,8.61999879 C8.94785898,7.95570531 8.75047974,7.39158306 8.35572126,6.92763206 C7.96096277,6.46368106 7.47299742,6.14207865 6.89182521,5.96282485 L6.89182521,5.96282485 L6.89182521,5.89955881 C7.34141126,5.64649462 7.68682493,5.33543656 7.92806623,4.96638463 C8.16930753,4.59733269 8.28992818,4.13865386 8.28992818,3.59034812 C8.28992818,3.06313107 8.14189374,2.58599964 7.84582488,2.15895383 C7.54975602,1.73190801 7.12484237,1.39712518 6.57108394,1.15460534 C6.01732551,0.9120855 5.3731016,0.790825577 4.63841219,0.790825577 L4.63841219,0.790825577 L0,0.790825577 L0,11.8623837 L4.83579144,11.8623837 Z M4.687757,5.33016439 L2.05603377,5.33016439 L2.05603377,2.53064185 L4.687757,2.53064185 C5.80623938,2.53064185 6.36548056,2.99459285 6.36548056,3.92249486 C6.36548056,4.86094121 5.80623938,5.33016439 4.687757,5.33016439 L4.687757,5.33016439 Z M5.16475684,10.1225674 L2.05603377,10.1225674 L2.05603377,7.06998066 L5.16475684,7.06998066 C5.71303251,7.06998066 6.1461703,7.20178492 6.46417018,7.46539345 C6.78217007,7.72900198 6.94117002,8.10859826 6.94117002,8.60418228 C6.94117002,9.09976631 6.78217007,9.47672651 6.46417018,9.73506286 C6.1461703,9.99339918 5.71303251,10.1225674 5.16475684,10.1225674 L5.16475684,10.1225674 Z M13.2902023,12.0205488 C13.860409,12.0205488 14.3867537,11.9124693 14.8692363,11.6963103 C15.3517188,11.4801513 15.7574428,11.1980902 16.0864082,10.8501269 L16.0864082,10.8501269 L16.0864082,11.8623837 L17.961511,11.8623837 L17.961511,3.95412789 L16.0864082,3.95412789 L16.0864082,9.11031065 C15.8122704,9.51099561 15.4887878,9.83259802 15.1159603,10.0751179 C14.7431328,10.3176377 14.3428916,10.4388976 13.9152366,10.4388976 C13.4217885,10.4388976 13.0407368,10.3097294 12.7720818,10.0513931 C12.5034268,9.79305674 12.3690992,9.42136871 12.3690992,8.93632902 L12.3690992,8.93632902 L12.3690992,3.95412789 L10.4939964,3.95412789 L10.4939964,9.28429228 C10.4939964,10.1278395 10.737979,10.7947691 11.2259444,11.285081 C11.7139098,11.7753928 12.4019957,12.0205488 13.2902023,12.0205488 Z M20.9715445,2.92605464 C21.2895443,2.92605464 21.5636822,2.81533906 21.793958,2.59390789 C22.0242338,2.37247673 22.1393717,2.1088682 22.1393717,1.80308232 C22.1393717,1.49729643 22.0242338,1.2336879 21.793958,1.01225674 C21.5636822,0.790825577 21.2895443,0.680109997 20.9715445,0.680109997 C20.6535446,0.680109997 20.3794068,0.790825577 20.149131,1.01225674 C19.9188552,1.2336879 19.8037173,1.49729643 19.8037173,1.80308232 C19.8037173,2.1088682 19.9188552,2.37247673 20.149131,2.59390789 C20.3794068,2.81533906 20.6535446,2.92605464 20.9715445,2.92605464 Z M21.9090959,11.8623837 L21.9090959,3.95412789 L20.0339931,3.95412789 L20.0339931,11.8623837 L21.9090959,11.8623837 Z M25.8566807,11.8623837 L25.8566807,0.316330231 L23.9815779,0.316330231 L23.9815779,11.8623837 L25.8566807,11.8623837 Z M31.0872307,12.0205488 C31.5587478,12.0205488 32.0192993,11.9678271 32.4688854,11.8623837 L32.4688854,11.8623837 L32.4688854,10.4230811 L32.4195405,10.3914481 C32.1563682,10.4547141 31.8986786,10.4863472 31.6464718,10.4863472 C31.3394374,10.4863472 31.1064203,10.4151729 30.9474204,10.2728242 C30.7884204,10.1304756 30.7089204,9.92749711 30.7089204,9.66388856 L30.7089204,9.66388856 L30.7089204,5.50414602 L32.5511267,5.50414602 L32.5511267,3.95412789 L30.7089204,3.95412789 L30.7089204,2.21431162 L28.9654038,1.62910069 L28.8173694,1.62910069 L28.8173694,3.95412789 L27.2876802,3.95412789 L27.2876802,5.50414602 L28.8173694,5.50414602 L28.8173694,9.82205367 C28.8173694,10.5390688 29.0202313,11.0847385 29.4259554,11.4590626 C29.8316794,11.8333868 30.3854378,12.0205488 31.0872307,12.0205488 Z M41.4331926,11.8623837 L43.0286748,6.13680648 L44.6406053,11.8623837 L46.6637425,11.8623837 L49.1145348,3.95412789 L47.1736389,3.95412789 L45.8248808,8.52509972 L45.6110532,9.85368669 L45.5781567,9.85368669 L45.3314326,8.52509972 L43.9333297,3.95412789 L42.1404682,3.95412789 L40.7094687,8.52509972 L40.4791929,9.85368669 L40.4462964,9.85368669 L40.2324689,8.52509972 L38.900159,3.95412789 L36.9428148,3.95412789 L39.4100554,11.8623837 L41.4331926,11.8623837 Z M51.4008443,2.92605464 C51.7188442,2.92605464 51.9929821,2.81533906 52.2232579,2.59390789 C52.4535336,2.37247673 52.5686715,2.1088682 52.5686715,1.80308232 C52.5686715,1.49729643 52.4535336,1.2336879 52.2232579,1.01225674 C51.9929821,0.790825577 51.7188442,0.680109997 51.4008443,0.680109997 C51.0828445,0.680109997 50.8087066,0.790825577 50.5784308,1.01225674 C50.3481551,1.2336879 50.2330172,1.49729643 50.2330172,1.80308232 C50.2330172,2.1088682 50.3481551,2.37247673 50.5784308,2.59390789 C50.8087066,2.81533906 51.0828445,2.92605464 51.4008443,2.92605464 Z M52.3383957,11.8623837 L52.3383957,3.95412789 L50.4632929,3.95412789 L50.4632929,11.8623837 L52.3383957,11.8623837 Z M57.5360491,12.0205488 C58.0075662,12.0205488 58.4681178,11.9678271 58.9177038,11.8623837 L58.9177038,11.8623837 L58.9177038,10.4230811 L58.868359,10.3914481 C58.6051867,10.4547141 58.3474971,10.4863472 58.0952903,10.4863472 C57.7882559,10.4863472 57.5552388,10.4151729 57.3962388,10.2728242 C57.2372388,10.1304756 57.1577389,9.92749711 57.1577389,9.66388856 L57.1577389,9.66388856 L57.1577389,5.50414602 L58.9999452,5.50414602 L58.9999452,3.95412789 L57.1577389,3.95412789 L57.1577389,2.21431162 L55.4142223,1.62910069 L55.2661878,1.62910069 L55.2661878,3.95412789 L53.7364987,3.95412789 L53.7364987,5.50414602 L55.2661878,5.50414602 L55.2661878,9.82205367 C55.2661878,10.5390688 55.4690498,11.0847385 55.8747738,11.4590626 C56.2804979,11.8333868 56.8342562,12.0205488 57.5360491,12.0205488 Z M62.5363233,11.8623837 L62.5363233,6.62711834 C62.8214266,6.24752206 63.1695817,5.94437225 63.5807884,5.71766892 C63.9919952,5.4909656 64.4169088,5.37761393 64.8555294,5.37761393 C65.3380119,5.37761393 65.7272877,5.50678211 66.0233565,5.76511846 C66.3194254,6.02345481 66.4674598,6.39514283 66.4674598,6.88018252 L66.4674598,6.88018252 L66.4674598,11.8623837 L68.3425626,11.8623837 L68.3425626,6.46895322 C68.3425626,5.64649462 68.0793903,4.99538156 67.5530457,4.51561405 C67.026701,4.03584653 66.3249081,3.79596277 65.4476671,3.79596277 C64.8774604,3.79596277 64.3319261,3.90667835 63.8110642,4.12810951 C63.2902023,4.34954068 62.8652887,4.62369354 62.5363233,4.95056811 L62.5363233,4.95056811 L62.5363233,0.316330231 L60.6612205,0.316330231 L60.6612205,11.8623837 L62.5363233,11.8623837 Z" id="Builtwith" fill="#000000" fill-rule="nonzero"></path>
                        <g id="authentic-logo" transform="translate(72.898733, 0.000000)" fill="#000000" fill-rule="nonzero">
                            <g id="Group">
                                <path d="M4.46448011,0.418784308 L0,11.6689839 L2.01654211,11.6689839 L2.74086416,9.82119707 L8.1197855,9.82119707 L8.84410755,11.6689839 L10.8611416,11.6689839 L6.39592361,0.418784308 L4.46448011,0.418784308 Z M5.43032483,2.82945949 L7.48228371,8.11739954 L3.37885785,8.11739954 L5.43032483,2.82945949 Z" id="Fill-1"></path>
                                <path d="M17.8029999,8.06904388 C17.8029999,9.2583317 17.1477897,10.0938368 15.9064812,10.0938368 C14.6654187,10.0938368 14.0269332,9.48348702 14.0269332,8.06904388 L14.0269332,3.63288795 L12.1311523,3.63288795 L12.1311523,8.45515544 C12.1311523,10.5922967 13.302857,11.7657641 15.4413903,11.7657641 C16.6305573,11.7657641 17.4067748,11.2349753 17.8029999,10.7530237 L18.5420789,11.6690068 L19.6995184,11.6690068 L19.6995184,3.63288795 L17.8029999,3.63288795 L17.8029999,8.06904388 Z" id="Fill-2"></path>
                                <polygon id="Fill-4" points="24.9108004 4.58564802e-05 23.0142818 0.192643074 23.0142818 3.63302553 21.2732034 3.63302553 21.2732034 5.3049528 23.0142818 5.3049528 23.0142818 9.99744643 23.0142818 11.6691444 24.9108004 11.6691444 27.4974541 11.6691444 27.4974541 9.99744643 24.9108004 9.99744643 24.9108004 5.3049528 27.4974541 5.3049528 27.4974541 3.63302553 24.9108004 3.63302553"></polygon>
                                <polygon id="Fill-6" points="61.1963348 4.58564802e-05 59.2998162 0.192643074 59.2998162 3.63302553 57.5589837 3.63302553 57.5589837 5.3049528 59.2998162 5.3049528 59.2998162 9.99744643 59.2998162 11.6691444 61.1963348 11.6691444 63.7829884 11.6691444 63.7829884 9.99744643 61.1963348 9.99744643 61.1963348 5.3049528 63.7829884 5.3049528 63.7829884 3.63302553 61.1963348 3.63302553"></polygon>
                                <path d="M33.933861,3.53691035 C32.8133139,3.53691035 31.9854471,3.97071265 31.4684606,4.54896286 L31.4684606,0 L29.5714501,0.192597218 L29.5714501,11.6690986 L31.4684606,11.6690986 L31.4684606,7.23294267 C31.4684606,6.06016318 32.2446781,5.20814977 33.4677862,5.20814977 C34.7786985,5.20814977 35.3473344,5.97945578 35.3473344,7.23294267 L35.3473344,11.6690986 L37.2438529,11.6690986 L37.2438529,6.84774824 C37.2438529,4.70968983 35.9858199,3.53691035 33.933861,3.53691035" id="Fill-8"></path>
                                <polygon id="Fill-10" points="65.7853884 11.6690527 67.6814152 11.6690527 67.6814152 3.63293381 65.7853884 3.63293381"></polygon>
                                <polygon id="Fill-12" points="65.7853884 1.99356464 67.6814152 1.99356464 67.6814152 0.226026593 65.7853884 0.226026593"></polygon>
                                <path d="M75.4976741,8.62858466 L75.4755386,8.70012076 C75.3687964,9.04542006 74.8973107,10.172343 73.3050319,10.172343 C71.6532334,10.172343 70.9011189,8.93444738 70.9011189,7.78390829 C70.9011189,6.12092302 72.1355408,5.36360324 73.2828964,5.36360324 C74.8493505,5.36360324 75.2905844,6.37726074 75.4074105,6.81243874 L75.4275783,6.88810194 L77.0451899,6.41257024 L77.0272356,6.34607833 C76.7084847,5.12354456 75.5571939,3.817552 73.2828964,3.817552 C71.2697977,3.817552 69.1305266,5.20792049 69.1305266,7.78390829 C69.1305266,10.0758152 70.886362,11.739259 73.3050319,11.739259 C75.5867078,11.739259 76.766037,10.3433877 77.0830662,9.14813858 L77.1012665,9.08072955 L75.4976741,8.62858466 Z" id="Fill-13"></path>
                                <path d="M41.0642398,6.76566514 C41.3296196,5.92626226 42.2261066,5.24919133 43.2721309,5.24919133 C44.3179093,5.24919133 45.2143961,5.92626226 45.4802678,6.76566514 L41.0642398,6.76566514 Z M43.2721309,3.6038608 C40.9147024,3.6038608 39.0545843,5.44270567 39.0545843,7.73323687 C39.0545843,10.0235388 40.9147024,11.8623837 43.3215668,11.8623837 C45.1979175,11.8623837 46.8086425,10.8783035 47.3726053,9.41066693 L45.1979175,9.41066693 C44.8494067,9.92678161 44.1683719,10.1851829 43.3215668,10.1851829 C42.1267429,10.1851829 41.1798362,9.36251762 40.9806169,8.34633802 L47.4397496,8.34633802 C47.4729528,8.15259438 47.4894315,7.94280099 47.4894315,7.73323687 C47.4894315,5.44270567 45.6295594,3.6038608 43.2721309,3.6038608 L43.2721309,3.6038608 Z" id="Fill-14"></path>
                                <path d="M50.9915839,7.23342416 C50.9915839,6.04413634 51.6467941,5.20863127 52.8881026,5.20863127 C54.1291651,5.20863127 54.7674047,5.81898103 54.7674047,7.23342416 L54.7674047,11.6695801 L56.6634315,11.6695801 L56.6634315,6.8473126 C56.6634315,4.71017132 55.4917267,3.53670399 53.3531936,3.53670399 C52.1637805,3.53670399 51.3875631,4.06726346 50.9915839,4.54944436 L50.252259,3.63323188 L49.0950653,3.63323188 L49.0950653,11.6695801 L50.9915839,11.6695801 L50.9915839,7.23342416 Z" id="Fill-15"></path>
                            </g>
                        </g>
                    </g>
                </g>
            </g>
        </g>
    </g>
</svg>