<?xml version="1.0" encoding="UTF-8"?>
<svg width="40px" height="16px" viewBox="0 0 40 16" version="1.1" xmlns="http://www.w3.org/2000/svg" xmlns:xlink="http://www.w3.org/1999/xlink">
    <title>Path</title>
    <g id="🔗-Symbols" stroke="none" stroke-width="1" fill="none" fill-rule="evenodd">
        <g id="Map---Floor-Plan-With-Units" transform="translate(-492.000000, -219.000000)" fill="#C3C8D1">
            <g id="Floors" transform="translate(490.000000, 200.000000)">
                <g id="icon-levels" transform="translate(2.000000, 0.000000)">
                    <path d="M39.0602493,21.5812026 L35.6340614,19.7184208 L20.7650711,27.8348271 C20.2504758,28.1319288 19.6164683,28.1319288 19.1018731,27.8348271 L7.77549453,21.6144665 L7.77549453,21.6144665 L4.29941066,19.7184208 L0.873222732,21.5812026 C0.335305909,21.8715393 0,22.4335477 0,23.0448168 C0,23.6560859 0.335305909,24.2180943 0.873222732,24.5084311 L19.168401,34.4876192 C19.6829962,34.7847209 20.3170038,34.7847209 20.831599,34.4876192 L39.1267773,24.5084311 C39.6646941,24.2180943 40,23.6560859 40,23.0448168 C40,22.4335477 39.6646941,21.8715393 39.1267773,21.5812026 L39.0602493,21.5812026 Z" id="Path"></path>
                </g>
            </g>
        </g>
    </g>
</svg>