<?xml version="1.0" encoding="UTF-8"?>
<svg width="26px" height="22px" viewBox="0 0 26 22" version="1.1" xmlns="http://www.w3.org/2000/svg" xmlns:xlink="http://www.w3.org/1999/xlink">
    <title>hotspot-image</title>
    <g id="Page-1" stroke="none" stroke-width="1" fill="none" fill-rule="evenodd">
        <g id="hotspot-image" transform="translate(0.135417, 0.027083)" fill="#000000" fill-rule="nonzero">
            <path d="M22.425,3.14166667 L16.7375,3.14166667 L16.3583333,1.57083334 C16.1416666,0.65 15.3020833,0 14.38125,0 L11.4020833,0 C10.4541666,0 9.64166666,0.65 9.425,1.57083334 L9.04583333,3.14166667 L3.35833333,3.14166667 C1.48958333,3.14166667 0,4.60416667 0,6.44583334 L0,17.7666667 C0,19.58125 1.48958333,21.0708334 3.30416666,21.0708334 L22.425,21.0708334 C24.2395833,21.0708334 25.7291666,19.58125 25.7291666,17.7666667 L25.7291666,6.44583334 C25.7291666,4.60416667 24.2395833,3.14166667 22.425,3.14166667 Z M10.725,1.89583334 C10.80625,1.59791667 11.05,1.38125 11.375,1.38125 L14.3541666,1.38125 C14.6520833,1.38125 14.9229166,1.59791667 15.0041666,1.89583334 L15.3020833,3.14166667 L10.4270833,3.14166667 L10.725,1.89583334 Z M24.3479166,17.7666667 C24.3479166,18.8229167 23.48125,19.6895834 22.425,19.6895834 L3.30416666,19.6895834 C2.24791666,19.6895834 1.38125,18.8229167 1.38125,17.7666667 L1.38125,6.44583334 C1.38125,5.38958334 2.24791666,4.52291667 3.30416666,4.52291667 L22.425,4.52291667 C23.48125,4.52291667 24.3479166,5.38958334 24.3479166,6.44583334 L24.3479166,17.7666667 L24.3479166,17.7666667 Z" id="Shape"></path>
            <circle id="Oval" cx="4.52291666" cy="7.6375" r="1.27291667"></circle>
            <circle id="Oval-Copy" cx="12.8645833" cy="11.9729167" r="4"></circle>
        </g>
    </g>
</svg>