<?xml version="1.0" encoding="UTF-8"?>
<svg width="16px" height="16px" viewBox="0 0 16 16" version="1.1" xmlns="http://www.w3.org/2000/svg" xmlns:xlink="http://www.w3.org/1999/xlink">
    <g id="🔗-Symbols" stroke="none" stroke-width="1" fill="none" fill-rule="evenodd">
        <g id="hotspot-info" transform="translate(-12.000000, -12.000000)" fill="#1A1A1A">
            <g transform="translate(12.000000, 12.000000)" id="noun_Info_407757">
                <path d="M7.93021412,0 C3.55273592,0 0,3.55273592 0,7.93021412 C0,12.3076923 3.55273592,15.8604282 7.93021412,15.8604282 C12.3076923,15.8604282 15.8604282,12.3076923 15.8604282,7.93021412 C15.8604282,3.55273592 12.3076923,0 7.93021412,0 Z M8.69151467,11.8953212 L7.16891356,11.8953212 L7.16891356,10.5503569 L7.16891356,7.48612213 L8.69151467,7.48612213 L8.69151467,11.8953212 Z M7.93021412,6.01427439 C7.28310864,6.01427439 6.75654243,5.48770817 6.75654243,4.8406027 C6.75654243,4.19349722 7.28310864,3.66693101 7.93021412,3.66693101 C8.57731959,3.66693101 9.1038858,4.19349722 9.1038858,4.8406027 C9.1038858,5.48770817 8.57731959,6.01427439 7.93021412,6.01427439 Z" id="Shape"></path>
            </g>
        </g>
    </g>
</svg>