<?xml version="1.0" encoding="UTF-8"?>
<svg width="31px" height="25px" viewBox="0 0 31 25" version="1.1" xmlns="http://www.w3.org/2000/svg" xmlns:xlink="http://www.w3.org/1999/xlink">
    <title>hotspot-image360</title>
    <g id="Page-1" stroke="none" stroke-width="1" fill="none" fill-rule="evenodd">
        <g id="hotspot-image360" fill="#000000" fill-rule="nonzero">
            <path d="M29.7421466,6.24534801 L29.5798429,6.16918523 C28.5248691,5.59796438 27.2670157,5.1029063 25.8468586,4.68401101 C23.4123037,1.82790674 19.6793194,0 15.4594241,0 C11.2801047,0 7.5065445,1.82790674 5.07198953,4.68401101 C3.65183246,5.1029063 2.39397906,5.59796438 1.33900524,6.16918523 L1.17670157,6.24534801 L1.13612565,6.35959218 C0.446335079,7.38778972 0,9.71075453 0,12.4526146 C0,15.1944747 0.446335079,17.5174395 1.13612565,18.5456371 L1.21727749,18.6979626 L1.37958115,18.7741254 C2.43455497,19.3453463 3.69240838,19.8404044 5.11256545,20.2592996 C7.54712042,23.1154039 11.2801047,24.9433107 15.5,24.9433107 C19.6793194,24.9433107 23.4528796,23.1154039 25.8874346,20.2592996 C27.3075916,19.8404044 28.565445,19.3453463 29.6204188,18.7741254 L29.7827225,18.6979626 L29.8638743,18.5456371 C30.5536649,17.5174395 31,15.1944747 31,12.4526146 C31,9.71075453 30.5536649,7.38778972 29.8638743,6.35959218 L29.7421466,6.24534801 Z M15.5,20.2212183 C10.2251309,20.2212183 5.31544503,19.2691835 2.27225131,17.6697651 C1.86649215,16.9462187 1.46073298,15.0802306 1.46073298,12.4526146 C1.46073298,9.8249987 1.86649215,7.95901058 2.27225131,7.23546416 C5.31544503,5.63604577 10.2251309,4.68401101 15.5,4.68401101 C20.7748691,4.68401101 25.684555,5.63604577 28.7277487,7.23546416 C29.1335079,7.95901058 29.539267,9.8249987 29.539267,12.4526146 C29.539267,15.0802306 29.1335079,16.9462187 28.7277487,17.6697651 C25.684555,19.2691835 20.7748691,20.2212183 15.5,20.2212183 Z" id="Shape"></path>
            <path d="M15.2032333,7.4829932 C10.5092529,7.4829932 6.95918367,9.07365771 6.95918367,11.1452208 C6.95918367,12.3659633 8.10309487,13.4017449 10.1936912,14.1045966 C10.5486981,14.2155732 10.9431503,14.0306122 11.1009311,13.6976825 C11.2192667,13.3647527 11.0220407,12.9948307 10.6670338,12.8468619 C9.28645128,12.4029555 8.37921136,11.737096 8.37921136,11.1452208 C8.37921136,10.1464315 10.9825955,8.77772013 15.2032333,8.77772013 C19.4238712,8.77772013 22.0272553,10.1464315 22.0272553,11.1452208 C22.0272553,11.8480726 20.7255632,12.6988931 18.5560765,13.1797917 L19.6605425,12.2919789 C19.936659,12.0700258 19.9761042,11.6261194 19.7394329,11.367174 C19.5027616,11.1082286 19.029419,11.0712364 18.7533026,11.2931896 L15.7554663,13.6976825 C15.5582402,13.8456513 15.4793498,14.0676044 15.518795,14.3265498 C15.5582402,14.548503 15.7160211,14.733464 15.9526924,14.8444406 L19.6210973,16.1761597 C19.6999877,16.2131519 19.7788781,16.2131519 19.8577685,16.2131519 C20.133885,16.2131519 20.4100015,16.0651831 20.5283372,15.8062377 C20.686118,15.473308 20.488892,15.0663938 20.133885,14.9554172 L18.8716382,14.5115108 C21.6722484,13.9196357 23.4078378,12.6988931 23.4078378,11.182213 C23.447283,9.07365771 19.8972137,7.4829932 15.2032333,7.4829932 Z" id="Path"></path>
        </g>
    </g>
</svg>