<?xml version="1.0" encoding="UTF-8"?>
<svg width="21px" height="21px" viewBox="0 0 21 21" version="1.1" xmlns="http://www.w3.org/2000/svg" xmlns:xlink="http://www.w3.org/1999/xlink">
    <title>hotspot-imageBeforeAfter</title>
    <g id="Page-1" stroke="none" stroke-width="1" fill="none" fill-rule="evenodd">
        <g id="hotspot-imageBeforeAfter" fill="#000000" fill-rule="nonzero">
            <path d="M7.38461538,19 L1.53723077,19 C0.689846154,19 0,18.2526667 0,17.3346667 L0,4.65333333 C0,3.742 0.684923077,3 1.52615385,3 L7.32861538,3 C7.66830769,3 7.944,3.29866667 7.944,3.66666667 C7.944,4.03466667 7.66830769,4.33333333 7.32861538,4.33333333 L1.52615385,4.33333333 C1.36307692,4.33333333 1.23076923,4.47666667 1.23076923,4.65333333 L1.23076923,17.334 C1.23076923,17.514 1.37107692,17.6666667 1.53723077,17.6666667 L7.38461538,17.6666667 C7.72430769,17.6666667 8,17.9646667 8,18.3333333 C8,18.702 7.72430769,19 7.38461538,19 Z" id="Path"></path>
            <path d="M18.577072,18.3333333 C18.577072,17.9666667 18.8559256,17.6666667 19.1967467,17.6666667 C19.5375678,17.6666667 19.8164214,17.9666667 19.8164214,18.3333333 C19.8164214,18.7 19.5375678,19 19.1967467,19 C18.8559256,19 18.577072,18.7 18.577072,18.3333333 Z M16.718048,18.3333333 C16.718048,17.9666667 16.9969016,17.6666667 17.3377227,17.6666667 C17.6785438,17.6666667 17.9573974,17.9666667 17.9573974,18.3333333 C17.9573974,18.7 17.6785438,19 17.3377227,19 C16.9969016,19 16.718048,18.7 16.718048,18.3333333 Z M14.859024,18.3333333 C14.859024,17.9666667 15.1378776,17.6666667 15.4786987,17.6666667 C15.8195198,17.6666667 16.0983734,17.9666667 16.0983734,18.3333333 C16.0983734,18.7 15.8195198,19 15.4786987,19 C15.1378776,19 14.859024,18.7 14.859024,18.3333333 Z M13,18.3333333 C13,17.9666667 13.2788536,17.6666667 13.6196747,17.6666667 C13.9604957,17.6666667 14.2393493,17.9666667 14.2393493,18.3333333 C14.2393493,18.7 13.9604957,19 13.6196747,19 C13.2788536,19 13,18.7 13,18.3333333 Z M19.7606507,17.18 C19.7606507,16.8133333 20.0395043,16.5133333 20.3803253,16.5133333 C20.7211464,16.5133333 21,16.8133333 21,17.18 C21,17.554 20.7211464,17.8466667 20.3803253,17.8466667 C20.0395043,17.8466667 19.7606507,17.5533333 19.7606507,17.18 Z M19.7606507,15.18 C19.7606507,14.8133333 20.0395043,14.5133333 20.3803253,14.5133333 C20.7211464,14.5133333 21,14.8133333 21,15.18 C21,15.554 20.7211464,15.8466667 20.3803253,15.8466667 C20.0395043,15.8466667 19.7606507,15.5533333 19.7606507,15.18 Z M19.7606507,13.18 C19.7606507,12.8133333 20.0395043,12.5133333 20.3803253,12.5133333 C20.7211464,12.5133333 21,12.8133333 21,13.18 C21,13.554 20.7211464,13.8466667 20.3803253,13.8466667 C20.0395043,13.8466667 19.7606507,13.5533333 19.7606507,13.18 Z M19.7606507,11.1866667 C19.7606507,10.8133333 20.0395043,10.5133333 20.3803253,10.5133333 C20.7211464,10.5133333 21,10.8133333 21,11.1866667 C21,11.5533333 20.7211464,11.8466667 20.3803253,11.8466667 C20.0395043,11.8466667 19.7606507,11.5533333 19.7606507,11.1866667 Z M19.7606507,9.18 C19.7606507,8.81333333 20.0395043,8.52 20.3803253,8.52 C20.7211464,8.52 21,8.81333333 21,9.18 C21,9.55333333 20.7211464,9.85333333 20.3803253,9.85333333 C20.0395043,9.85333333 19.7606507,9.55333333 19.7606507,9.18 Z M19.7606507,7.18666667 C19.7606507,6.81333333 20.0395043,6.51333333 20.3803253,6.51333333 C20.7211464,6.51333333 21,6.81333333 21,7.18666667 C21,7.55333333 20.7211464,7.84666667 20.3803253,7.84666667 C20.0395043,7.84666667 19.7606507,7.55333333 19.7606507,7.18666667 Z M19.7606507,5.18 C19.7606507,4.81333333 20.0395043,4.52 20.3803253,4.52 C20.7211464,4.52 21,4.81333333 21,5.18 C21,5.55333333 20.7211464,5.85333333 20.3803253,5.85333333 C20.0395043,5.85333333 19.7606507,5.55333333 19.7606507,5.18 Z M19.4817971,4.33333333 C19.4817971,4.33333333 19.4817971,4.33333333 19.4756003,4.33333333 C19.1347792,4.3 18.8869094,3.98 18.9116964,3.61333333 C18.9426801,3.24666667 19.2401239,2.97333333 19.5871418,3.00666667 L19.580945,3.00666667 C19.9217661,3.04 20.1758327,3.36 20.1510457,3.72666667 C20.120062,4.07333333 19.8536019,4.34 19.531371,4.34 C19.5127808,4.34 19.4935709,4.33333333 19.4817971,4.33333333 Z M17.0526723,3.66666667 C17.0526723,3.3 17.3315259,3 17.672347,3 C18.0131681,3 18.2920217,3.3 18.2920217,3.66666667 C18.2920217,4.03333333 18.0131681,4.33333333 17.672347,4.33333333 C17.3315259,4.33333333 17.0526723,4.03333333 17.0526723,3.66666667 Z M15.1936483,3.66666667 C15.1936483,3.3 15.4725019,3 15.813323,3 C16.1541441,3 16.4329977,3.3 16.4329977,3.66666667 C16.4329977,4.03333333 16.1541441,4.33333333 15.813323,4.33333333 C15.4725019,4.33333333 15.1936483,4.03333333 15.1936483,3.66666667 Z M13.3346243,3.66666667 C13.3346243,3.3 13.6134779,3 13.954299,3 C14.2951201,3 14.5739737,3.3 14.5739737,3.66666667 C14.5739737,4.03333333 14.2951201,4.33333333 13.954299,4.33333333 C13.6134779,4.33333333 13.3346243,4.03333333 13.3346243,3.66666667 Z" id="Shape"></path>
            <path d="M10.5,21 C10.224,21 10,20.7066563 10,20.34375 L10,0.65625 C10,0.294 10.224,0 10.5,0 C10.776,0 11,0.294 11,0.65625 L11,20.34375 C11,20.7066563 10.776,21 10.5,21 Z" id="Path"></path>
        </g>
    </g>
</svg>