<?xml version="1.0" encoding="UTF-8"?>
<svg width="444px" height="444px" viewBox="0 0 444 444" version="1.1" xmlns="http://www.w3.org/2000/svg" xmlns:xlink="http://www.w3.org/1999/xlink">
    <title>hotspot-iframe</title>
    <g id="Page-1" stroke="none" stroke-width="1" fill="none" fill-rule="evenodd">
        <g id="hotspot-iframe" fill="#000000" fill-rule="nonzero">
            <path d="M2.84217094e-14,384.995 C0.015625,400.464 6.168,415.292 17.105,426.225 C28.039,437.163 42.867,443.315 58.335,443.33 L384.995,443.33 C400.464,443.314375 415.292,437.162 426.225,426.225 C437.163,415.291 443.315,400.463 443.33,384.995 L443.33,58.335 C443.314375,42.866 437.162,28.038 426.225,17.105 C415.291,6.167 400.463,0.015 384.995,-1.42108547e-14 L58.335,-1.42108547e-14 C42.866,0.015625 28.038,6.168 17.105,17.105 C6.167,28.039 0.015,42.867 2.84217094e-14,58.335 L2.84217094e-14,384.995 Z M116.67,23.325 L385,23.328907 C394.2812,23.336719 403.176,27.028107 409.738,33.590907 C416.3,40.153707 419.992,49.047907 420,58.328907 L420,93.328907 L116.67,93.328907 L116.67,23.325 Z M23.338,58.329 C23.345812,49.0478 27.0372,40.153 33.6,33.591 C40.1628,27.029 49.057,23.337 58.338,23.329 L93.338,23.329 L93.338,93.329 L23.338,93.329 L23.338,58.329 Z M23.338,116.661 L420.008,116.661 L420.008,384.991 C419.996281,394.2722 416.304893,403.167 409.742093,409.729 C403.179293,416.291 394.285093,419.983 385.004093,419.991 L58.344093,419.991 C49.062893,419.983188 40.168093,416.2918 33.606093,409.729 C27.044093,403.1662 23.352093,394.272 23.344093,384.991 L23.338,116.661 Z M283.428,306.751 L321.846,268.333 L283.428,229.915 L283.424094,229.915 C279.006094,225.3369 279.068594,218.06 283.568624,213.56 C288.068654,209.06 295.345624,208.9975 299.923624,213.41938 L346.591624,260.08738 L346.587717,260.083474 C348.775217,262.270974 350.005717,265.239674 350.005717,268.333474 C350.005717,271.427274 348.775217,274.392074 346.587717,276.579574 L299.919717,323.247574 L299.923623,323.247574 C295.345523,327.669474 288.068623,327.606974 283.568623,323.106954 C279.068623,318.606934 279.006123,311.329954 283.424093,306.751954 L283.428,306.751 Z M96.758,276.579 C94.5666,274.3915 93.34,271.4267 93.34,268.3329 C93.34,265.2391 94.5666,262.2704 96.758,260.0829 L143.426,213.4149 L143.422094,213.4149 C148.000194,208.993 155.277094,209.0594 159.777094,213.55943 C164.277094,218.05946 164.339594,225.33643 159.917714,229.91143 L121.499714,268.33343 L159.917714,306.75143 L159.92162,306.75143 C162.17162,308.92333 163.45282,311.91163 163.480668,315.04053 C163.50762,318.16943 162.27712,321.17723 160.06612,323.39213 C157.85132,325.60303 154.84342,326.83353 151.71452,326.806675 C148.58562,326.782793 145.59732,325.49763 143.42152,323.24763 L96.758,276.579 Z M187.266,334.638 L233.934,194.638 L233.930093,194.638 C234.910563,191.7044 237.015993,189.2747 239.785593,187.8919 C242.555093,186.5052 245.758293,186.2786 248.695793,187.25518 C254.812993,189.29428 258.117693,195.90748 256.078593,202.02118 L209.410593,342.02118 L209.4145,342.02118 C207.3754,348.13838 200.7622,351.44308 194.6485,349.40398 C188.5313,347.36878 185.2266,340.75558 187.2657,334.63798 L187.266,334.638 Z" id="Shape"></path>
        </g>
    </g>
</svg>