<?xml version="1.0" encoding="UTF-8"?>
<svg width="27px" height="15px" viewBox="0 0 27 15" version="1.1" xmlns="http://www.w3.org/2000/svg" xmlns:xlink="http://www.w3.org/1999/xlink">
    <title>noun_sleep_947852</title>
    <g id="🔗-Symbols" stroke="none" stroke-width="1" fill="none" fill-rule="evenodd">
        <g id="Apfolio-Lisiting" fill="#000000" fill-rule="nonzero">
            <g id="Group" transform="translate(0.000000, -0.521614)">
                <g id="noun_sleep_947852" transform="translate(0.000000, 0.521614)">
                    <circle id="Oval" cx="6.372" cy="5.076" r="2.835"></circle>
                    <path d="M19.467,1.917 L10.557,1.917 C10.395,1.917 10.233,2.052 10.233,2.241 L10.233,8.937 L2.484,8.937 L2.484,0.324 C2.484,0.162 2.349,0 2.16,0 L0.324,0 C0.162,0 0,0.135 0,0.324 L0,14.094 C0,14.256 0.135,14.418 0.324,14.418 L2.16,14.418 C2.322,14.418 2.484,14.283 2.484,14.094 L2.484,11.394 L24.03,11.394 L24.03,14.094 C24.03,14.256 24.165,14.418 24.354,14.418 L26.19,14.418 C26.352,14.418 26.514,14.283 26.514,14.094 L26.514,8.937 C26.487,5.076 23.355,1.917 19.467,1.917 Z" id="Path"></path>
                </g>
            </g>
        </g>
    </g>
</svg>