<?xml version="1.0" standalone="no"?>
<!DOCTYPE svg PUBLIC "-//W3C//DTD SVG 1.1//EN" "http://www.w3.org/Graphics/SVG/1.1/DTD/svg11.dtd" >
<svg xmlns="http://www.w3.org/2000/svg" xmlns:xlink="http://www.w3.org/1999/xlink" version="1.1">
<metadata>
Created by FontForge 20170731 at Sat Jun 19 00:04:09 2021
 By Aleksey,,,
Copyright (c) 2020 The Inter Project Authors
</metadata>
<defs>
<font id="Inter-BlackItalic" horiz-adv-x="0" >
  <font-face 
    font-family="Inter Black"
    font-weight="900"
    font-style="italic"
    font-stretch="normal"
    units-per-em="2816"
    panose-1="2 0 10 3 0 0 0 2 0 4"
    ascent="2252"
    descent="-564"
    x-height="1536"
    cap-height="2048"
    bbox="-2461.68 -928 7318 3180"
    underline-thickness="320"
    underline-position="-896"
    slope="-9.39999"
    unicode-range="U+0020-1F852"
  />
<missing-glyph horiz-adv-x="3060" 
d="M88 -640l84 512h2420l-84 -512h-2420zM204 64l84 512h2420l-84 -512h-2420zM320 768l84 512h2420l-84 -512h-2420zM436 1472l84 512h2420l-84 -512h-2420zM552 2176l84 512h2420l-84 -512h-2420z" />
    <glyph glyph-name=".notdef" horiz-adv-x="3060" 
d="M88 -640l84 512h2420l-84 -512h-2420zM204 64l84 512h2420l-84 -512h-2420zM320 768l84 512h2420l-84 -512h-2420zM436 1472l84 512h2420l-84 -512h-2420zM552 2176l84 512h2420l-84 -512h-2420z" />
    <glyph glyph-name=".null" 
 />
    <glyph glyph-name="nonmarkingreturn" horiz-adv-x="938" 
 />
    <glyph glyph-name="uni0020" unicode=" " horiz-adv-x="560" 
 />
    <glyph glyph-name="uni0021" unicode="!" horiz-adv-x="1000" 
d="M988 2048l-284 -1408h-452l180 1408h556zM388 -32q-117 0 -190.5 81.5t-61.5 198.5q12 114 103.5 195t208.5 81q112 0 186 -81.5t62 -194.5q-12 -115 -105 -197.5t-203 -82.5z" />
    <glyph glyph-name="uni0022" unicode="&#x22;" horiz-adv-x="1084" 
d="M672 2048l-136 -828h-360l136 828h360zM1192 2048l-136 -828h-360l136 828h360z" />
    <glyph glyph-name="uni0023" unicode="#" horiz-adv-x="1864" 
d="M948 0l85 468h-320l-85 -468h-400l85 468h-265l76 400h262l56 312h-264l74 400h263l85 468h400l-85 -468h320l85 468h400l-85 -468h265l-74 -400h-264l-56 -312h266l-76 -400h-263l-85 -468h-400zM786 868h320l56 312h-320z" />
    <glyph glyph-name="uni0024" unicode="$" horiz-adv-x="1876" 
d="M710 -256l39 234q-373 19 -554 204t-123 538h528q-16 -122 43 -194t182 -89l62 375l-159 36q-561 129 -488 576q30 182 147.5 325.5t301 227.5t407.5 97l38 230h164l-38 -231q331 -21 495.5 -200t116.5 -465h-532q16 173 -156 205l-60 -357l108 -24q618 -136 536 -628
q-48 -285 -272 -447t-583 -179l-39 -234h-164zM989 439q92 15 146.5 58.5t64.5 106.5q10 56 -26 96t-130 72zM967 1296l53 319q-171 -26 -192 -151q-28 -110 139 -168z" />
    <glyph glyph-name="uni0025" unicode="%" horiz-adv-x="2508" 
d="M1244 384l20 108q25 132 97.5 240t194.5 176t272 68q154 0 256.5 -66.5t139.5 -175.5t12 -242l-20 -108q-25 -132 -97.5 -240t-196 -176t-274.5 -68q-152 0 -253.5 67.5t-138 176.5t-12.5 240zM368 1556l16 108q30 205 185.5 344.5t378.5 139.5q116 0 203 -38
t135.5 -104.5t66.5 -153.5t3 -188l-16 -108q-30 -205 -185 -342.5t-383 -137.5q-114 0 -200.5 38t-134.5 104t-66 152.5t-3 185.5zM274 0l1748 2048h300l-1748 -2048h-300zM1612 492l-20 -108q-5 -40 -2 -77t31.5 -64t78.5 -27q132 0 164 168l20 108q8 30 5.5 60.5
t-11.5 55.5t-35 40.5t-67 15.5q-72 0 -111 -50t-53 -122zM736 1664l-16 -108q-4 -42 -1 -79t30 -63t75 -26q75 0 114 48.5t50 119.5l16 108q26 172 -108 172q-72 0 -111 -51.5t-49 -120.5z" />
    <glyph glyph-name="uni0026" unicode="&#x26;" horiz-adv-x="1964" 
d="M668 -32q-161 0 -287.5 45.5t-203 124t-108.5 183t-13 223.5q11 68 37.5 129t63.5 110t91.5 98t111 88.5t132.5 86.5l3 2q-130 230 -91 454q20 116 80.5 220t150 181t209.5 122t252 45q168 0 285 -71t164.5 -188.5t22.5 -260.5q-23 -143 -113.5 -267t-238.5 -217
l-112 -70l215 -289q119 163 149 351h436q-68 -442 -317 -711l265 -357h-552l-87 112h-1q-248 -144 -544 -144zM961 436l-249 321q-105 -74 -124 -173q-11 -87 40 -135.5t152 -48.5q84 0 181 36zM911 1292l93 52q126 72 148 176q11 52 -21.5 88t-106.5 36q-70 0 -119 -37.5
t-57 -102.5q-11 -85 63 -212z" />
    <glyph glyph-name="uni0027" unicode="'" horiz-adv-x="564" 
d="M672 2048l-136 -828h-360l136 828h360z" />
    <glyph glyph-name="uni0028" unicode="(" horiz-adv-x="1240" 
d="M244 792q61 374 214 683t414 573h540q-199 -199 -365.5 -551.5t-226.5 -704.5q-58 -356 -8 -706t184 -550h-540q-172 264 -223 577t11 679z" />
    <glyph glyph-name="uni0029" unicode=")" horiz-adv-x="1240" 
d="M1004 792q-61 -374 -214 -683t-414 -573h-540q199 199 365.5 551.5t226.5 704.5q58 356 8 706t-184 550h540q172 -264 223 -577t-11 -679z" />
    <glyph glyph-name="uni002A" unicode="*" horiz-adv-x="1712" 
d="M716 896l92 352l-328 -204l-112 280l344 148l-296 148l208 280l256 -204l28 352h320l-92 -352l328 204l112 -280l-344 -148l296 -148l-208 -280l-256 204l-28 -352h-320z" />
    <glyph glyph-name="uni002B" unicode="+" horiz-adv-x="1952" 
d="M640 92l85 516h-517l76 448h515l85 516h448l-85 -516h517l-76 -448h-515l-85 -516h-448z" />
    <glyph glyph-name="uni002C" unicode="," horiz-adv-x="896" 
d="M596 280l-28 -112q-12 -52 -30 -107.5t-35.5 -101.5t-42.5 -100.5t-42 -89.5t-44.5 -85t-40 -71.5l-37.5 -64.5t-28 -48h-340q2 4 36 79.5t54.5 126.5t52.5 135t54.5 167t34.5 160l20 112h416z" />
    <glyph glyph-name="uni002D" unicode="-" horiz-adv-x="1336" 
d="M1190 1024l-68 -416h-960l68 416h960z" />
    <glyph glyph-name="uni002E" unicode="." horiz-adv-x="880" 
d="M324 -32q-117 0 -190.5 81.5t-61.5 198.5q12 114 103.5 195t208.5 81q112 0 186 -81.5t62 -194.5q-12 -115 -105 -197.5t-203 -82.5z" />
    <glyph glyph-name="uni002F" unicode="/" horiz-adv-x="1160" 
d="M1372 2144l-1064 -2452h-468l1064 2452h468z" />
    <glyph glyph-name="uni0030" unicode="0" horiz-adv-x="2056" 
d="M892 -56q-209 0 -366.5 73t-251 211.5t-124.5 338.5t14 453q57 334 207 573t372.5 361t500.5 122q421 0 616 -276.5t112 -779.5q-84 -505 -372.5 -790.5t-707.5 -285.5zM968 396q150 0 262 155.5t166 468.5q52 304 -10.5 456t-213.5 152t-266 -152.5t-166 -455.5
q-52 -311 12.5 -467.5t215.5 -156.5z" />
    <glyph glyph-name="uni0031" unicode="1" horiz-adv-x="1424" 
d="M1352 2048l-340 -2048h-556l256 1536h-12l-492 -268l76 472l556 308h512z" />
    <glyph glyph-name="uni0032" unicode="2" horiz-adv-x="1820" 
d="M8 0l66 400l870 632q72 52 118.5 90.5t88.5 83.5t65 91t32 99q19 116 -42.5 184t-177.5 68q-118 0 -200.5 -70.5t-103.5 -197.5h-528q54 322 298.5 509t603.5 187q368 0 558.5 -172.5t141.5 -459.5q-21 -124 -88 -235t-220 -255.5t-416 -337.5l-218 -160l-2 -12h800
l-74 -444h-1572z" />
    <glyph glyph-name="uni0033" unicode="3" horiz-adv-x="1900" 
d="M832 -28q-185 0 -336 48.5t-249 134t-140.5 207t-18.5 262.5h552q-17 -88 48.5 -146t175.5 -58q124 0 216 73.5t108 170.5q15 92 -58 138t-206 46h-220l64 384h196q127 0 221 68t111 172q14 81 -33 128.5t-151 47.5q-119 0 -215 -60.5t-109 -151.5h-528
q31 185 154.5 331.5t313.5 227.5t412 81q171 0 311.5 -50.5t229 -135.5t128 -199t19.5 -239q-29 -175 -159 -270.5t-337 -113.5v-16q219 -26 337.5 -161.5t86.5 -330.5q-27 -166 -154 -300.5t-329.5 -211t-440.5 -76.5z" />
    <glyph glyph-name="uni0034" unicode="4" horiz-adv-x="1976" 
d="M40 320l72 432l1040 1296h704l-215 -1296h235l-72 -432h-235l-53 -320h-532l54 320h-998zM1122 752l119 720h-17l-560 -704l-4 -16h462z" />
    <glyph glyph-name="uni0035" unicode="5" horiz-adv-x="1884" 
d="M824 -28q-174 0 -316.5 48.5t-235 134.5t-133.5 207t-19 262h540q-14 -103 53 -167.5t179 -64.5q130 0 223.5 81t116.5 215q22 134 -45 215t-195 81q-90 0 -171 -43t-129 -117l-472 96l268 1128h1376l-72 -444h-920l-116 -452h12q65 95 194.5 155.5t281.5 60.5
q181 0 311.5 -84.5t187.5 -236.5t25 -343q-25 -159 -106 -294.5t-203 -232t-286 -151t-349 -54.5z" />
    <glyph glyph-name="uni0036" unicode="6" horiz-adv-x="1928" 
d="M884 -28q-125 0 -233.5 25.5t-203.5 80t-163 139t-111 202t-49 269t24 340.5q41 242 136 438.5t230 330.5t308.5 206.5t369.5 72.5q167 0 304.5 -50t227 -136t135 -202t37.5 -248h-540q0 84 -55.5 124t-144.5 40q-175 0 -293.5 -154t-166.5 -414l16 28q80 137 231 212.5
t325 75.5q188 0 320 -88t186.5 -241.5t21.5 -346.5q-34 -211 -161.5 -371.5t-322 -246.5t-428.5 -86zM904 392q134 0 238 91.5t122 228.5q18 117 -42.5 190.5t-177.5 73.5q-131 0 -234.5 -91t-125.5 -229q-16 -121 44.5 -192.5t175.5 -71.5z" />
    <glyph glyph-name="uni0037" unicode="7" horiz-adv-x="1720" 
d="M100 0l1068 1592l4 12h-944l72 444h1520l-72 -444l-1076 -1604h-572z" />
    <glyph glyph-name="uni0038" unicode="8" horiz-adv-x="1940" 
d="M836 -28q-244 0 -429 76t-274 210t-61 298q32 185 193 325.5t367 170.5v16q-168 30 -259.5 156.5t-64.5 295.5q26 158 148 285.5t313.5 199t414.5 71.5t390 -72t247 -199t55 -285q-28 -171 -161 -296.5t-315 -155.5v-16q197 -31 310.5 -170t81.5 -326
q-28 -163 -160 -296.5t-342 -210.5t-454 -77zM900 356q117 0 205.5 71t106.5 177q18 107 -47.5 175.5t-184.5 68.5q-118 0 -206 -69t-106 -175q-18 -107 48.5 -177.5t183.5 -70.5zM1044 1232q104 0 181.5 64t94.5 160q16 97 -40 158.5t-160 61.5t-184 -62t-96 -158
q-17 -96 41 -160t163 -64z" />
    <glyph glyph-name="uni0039" unicode="9" horiz-adv-x="1928" 
d="M1132 2076q151 0 277.5 -37t230.5 -116.5t165.5 -202.5t82 -295.5t-19.5 -396.5q-83 -492 -364.5 -774t-679.5 -282q-168 0 -305.5 50t-226.5 137t-134.5 204.5t-37.5 252.5h540q-1 -90 54.5 -131t145.5 -41q176 0 294 155.5t166 420.5l-16 -28q-80 -137 -230.5 -212.5
t-325.5 -75.5q-140 0 -251.5 51t-180 140.5t-94.5 213.5t-2 267q35 209 162.5 368.5t322 245.5t427.5 86zM1112 1656q-134 0 -238.5 -91t-121.5 -225q-15 -116 44.5 -188t175.5 -72q132 0 236 91t124 225q17 117 -43.5 188.5t-176.5 71.5z" />
    <glyph glyph-name="uni003A" unicode=":" horiz-adv-x="880" 
d="M496 1000q-117 0 -190.5 81.5t-61.5 198.5q12 114 103.5 195t208.5 81q112 0 186 -81.5t62 -194.5q-12 -115 -105 -197.5t-203 -82.5zM324 -32q-117 0 -190.5 81.5t-61.5 198.5q12 114 103.5 195t208.5 81q112 0 186 -81.5t62 -194.5q-12 -115 -105 -197.5t-203 -82.5z
" />
    <glyph glyph-name="uni003B" unicode=";" horiz-adv-x="896" 
d="M596 280l-28 -112q-12 -52 -30 -107.5t-35.5 -101.5t-42.5 -100.5t-42 -89.5t-44.5 -85t-40 -71.5l-37.5 -64.5t-28 -48h-340q2 4 36 79.5t54.5 126.5t52.5 135t54.5 167t34.5 160l20 112h416zM500 1000q-117 0 -190.5 81.5t-61.5 198.5q12 114 103.5 195t208.5 81
q112 0 186 -81.5t62 -194.5q-12 -115 -105 -197.5t-203 -82.5z" />
    <glyph glyph-name="uni003C" unicode="&#x3c;" horiz-adv-x="1952" 
d="M204 592l80 480l1584 596l-84 -504l-984 -323l-4 -19l880 -322l-84 -504z" />
    <glyph glyph-name="uni003D" unicode="=" horiz-adv-x="1952" 
d="M152 252l72 448h1480l-72 -448h-1480zM268 964l76 448h1480l-76 -448h-1480z" />
    <glyph glyph-name="uni003E" unicode="&#x3e;" horiz-adv-x="1952" 
d="M1692 592l-1588 -596l84 504l984 323l4 19l-880 322l84 504l1392 -596z" />
    <glyph glyph-name="uni003F" unicode="?" horiz-adv-x="1688" 
d="M524 640l8 48q20 121 48.5 206.5t70 145t86 98t111.5 78.5q53 32 81.5 50t67 46.5t59 51t38 53t22.5 63.5q12 74 -32 121t-120 47q-83 0 -151.5 -55.5t-80.5 -140.5h-512q28 160 104.5 282t188 195.5t244 110t283.5 36.5q161 0 289 -36t217 -104.5t127 -177t15 -246.5
q-28 -173 -131 -291t-277 -209q-128 -67 -192.5 -138.5t-83.5 -185.5l-8 -48h-472zM668 -32q-117 0 -190.5 81.5t-61.5 198.5q12 114 103.5 195t208.5 81q112 0 186 -81.5t62 -194.5q-12 -115 -105 -197.5t-203 -82.5z" />
    <glyph glyph-name="uni0040" unicode="@" horiz-adv-x="3080" 
d="M1356 -624q-326 0 -571 89.5t-395.5 257t-205 413t-4.5 552.5q41 246 137 460t244.5 386t339.5 294.5t431.5 189t511.5 66.5q309 0 545.5 -85.5t386 -246.5t204.5 -402.5t4 -545.5q-131 -813 -828 -876q-42 -4 -77 -4.5t-62 3.5t-48.5 8.5t-36.5 15.5t-26 19.5t-18 25
t-11 26.5t-6 30.5t-2.5 31.5t-0.5 33v15h-12q-32 -60 -124.5 -107.5t-211 -70t-228.5 -14.5q-75 5 -143.5 26t-134 61.5t-113.5 100.5t-82 143t-40 189.5t13 239.5q26 153 84 280t129.5 211t159.5 145.5t168.5 93.5t162.5 46q128 20 237 4.5t183.5 -53.5t87.5 -83h16l16 112
h380l-168 -1024q-12 -100 48 -100q77 0 151.5 131t112.5 377q18 110 19 205t-16 169t-45 135.5t-71 106.5t-89.5 80.5t-106 58.5t-115.5 38.5t-121.5 24t-121 11.5t-117.5 3q-201 0 -375 -51.5t-302 -140t-225.5 -211t-156.5 -262t-85 -295.5q-73 -449 140.5 -684.5
t687.5 -235.5q172 0 336.5 28t275.5 72l68 -360q-112 -66 -326 -111t-458 -45zM1520 352q166 0 247.5 90.5t108.5 273.5q9 59 10 103t-10.5 90.5t-39 75.5t-80 48t-128.5 19q-164 0 -266 -86.5t-130 -253.5q-7 -56 -6.5 -108t19.5 -98t51.5 -80t90 -54t133.5 -20z" />
    <glyph glyph-name="uni0041" unicode="A" horiz-adv-x="2240" 
d="M536 0h-600l1016 2048h760l336 -2048h-600l-53 392h-675zM915 808h424l-91 676h-16z" />
    <glyph glyph-name="uni0042" unicode="B" horiz-adv-x="1880" 
d="M4 0l340 2048h888q345 0 508.5 -137t123.5 -375q-30 -167 -159 -289.5t-313 -158.5l-4 -20q202 -6 316.5 -141t79.5 -347q-43 -256 -265.5 -418t-550.5 -162h-964zM636 444h260q138 0 217.5 53t94.5 155q18 107 -44 165.5t-192 58.5h-268zM764 1220h228q110 0 187.5 52.5
t92.5 143.5q15 93 -43.5 144.5t-164.5 51.5h-236z" />
    <glyph glyph-name="uni0043" unicode="C" horiz-adv-x="2164" 
d="M2126 1280h-556q12 145 -58 228.5t-218 83.5q-218 0 -365 -159.5t-195 -440.5q-42 -267 37 -401.5t271 -134.5q164 0 278 76.5t158 207.5h560q-26 -107 -82.5 -213.5t-148 -207t-206 -177.5t-268 -123.5t-323.5 -46.5q-173 0 -319.5 46t-257 135t-180.5 220.5t-91 302.5
t12 380q33 197 108.5 363.5t182 286.5t239.5 204t283 125t311 41q268 0 460.5 -92t289.5 -273t78 -431z" />
    <glyph glyph-name="uni0044" unicode="D" horiz-adv-x="2064" 
d="M804 0h-800l340 2048h768q314 0 527.5 -126.5t301.5 -364.5t35 -561q-78 -469 -390 -732.5t-782 -263.5zM638 472h202q118 0 210.5 29.5t169.5 95t129.5 179.5t78.5 276q15 89 16 160t-9.5 125.5t-35 95t-58.5 68t-82.5 44.5t-104 24t-126.5 7h-206z" />
    <glyph glyph-name="uni0045" unicode="E" horiz-adv-x="1752" 
d="M4 0l340 2048h1476l-76 -448h-920l-56 -352h844l-76 -448h-844l-56 -352h916l-76 -448h-1472z" />
    <glyph glyph-name="uni0046" unicode="F" horiz-adv-x="1644" 
d="M4 0l340 2048h1440l-76 -448h-884l-56 -352h796l-76 -448h-796l-132 -800h-556z" />
    <glyph glyph-name="uni0047" unicode="G" horiz-adv-x="2176" 
d="M1562 1372q-16 220 -268 220q-213 0 -362 -150t-192 -414q-46 -275 36 -423.5t294 -148.5q185 0 299 78t139 214h-370l64 396h908l-46 -284q-46 -274 -198 -477t-376.5 -307t-493.5 -104q-297 0 -503 126t-293 364.5t-34 557.5q41 247 153 449t270 333.5t351.5 202.5
t401.5 71q239 0 422 -90t278 -250.5t82 -363.5h-562z" />
    <glyph glyph-name="uni0048" unicode="H" horiz-adv-x="2112" 
d="M4 0l340 2048h556l-132 -800h736l132 800h556l-340 -2048h-556l132 800h-736l-132 -800h-556z" />
    <glyph glyph-name="uni0049" unicode="I" horiz-adv-x="820" 
d="M900 2048l-340 -2048h-556l340 2048h556z" />
    <glyph glyph-name="uni004A" unicode="J" horiz-adv-x="1656" 
d="M1188 2048h548l-232 -1404q-34 -197 -157.5 -350.5t-314 -237.5t-416.5 -84q-120 0 -221 24t-184 75t-134 130t-70.5 188.5t5.5 250.5h556q-30 -236 156 -236q93 0 152 61.5t80 178.5z" />
    <glyph glyph-name="uni004B" unicode="K" horiz-adv-x="2012" 
d="M4 0l340 2048h556l-136 -828h28l752 828h648l-840 -912l516 -1136h-664l-328 768l-228 -244l-88 -524h-556z" />
    <glyph glyph-name="uni004C" unicode="L" horiz-adv-x="1608" 
d="M4 0l340 2048h556l-264 -1600h828l-76 -448h-1384z" />
    <glyph glyph-name="uni004D" unicode="M" horiz-adv-x="2624" 
d="M344 2048h692l284 -1160h24l668 1160h692l-340 -2048h-544l196 1184h-16l-648 -1168h-328l-260 1176h-16l-200 -1192h-544z" />
    <glyph glyph-name="uni004E" unicode="N" horiz-adv-x="2036" 
d="M2116 2048l-340 -2048h-464l-560 1076h-12l-180 -1076h-556l340 2048h472l552 -1072h16l176 1072h556z" />
    <glyph glyph-name="uni004F" unicode="O" horiz-adv-x="2240" 
d="M2152 988q-33 -196 -109 -361.5t-182.5 -285t-240.5 -203.5t-285.5 -125t-314.5 -41q-217 0 -392 72t-291.5 206t-161.5 340.5t-3 461.5q40 245 146.5 441t258.5 322.5t339 193.5t392 67q172 0 318.5 -46t259 -135.5t184.5 -221t94 -303.5t-12 -382zM1592 1052
q42 266 -34 403t-270 137q-221 0 -366 -159t-190 -445q-47 -264 33 -398t275 -134q218 0 361 155t191 441z" />
    <glyph glyph-name="uni0050" unicode="P" horiz-adv-x="1848" 
d="M4 0l340 2048h884q226 0 383.5 -89.5t225 -254t31.5 -380.5q-54 -331 -298.5 -523.5t-601.5 -192.5h-306l-102 -608h-556zM734 1040h194q149 0 244 75.5t116 208.5q21 132 -48 206t-216 74h-196z" />
    <glyph glyph-name="uni0051" unicode="Q" horiz-adv-x="2240" 
d="M2152 988q-42 -254 -153 -450t-276 -327l241 -363h-492l-118 171q-162 -47 -334 -47q-217 0 -392 72t-291.5 206t-161.5 340.5t-3 461.5q40 245 146.5 441t258.5 322.5t339 193.5t392 67q172 0 318.5 -46t259 -135.5t184.5 -221t94 -303.5t-12 -382zM920 760h432l75 -119
q121 152 165 411q42 266 -34 403t-270 137q-221 0 -366 -159t-190 -445q-47 -264 33 -398t275 -134q28 0 55 3z" />
    <glyph glyph-name="uni0052" unicode="R" horiz-adv-x="1908" 
d="M4 0l340 2048h884q346 0 521.5 -186t122.5 -510q-34 -209 -149.5 -358.5t-295.5 -229.5l289 -764h-604l-247 676h-192l-113 -676h-556zM745 1108h195q313 0 352 244q20 129 -50 190.5t-218 61.5h-196z" />
    <glyph glyph-name="uni0053" unicode="S" horiz-adv-x="1876" 
d="M1340 1408q9 102 -49.5 157t-190.5 55q-124 0 -191.5 -42t-80.5 -114q-18 -71 42 -118.5t202 -77.5l160 -36q618 -136 536 -628q-51 -301 -297 -464.5t-639 -163.5q-202 0 -355.5 45t-255.5 134.5t-141 232.5t-8 332h528q-18 -140 61 -214t239 -74q131 0 209.5 47
t90.5 125q12 70 -51 117.5t-225 82.5l-196 44q-561 129 -488 576q32 193 161.5 342t331 229.5t443.5 80.5q371 0 559 -182t137 -486h-532z" />
    <glyph glyph-name="uni0054" unicode="T" horiz-adv-x="1932" 
d="M212 1600l76 448h1780l-76 -448h-616l-264 -1600h-548l264 1600h-616z" />
    <glyph glyph-name="uni0055" unicode="U" horiz-adv-x="2032" 
d="M1556 2048h556l-218 -1312q-37 -231 -177 -404t-355.5 -264.5t-477.5 -91.5q-264 0 -448 92t-266 264.5t-44 403.5l218 1312h556l-210 -1264q-23 -143 54.5 -235.5t219.5 -92.5q144 0 251.5 92.5t130.5 235.5z" />
    <glyph glyph-name="uni0056" unicode="V" horiz-adv-x="2240" 
d="M904 2048l180 -1444h16l660 1444h628l-1016 -2048h-760l-336 2048h628z" />
    <glyph glyph-name="uni0057" unicode="W" horiz-adv-x="3080" 
d="M524 0l-264 2048h620l72 -1260h16l540 1260h488l124 -1264h16l488 1264h620l-944 -2048h-532l-156 1144h-16l-540 -1144h-532z" />
    <glyph glyph-name="uni0058" unicode="X" horiz-adv-x="2148" 
d="M916 2048l236 -596h16l440 596h644l-780 -1024l464 -1024h-620l-248 608h-16l-448 -608h-648l800 1024l-440 1024h600z" />
    <glyph glyph-name="uni0059" unicode="Y" horiz-adv-x="2152" 
d="M260 2048h620l260 -832h20l536 832h620l-984 -1404l-108 -644h-552l108 644z" />
    <glyph glyph-name="uni005A" unicode="Z" horiz-adv-x="1956" 
d="M12 0l52 308l1184 1292h-968l76 448h1672l-52 -308l-1184 -1292h968l-76 -448h-1672z" />
    <glyph glyph-name="uni005B" unicode="[" horiz-adv-x="1240" 
d="M68 -464l416 2512h920l-68 -400h-384l-280 -1712h384l-68 -400h-920z" />
    <glyph glyph-name="uni005C" unicode="\" horiz-adv-x="1150" 
d="M498 -308l-254 2452h454l256 -2452h-456z" />
    <glyph glyph-name="uni005D" unicode="]" horiz-adv-x="1240" 
d="M1180 2048l-416 -2512h-920l68 400h384l280 1712h-384l68 400h920z" />
    <glyph glyph-name="uni005E" unicode="^" horiz-adv-x="1408" 
d="M140 1120l576 896h392l280 -896h-364l-146 560h-17l-325 -560h-396z" />
    <glyph glyph-name="uni005F" unicode="_" horiz-adv-x="1388" 
d="M1260 0l-64 -392h-1388l64 392h1388z" />
    <glyph glyph-name="uni0060" unicode="`" horiz-adv-x="1400" 
d="M828 1728l-228 448h472l120 -448h-364z" />
    <glyph glyph-name="uni0061" unicode="a" horiz-adv-x="1664" 
d="M436 -24q-228 0 -345 114t-79 334q16 98 58 177t100.5 133t137 92t164 58.5t184.5 27.5q202 16 285 44t95 92v4q9 59 -30.5 91.5t-113.5 32.5q-81 0 -136.5 -35t-75.5 -105h-508q19 85 62 161.5t112 142.5t158.5 114t207 75t252.5 27q160 0 287.5 -39t206.5 -106.5
t113.5 -160t16.5 -198.5l-176 -1052h-516l36 216h-12q-167 -240 -484 -240zM676 324q99 0 181 60t99 160l20 128q-67 -27 -228 -56q-96 -15 -149.5 -56.5t-62.5 -103.5t29 -97t111 -35z" />
    <glyph glyph-name="uni0062" unicode="b" horiz-adv-x="1816" 
d="M4 0l340 2048h552l-128 -780h8q68 126 193 207t287 81q118 0 214.5 -45t168 -140.5t94 -245t-8.5 -357.5q-32 -194 -105.5 -346.5t-173 -247.5t-216 -144.5t-241.5 -49.5q-156 0 -254 74.5t-126 197.5h-16l-40 -252h-548zM672 768q-27 -169 21.5 -266.5t162.5 -97.5
t193.5 96.5t106.5 267.5q27 172 -20 268t-160 96q-114 0 -195.5 -97t-108.5 -267z" />
    <glyph glyph-name="uni0063" unicode="c" horiz-adv-x="1708" 
d="M748 -28q-148 0 -268.5 37t-204 106t-136.5 166.5t-65 219t10 263.5q28 176 107 322.5t197.5 250.5t278.5 161.5t345 57.5q338 0 507 -179.5t121 -480.5h-512q9 119 -38 183.5t-138 64.5q-114 0 -194.5 -95.5t-109.5 -280.5t18 -280.5t158 -95.5q94 0 164 64.5t100 183.5
h512q-57 -308 -284.5 -488t-567.5 -180z" />
    <glyph glyph-name="uni0064" unicode="d" horiz-adv-x="1816" 
d="M566 -20q-125 0 -225 48.5t-168.5 146t-90 245.5t9.5 348q27 162 82 295t127 223t159.5 152t178 90t183.5 28q162 0 259 -81t125 -207h8l130 780h552l-340 -2048h-548l42 252h-12q-71 -123 -194 -197.5t-278 -74.5zM840 404q113 0 194.5 98t109.5 266q28 171 -21 267.5
t-163 96.5t-193 -96.5t-107 -267.5q-29 -172 18.5 -268t161.5 -96z" />
    <glyph glyph-name="uni0065" unicode="e" horiz-adv-x="1712" 
d="M744 -28q-370 0 -546.5 210.5t-113.5 581.5q60 358 308 575t604 217q349 0 520.5 -211.5t111.5 -576.5l-20 -128h-999l-5 -24q-18 -114 39 -185t177 -71q86 0 155.5 35.5t104.5 100.5h504q-82 -243 -302.5 -383.5t-537.5 -140.5zM666 944h482q15 99 -41.5 161.5
t-158.5 62.5q-101 0 -180 -62t-102 -162z" />
    <glyph glyph-name="uni0066" unicode="f" horiz-adv-x="1134" 
d="M1190 1536l-68 -400h-280l-190 -1136h-552l190 1136h-196l68 400h195l7 44q45 278 215.5 421t428.5 143q182 0 344 -44l-144 -396q-65 20 -136 20q-73 0 -107 -30.5t-45 -89.5l-11 -68h281z" />
    <glyph glyph-name="uni0067" unicode="g" horiz-adv-x="1828" 
d="M656 -608q-339 0 -515 140t-157 368h532q5 -136 216 -136q252 0 284 240l44 260h-16q-62 -116 -188 -180t-284 -64q-101 0 -184.5 26.5t-151.5 83.5t-107.5 145t-52 211t15.5 282q27 162 82.5 295t127.5 223t159.5 152t178.5 90t184 28q161 0 258 -80.5t126 -207.5h12
l44 268h552l-256 -1532q-29 -193 -152.5 -332t-316 -209.5t-435.5 -70.5zM840 412q115 0 196 94.5t108 261.5q27 171 -21.5 267.5t-162.5 96.5t-193.5 -96.5t-106.5 -267.5t19.5 -263.5t160.5 -92.5z" />
    <glyph glyph-name="uni0068" unicode="h" horiz-adv-x="1820" 
d="M712 864l-144 -864h-552l340 2048h532l-132 -804h16q75 148 210.5 230t305.5 82q241 0 361.5 -161t78.5 -415l-164 -980h-552l144 864q18 115 -29 179.5t-151 64.5q-103 0 -174.5 -65.5t-89.5 -178.5z" />
    <glyph glyph-name="uni0069" unicode="i" horiz-adv-x="832" 
d="M12 0l256 1536h552l-256 -1536h-552zM568 1696q-113 0 -181.5 74.5t-50.5 177.5q18 105 109.5 178.5t204.5 73.5q112 0 179.5 -73.5t50.5 -178.5q-17 -104 -108.5 -178t-203.5 -74z" />
    <glyph glyph-name="uni006A" unicode="j" horiz-adv-x="832" 
d="M268 1536h552l-266 -1588q-20 -119 -67.5 -209t-114.5 -149.5t-159 -97t-195.5 -53t-229.5 -15.5q-53 0 -106 4l68 408q31 -4 64 -4q96 0 138 30t54 98zM568 1696q-113 0 -181.5 74.5t-50.5 177.5q18 105 109.5 178.5t204.5 73.5q112 0 179.5 -73.5t50.5 -178.5
q-17 -104 -108.5 -178t-203.5 -74z" />
    <glyph glyph-name="uni006B" unicode="k" horiz-adv-x="1708" 
d="M12 0l340 2048h552l-171 -1028h19l460 516h620l-633 -674l393 -862h-632l-224 540l-100 -105l-72 -435h-552z" />
    <glyph glyph-name="uni006C" unicode="l" horiz-adv-x="832" 
d="M904 2048l-340 -2048h-552l340 2048h552z" />
    <glyph glyph-name="uni006D" unicode="m" horiz-adv-x="2648" 
d="M16 0l256 1536h524l-48 -292h16q72 145 202 228.5t290 83.5q162 0 264.5 -86t103.5 -226h16q62 141 203 226.5t313 85.5q220 0 333.5 -142.5t74.5 -377.5l-172 -1036h-552l152 896q14 100 -28 158t-128 58q-85 0 -143.5 -58t-72.5 -158l-152 -896h-528l152 896
q14 100 -28 158t-128 58q-85 0 -143.5 -58t-72.5 -158l-152 -896h-552z" />
    <glyph glyph-name="uni006E" unicode="n" horiz-adv-x="1820" 
d="M712 864l-144 -864h-552l256 1536h524l-48 -292h16q72 146 212.5 229t311.5 83q160 0 270.5 -74t154 -204.5t15.5 -297.5l-164 -980h-552l144 864q19 115 -28 179.5t-152 64.5q-102 0 -173.5 -65.5t-90.5 -178.5z" />
    <glyph glyph-name="uni006F" unicode="o" horiz-adv-x="1760" 
d="M748 -28q-246 0 -410.5 99.5t-228.5 278t-25 414.5q29 176 107.5 322.5t196.5 250.5t278 161.5t346 57.5q184 0 324 -57.5t224 -161.5t114.5 -250.5t1.5 -322.5q-60 -359 -309 -575.5t-619 -216.5zM816 380q107 0 186.5 104t109.5 284q29 181 -15.5 284.5t-152.5 103.5
t-187.5 -104t-108.5 -284q-30 -181 14.5 -284.5t153.5 -103.5z" />
    <glyph glyph-name="uni0070" unicode="p" horiz-adv-x="1830" 
d="M-80 -576l354 2112h548l-44 -268h12q67 126 192 207t288 81q93 0 173.5 -28.5t148 -88.5t108 -153.5t53.5 -222.5t-15 -295q-32 -194 -106 -346.5t-173.5 -247.5t-215.5 -144.5t-241 -49.5q-157 0 -255 74.5t-125 197.5h-12l-136 -828h-554zM686 768q-28 -169 21 -266.5
t163 -97.5q113 0 191 96t109 268q26 172 -20.5 268t-159.5 96q-115 0 -196.5 -97t-107.5 -267z" />
    <glyph glyph-name="uni0071" unicode="q" horiz-adv-x="1828" 
d="M910 -576l136 828h-8q-70 -123 -193 -197.5t-279 -74.5q-125 0 -225 48.5t-168 146t-90 245.5t9 348q27 162 82 295t127 223t159.5 152t178 90t183.5 28q162 0 259.5 -81t124.5 -207h12l46 268h548l-350 -2112h-552zM840 404q114 0 195 97.5t109 266.5q28 171 -21 267.5
t-163 96.5t-192.5 -96t-107.5 -268q-29 -171 18.5 -267.5t161.5 -96.5z" />
    <glyph glyph-name="uni0072" unicode="r" horiz-adv-x="1220" 
d="M12 0l256 1536h536l-48 -292h16q67 158 170 235t230 77q63 0 136 -20l-80 -472q-73 28 -200 28q-121 0 -214.5 -80.5t-117.5 -211.5l-132 -800h-552z" />
    <glyph glyph-name="uni0073" unicode="s" horiz-adv-x="1656" 
d="M1584 1036h-496q5 70 -41 111t-119 41q-85 0 -150.5 -37.5t-73.5 -94.5q-6 -27 18 -46t102 -34l304 -56q465 -86 408 -444q-26 -154 -137.5 -269.5t-282 -175t-376.5 -59.5q-356 0 -540 142.5t-168 381.5h536q2 -73 49.5 -111.5t130.5 -40.5q88 -3 154 35t74 97
q3 32 -28 49t-120 35l-264 48q-228 40 -332 164t-72 316q38 227 237 347.5t519 120.5q345 0 522.5 -138.5t145.5 -381.5z" />
    <glyph glyph-name="uni0074" unicode="t" horiz-adv-x="1140" 
d="M1184 1536l-68 -400h-263l-107 -642q-17 -96 88 -96q16 0 112 16l16 -388q-146 -42 -276 -48q-290 -14 -417.5 104.5t-82.5 359.5l115 694h-197l68 400h195l61 368h552l-61 -368h265z" />
    <glyph glyph-name="uni0075" unicode="u" horiz-adv-x="1828" 
d="M1120 672l144 864h552l-256 -1536h-524l48 292h-16q-71 -146 -211 -229t-313 -83q-240 0 -361 161t-79 415l164 980h552l-144 -864q-17 -115 29.5 -179.5t150.5 -64.5t175.5 65.5t88.5 178.5z" />
    <glyph glyph-name="uni0076" unicode="v" horiz-adv-x="1704" 
d="M1816 1536l-772 -1536h-640l-260 1536h560l80 -1016h16l416 1016h600z" />
    <glyph glyph-name="uni0077" unicode="w" horiz-adv-x="2464" 
d="M284 0l-128 1536h552l20 -936h12l352 936h536l48 -928h12l324 928h552l-640 -1536h-596l-80 824h-16l-352 -824h-596z" />
    <glyph glyph-name="uni0078" unicode="x" horiz-adv-x="1680" 
d="M744 1536l144 -476l316 476h548l-540 -768l304 -768h-544l-180 488l-332 -488h-552l564 768l-280 768h552z" />
    <glyph glyph-name="uni0079" unicode="y" horiz-adv-x="1704" 
d="M254 -576q-194 0 -324 54l186 392q211 -79 284 34l18 28l-274 1604h556l70 -1064h16l430 1064h600l-836 -1664q-51 -100 -114.5 -178t-150.5 -140.5t-204 -96t-257 -33.5z" />
    <glyph glyph-name="uni007A" unicode="z" horiz-adv-x="1676" 
d="M32 0l48 304l804 804l4 8h-648l72 420h1300l-52 -336l-740 -772l-4 -8h636l-68 -420h-1352z" />
    <glyph glyph-name="uni007B" unicode="{" horiz-adv-x="1240" 
d="M988 -464h-2q-257 0 -368 18q-222 36 -302 174q-79 134 -40 384l24 156q23 151 -34.5 217.5t-229.5 66.5h-4l80 480h4q171 0 254 67.5t106 216.5l24 156q15 94 42.5 171.5t58.5 134t82.5 100t92.5 72t111.5 48t116.5 29.5t130 15t130.5 5.5t137.5 0.5h2l-68 -400
q-89 0 -146 -14t-90 -48t-48.5 -75.5t-27.5 -110.5l-36 -220q-10 -61 -36.5 -111.5t-78 -101t-142 -89.5t-215.5 -63l-8 -46q79 -16 140.5 -39.5t100.5 -51.5t66 -60.5t37 -67t13 -72t-5 -74.5l-36 -220q-14 -84 -5.5 -139t64.5 -82t173 -27z" />
    <glyph glyph-name="uni007C" unicode="|" horiz-adv-x="1140" 
d="M1162 2708l-558 -3368h-540l558 3368h540z" />
    <glyph glyph-name="uni007D" unicode="}" horiz-adv-x="1240" 
d="M260 2048h2q257 0 368 -18q222 -36 302 -174q79 -134 40 -384l-24 -156q-23 -151 34.5 -217.5t229.5 -66.5h4l-80 -480h-4q-171 0 -254 -67.5t-106 -216.5l-24 -156q-15 -94 -42.5 -171.5t-58.5 -134t-82.5 -100t-92.5 -72t-111.5 -48t-116.5 -29.5t-130 -15t-130.5 -5.5
t-137.5 -0.5h-2l68 400q89 0 146 14t90 48t48.5 75.5t27.5 110.5l36 220q10 61 36.5 111.5t78 101t142 89.5t215.5 63l8 46q-79 16 -140.5 39.5t-100.5 51.5t-66 60.5t-37 67t-13 72t5 74.5l36 220q14 84 5.5 139t-64.5 82t-173 27z" />
    <glyph glyph-name="uni007E" unicode="~" horiz-adv-x="1952" 
d="M164 516q37 314 183.5 493t380.5 179q93 0 172 -37.5t172 -130.5l19.5 -19.5l19.5 -19.5t16.5 -15.5t18.5 -15t17.5 -10.5t20 -9t20 -4.5t24.5 -2.5q68 0 117.5 55t66.5 169h400q-39 -309 -190.5 -490.5t-377.5 -181.5q-98 0 -178 39t-170 129q-8 8 -28 28.5t-25.5 25.5
t-20 17t-23.5 15t-23.5 6.5t-31.5 3.5q-68 0 -117 -55t-63 -169h-400z" />
    <glyph glyph-name="uni00A0" unicode="&#xa0;" horiz-adv-x="560" 
 />
    <glyph glyph-name="uni00A1" unicode="&#xa1;" horiz-adv-x="1000" 
d="M12 -516l284 1408h452l-180 -1408h-556zM612 1564q117 0 190.5 -81.5t61.5 -198.5q-12 -114 -103.5 -195t-208.5 -81q-112 0 -186 81.5t-62 194.5q12 115 105 197.5t203 82.5z" />
    <glyph glyph-name="uni00A2" unicode="&#xa2;" horiz-adv-x="1708" 
d="M620 0l41 235q-328 27 -481 240t-96 549q36 224 150 397t295.5 275.5t409.5 117.5l41 234h164l-41 -236q294 -25 438 -201t99 -455h-512q7 91 -19 150t-81 83l-127 -725q66 22 115 83t72 153h512q-54 -290 -259.5 -467.5t-515.5 -197.5l-41 -235h-164zM738 671l126 717
q-80 -31 -136 -122.5t-80 -237.5q-46 -287 90 -357z" />
    <glyph glyph-name="uni00A3" unicode="&#xa3;" horiz-adv-x="1968" 
d="M1656 0h-1576l76 448h164q51 23 72 58.5t32 109.5l27 212h-239l72 416h220l32 252q34 268 240.5 424t519.5 156q328 0 478.5 -149t121.5 -431l-524 -24q10 100 -27.5 136t-116.5 36q-60 0 -92.5 -37t-43.5 -111l-32 -252h432l-72 -416h-414l-22 -172q-18 -129 -94 -208
h842z" />
    <glyph glyph-name="uni00A4" unicode="&#xa4;" horiz-adv-x="2232" 
d="M988 -28q-288 0 -487 169l-221 -185l-176 216l227 189q-103 214 -59 475q44 275 231 493l-171 203l248 216l175 -203q244 151 517 151q274 0 469 -157l247 209l180 -216l-250 -209q113 -217 70 -487q-44 -260 -216 -471l168 -193l-252 -216l-158 187q-256 -171 -542 -171
zM1036 260q157 0 302 75t245.5 207.5t128.5 293.5q20 122 -8.5 229.5t-94 183.5t-164.5 119.5t-217 43.5q-163 0 -308.5 -74t-243 -206.5t-124.5 -295.5q-29 -161 25 -293.5t175 -207.5t284 -75z" />
    <glyph glyph-name="uni00A5" unicode="&#xa5;" horiz-adv-x="1656" 
d="M808 2048l128 -629l336 629h556l-583 -968h275l-48 -292h-377l-17 -104h378l-52 -292h-375l-65 -392h-548l65 392h-429l52 292h426l17 104h-427l48 292h342l-258 968h556z" />
    <glyph glyph-name="uni00A6" unicode="&#xa6;" horiz-adv-x="1120" 
d="M284 584h488l-160 -968h-488zM1016 2048l-160 -964h-488l160 964h488z" />
    <glyph glyph-name="uni00A7" unicode="&#xa7;" horiz-adv-x="1748" 
d="M1616 1524h-472q8 43 -33 71.5t-119 28.5q-31 0 -50.5 -2t-49 -9.5t-47 -28t-21.5 -52.5q-11 -54 36 -93.5t108 -54.5l360 -144q351 -142 252 -476q-54 -171 -260 -222q-6 -1 -8 -2l-12 -4q166 -168 128 -404q-43 -245 -247.5 -394.5t-492.5 -149.5q-201 0 -342.5 71
t-203.5 201t-34 300h472q-10 -62 39.5 -93.5t152.5 -22.5q160 9 176 88q12 81 -140 148l-356 140q-28 10 -54 22t-61.5 34t-62.5 47.5t-52.5 64t-38 82.5t-11.5 103.5t20 126.5q8 27 20 50.5t23.5 41.5t29 34.5t29.5 27t33 21.5l31.5 16.5t32.5 12t28.5 8.5t27 7t21.5 5
q-159 177 -120 408q39 236 240.5 390t479.5 154q186 0 320.5 -72t193.5 -197.5t34 -282.5zM1136 728q19 30 -8.5 63.5t-111.5 64.5l-280 100q-73 26 -104 -20q-18 -27 12.5 -63.5t111.5 -64.5l288 -104q36 -12 56 -6t36 30z" />
    <glyph glyph-name="uni00A8" unicode="&#xa8;" horiz-adv-x="1400" 
d="M572 1716q-114 0 -182 78t-50 186q15 84 86.5 142t161.5 58q111 0 176.5 -78t47.5 -186q-12 -84 -82.5 -142t-157.5 -58zM1208 1716q-114 0 -182 78t-50 186q15 84 86.5 142t161.5 58q111 0 176.5 -78t47.5 -186q-12 -84 -82.5 -142t-157.5 -58z" />
    <glyph glyph-name="uni00A9" unicode="&#xa9;" horiz-adv-x="2576" 
d="M1156 -32q-123 0 -237.5 28t-209.5 79.5t-175.5 125t-136.5 164t-92.5 196t-43 222t12.5 241.5q36 215 152.5 410.5t281.5 337t374.5 225t423.5 83.5q215 0 396.5 -83.5t298.5 -225t168.5 -337t16.5 -410.5q-35 -214 -150.5 -409.5t-280.5 -337t-374.5 -225.5t-424.5 -84
zM1156 368q142 0 284.5 58.5t255 155.5t192.5 230t103 276q41 257 -96.5 424.5t-388.5 167.5q-142 0 -284.5 -58.5t-255.5 -155.5t-193.5 -230.5t-104.5 -277.5q-28 -167 26 -302t175.5 -211.5t286.5 -76.5zM792 1024q25 148 118.5 273t230.5 198t285 73q200 0 327 -129
t115 -319h-334q-3 60 -45 94t-115 34q-98 0 -171.5 -60.5t-90.5 -161.5q-17 -98 30 -162t144 -64q74 0 134.5 35t81.5 93h334q-51 -190 -220.5 -319t-369.5 -129q-148 0 -261 73t-165.5 198t-27.5 273z" />
    <glyph glyph-name="uni00AA" unicode="&#xaa;" horiz-adv-x="1444" 
d="M957 1062q-126 -110 -309 -110q-169 0 -248.5 84.5t-55.5 227.5q24 155 160.5 235.5t383.5 80.5h144l12 72q26 176 -140 176q-93 0 -150.5 -35t-69.5 -101l-248 16q24 142 162.5 233t337.5 91q194 0 291.5 -97.5t68.5 -282.5l-72 -432q-26 -153 -4 -252h-256q-7 49 -7 94
zM1004 1420h-144q-117 0 -185.5 -44t-78.5 -108q-9 -56 27.5 -88t120.5 -32q55 0 119 24.5t109 60.5z" />
    <glyph glyph-name="uni00AB" unicode="&#xab;" horiz-adv-x="1924" 
d="M1720 220h-504l-304 600l2 8h-2l4 20l504 600h504l-482 -612zM964 220h-504l-304 600l2 8h-2l4 20l504 600h504l-482 -612z" />
    <glyph glyph-name="uni00AC" unicode="&#xac;" horiz-adv-x="1708" 
d="M1516 1108l-18 -108h2l-80 -484h-288l59 356h-919l40 236h1204z" />
    <glyph glyph-name="uni00AD" unicode="&#xad;" horiz-adv-x="1336" 
d="M1190 1024l-68 -416h-960l68 416h960z" />
    <glyph glyph-name="uni00AE" unicode="&#xae;" horiz-adv-x="1856" 
d="M1012 476q-163 0 -311 63.5t-255 170.5t-170.5 255t-63.5 311t63.5 311t170.5 255t255 170.5t311 63.5t311 -63.5t255 -170.5t170.5 -255t63.5 -311t-63 -311t-170 -255t-255 -170.5t-312 -63.5zM1012 700q118 0 224.5 45.5t183.5 123t122.5 184t45.5 223.5t-45.5 223.5
t-123 184t-184 123t-223.5 45.5t-223.5 -45.5t-184 -123t-123 -184t-45.5 -223.5t45.5 -223.5t123 -184t184 -123t223.5 -45.5zM660 916l122 738h352q130 0 193 -67.5t43 -182.5q-24 -145 -150 -206l86 -282h-232l-63 246h-98l-41 -246h-212zM938 1314h100q48 0 77.5 23.5
t36.5 66.5q15 94 -84 94h-100z" />
    <glyph glyph-name="uni00AF" unicode="&#xaf;" horiz-adv-x="1812" 
d="M1616 2048l-40 -252h-1004l40 252h1004z" />
    <glyph glyph-name="uni00B0" unicode="&#xb0;" horiz-adv-x="1304" 
d="M780 1036q-212 0 -362 150t-150 362t150 362t362 150t362 -150t150 -362t-150 -362t-362 -150zM780 1376q71 0 121.5 50.5t50.5 121.5t-50.5 121.5t-121.5 50.5t-121.5 -50.5t-50.5 -121.5t50.5 -121.5t121.5 -50.5z" />
    <glyph glyph-name="uni00B1" unicode="&#xb1;" horiz-adv-x="1952" 
d="M256 912l68 400h517l51 304h448l-51 -304h523l-68 -400h-521l-51 -304h-448l51 304h-519zM116 64l68 416h1488l-68 -416h-1488z" />
    <glyph glyph-name="uni00B2" unicode="&#xb2;" horiz-adv-x="1196" 
d="M152 1024l40 264l568 372q15 10 48 31.5t47 31.5t37.5 29t34.5 33t22 34t15 41q9 58 -34.5 89t-121.5 31t-132 -35t-68 -109h-352q20 133 102 232t208 149.5t278 50.5q237 0 357 -118.5t95 -293.5q-19 -131 -115 -238.5t-313 -213.5l-140 -68l-4 -12h488l-48 -300h-1012z
" />
    <glyph glyph-name="uni00B3" unicode="&#xb3;" horiz-adv-x="1264" 
d="M688 1008q-250 0 -391 105t-117 275h368q-3 -38 38.5 -57t113.5 -19q88 0 147.5 30.5t68.5 81.5q9 47 -33.5 67.5t-138.5 20.5h-176l40 272h160q82 0 137 34.5t67 89.5q7 33 -20.5 52.5t-95.5 19.5q-74 0 -139 -22.5t-73 -61.5h-352q30 163 194 267.5t382 104.5
q115 0 208.5 -32t150.5 -85t83 -122.5t14 -144.5q-14 -98 -92.5 -152.5t-203.5 -67.5v-12q135 -9 208.5 -88.5t55.5 -199.5q-24 -158 -189.5 -257t-414.5 -99z" />
    <glyph glyph-name="uni00B4" unicode="&#xb4;" horiz-adv-x="1400" 
d="M674 1728l268 448h472l-376 -448h-364z" />
    <glyph glyph-name="uni00B5" unicode="&#xb5;" horiz-adv-x="1960" 
d="M-76 -544l344 2080h552l-144 -864q-17 -108 52.5 -176t195.5 -68q127 0 219 68t109 176l144 864h552l-256 -1536h-524l36 212h-12q-51 -85 -140 -134.5t-196 -49.5q-104 0 -177 50t-95 134h-12l-124 -756h-524z" />
    <glyph glyph-name="uni00B6" unicode="&#xb6;" horiz-adv-x="1736" 
d="M1076 0l274 1648h-250l-144 -888h-120q-224 0 -372.5 84t-205 228t-26.5 332q24 139 90.5 256t168.5 204t245 135.5t312 48.5h768l-340 -2048h-400z" />
    <glyph glyph-name="uni00B7" unicode="&#xb7;" horiz-adv-x="880" 
d="M434 618q-117 0 -190.5 81.5t-61.5 198.5q12 114 103.5 195t208.5 81q112 0 186 -81.5t62 -194.5q-12 -115 -105 -197.5t-203 -82.5z" />
    <glyph glyph-name="uni00B8" unicode="&#xb8;" horiz-adv-x="1256" 
d="M408 8h196l-32 -92q114 -18 170 -85t38 -163q-24 -162 -199 -255t-457 -93l36 212q297 0 328 124q12 57 -29.5 93t-134.5 51z" />
    <glyph glyph-name="uni00B9" unicode="&#xb9;" horiz-adv-x="918" 
d="M424 1024l150 908h-6l-308 -168l50 296l346 192h320l-204 -1228h-348z" />
    <glyph glyph-name="uni00BA" unicode="&#xba;" horiz-adv-x="1432" 
d="M328 1436l16 104q36 218 195 355t385 137q228 0 342 -137t78 -355l-16 -104q-37 -216 -194.5 -352t-385.5 -136q-231 0 -344 136t-76 352zM596 1540l-16 -104q-22 -128 30 -206t174 -78q119 0 194.5 78t97.5 206l16 104q22 126 -28.5 207t-171.5 81q-118 0 -196 -81
t-100 -207z" />
    <glyph glyph-name="uni00BB" unicode="&#xbb;" horiz-adv-x="1940" 
d="M20 220l482 612l-278 616h504l304 -600l-2 -8h2l-4 -20l-504 -600h-504zM792 220l482 612l-278 616h504l304 -600l-2 -8h2l-4 -20l-504 -600h-504z" />
    <glyph glyph-name="uni00BC" unicode="&#xbc;" horiz-adv-x="2514" 
d="M1282 160l40 260l612 668h412l-110 -664h158l-36 -264h-166l-26 -160h-312l27 160h-599zM188 0l1748 2048h300l-1748 -2048h-300zM372 960l132 794h-6l-284 -156l46 274l318 176h294l-180 -1088h-320zM1930 424l54 320h-6l-328 -308v-12h280z" />
    <glyph glyph-name="uni00BD" unicode="&#xbd;" horiz-adv-x="2584" 
d="M1484 0l40 232l504 332q12 8 41.5 27t43 28t35.5 26.5t33.5 30t21.5 30t13 34.5q9 52 -30 78t-114 26q-154 0 -180 -124h-312q27 174 172 279t356 105q206 0 316 -105t88 -255q-8 -57 -30 -106.5t-65.5 -100.5t-117 -100.5t-175.5 -96.5l-132 -60l-4 -12h436l-40 -268
h-900zM188 0l1748 2048h300l-1748 -2048h-300zM372 960l132 794h-6l-284 -156l46 274l318 176h294l-180 -1088h-320z" />
    <glyph glyph-name="uni00BE" unicode="&#xbe;" horiz-adv-x="2788" 
d="M1556 160l40 260l612 668h412l-110 -664h158l-36 -264h-166l-26 -160h-312l27 160h-599zM610 944q-220 0 -350.5 91t-109.5 241h328q0 -60 144 -60q80 0 135.5 25.5t64.5 74.5q6 34 -32 53t-128 19h-168l36 248h156q68 0 118 29t62 79q3 15 -2 26q-15 34 -106 34
q-68 0 -126 -16.5t-66 -47.5h-312q27 141 176.5 232.5t339.5 91.5q101 0 185 -29.5t135 -77t75 -107.5t13 -122q-14 -89 -83 -140t-173 -64v-8q124 -9 184 -82t44 -174q-24 -146 -171.5 -231t-368.5 -85zM462 0l1748 2048h300l-1748 -2048h-300zM2204 424l54 320h-6
l-328 -308v-12h280z" />
    <glyph glyph-name="uni00BF" unicode="&#xbf;" horiz-adv-x="1688" 
d="M1160 864l-8 -48q-20 -121 -48.5 -206.5t-70 -145t-86 -98t-111.5 -78.5q-53 -32 -81.5 -50t-67 -46.5t-59 -51t-38 -53t-22.5 -63.5q-12 -74 32 -121t120 -47q83 0 151.5 55.5t80.5 140.5h512q-28 -160 -104.5 -282t-188 -195.5t-244 -110t-283.5 -36.5q-161 0 -289 36
t-217 104.5t-127 177t-15 246.5q28 173 131 291t277 209q128 67 192.5 138.5t83.5 185.5l8 48h472zM1016 1536q117 0 190.5 -81.5t61.5 -198.5q-12 -114 -103.5 -195t-208.5 -81q-112 0 -186 81.5t-62 194.5q12 115 105 197.5t203 82.5z" />
    <glyph glyph-name="uni00C0" unicode="&#xc0;" horiz-adv-x="2240" 
d="M536 0h-600l1016 2048h760l336 -2048h-600l-53 392h-675zM1188 2240l-228 448h472l120 -448h-364zM915 808h424l-91 676h-16z" />
    <glyph glyph-name="uni00C1" unicode="&#xc1;" horiz-adv-x="2240" 
d="M536 0h-600l1016 2048h760l336 -2048h-600l-53 392h-675zM1180 2240l268 448h472l-376 -448h-364zM915 808h424l-91 676h-16z" />
    <glyph glyph-name="uni00C2" unicode="&#xc2;" horiz-adv-x="2240" 
d="M536 0h-600l1016 2048h760l336 -2048h-600l-53 392h-675zM1560 2232l-160 220l-232 -220h-456l2 12l534 456h384l386 -456l-2 -12h-456zM915 808h424l-91 676h-16z" />
    <glyph glyph-name="uni00C3" unicode="&#xc3;" horiz-adv-x="2240" 
d="M536 0h-600l1016 2048h760l336 -2048h-600l-53 392h-675zM1096 2248h-272q35 208 147.5 318t260.5 110q58 0 106 -17t79.5 -41t57.5 -48t52.5 -41t52.5 -17q106 0 132 156h268q-38 -205 -151 -317t-261 -115q-58 0 -105 17t-77 41t-55 48t-52 41t-55 17q-49 0 -82.5 -39
t-45.5 -113zM915 808h424l-91 676h-16z" />
    <glyph glyph-name="uni00C4" unicode="&#xc4;" horiz-adv-x="2240" 
d="M536 0h-600l1016 2048h760l336 -2048h-600l-53 392h-675zM1080 2228q-114 0 -182 78t-50 186q15 84 86.5 142t161.5 58q111 0 176.5 -78t47.5 -186q-12 -84 -82.5 -142t-157.5 -58zM1716 2228q-114 0 -182 78t-50 186q15 84 86.5 142t161.5 58q111 0 176.5 -78t47.5 -186
q-12 -84 -82.5 -142t-157.5 -58zM915 808h424l-91 676h-16z" />
    <glyph glyph-name="uni00C5" unicode="&#xc5;" horiz-adv-x="2240" 
d="M536 0h-600l1016 2048h760l336 -2048h-600l-53 392h-675zM1354 2152q-132 0 -210 90.5t-58 217.5q20 129 128 218.5t240 89.5q136 0 216.5 -90t55.5 -218q-24 -127 -132.5 -217.5t-239.5 -90.5zM915 808h424l-91 676h-16zM1386 2340q52 0 97 36t51 84q6 51 -26 85.5
t-86 34.5q-51 0 -92.5 -35t-51.5 -85q-9 -48 22.5 -84t85.5 -36z" />
    <glyph glyph-name="uni00C6" unicode="&#xc6;" horiz-adv-x="2976" 
d="M-64 0l1140 2048h1968l-76 -448h-920l-56 -352h844l-76 -448h-844l-56 -352h916l-76 -448h-1472l66 392h-538l-208 -392h-612zM977 808h386l113 676h-140z" />
    <glyph glyph-name="uni00C7" unicode="&#xc7;" horiz-adv-x="2164" 
d="M2126 1280h-556q12 145 -58 228.5t-218 83.5q-218 0 -365 -159.5t-195 -440.5q-42 -267 37 -401.5t271 -134.5q164 0 278 76.5t158 207.5h560q-26 -104 -79.5 -207t-140.5 -202t-195.5 -175.5t-254.5 -126t-307 -56.5l-17 -49q114 -18 170 -85t38 -163
q-24 -162 -199 -255t-457 -93l36 212q297 0 328 124q12 57 -29.5 93t-134.5 51l70 173q-186 23 -330.5 104t-239 217.5t-127.5 325.5t5 428q33 197 108.5 363.5t182 286.5t239.5 204t283 125t311 41q268 0 460.5 -92t289.5 -273t78 -431z" />
    <glyph glyph-name="uni00C8" unicode="&#xc8;" horiz-adv-x="1752" 
d="M4 0l340 2048h1476l-76 -448h-920l-56 -352h844l-76 -448h-844l-56 -352h916l-76 -448h-1472zM944 2240l-228 448h472l120 -448h-364z" />
    <glyph glyph-name="uni00C9" unicode="&#xc9;" horiz-adv-x="1752" 
d="M4 0l340 2048h1476l-76 -448h-920l-56 -352h844l-76 -448h-844l-56 -352h916l-76 -448h-1472zM936 2240l268 448h472l-376 -448h-364z" />
    <glyph glyph-name="uni00CA" unicode="&#xca;" horiz-adv-x="1752" 
d="M4 0l340 2048h1476l-76 -448h-920l-56 -352h844l-76 -448h-844l-56 -352h916l-76 -448h-1472zM1316 2232l-160 220l-232 -220h-456l2 12l534 456h384l386 -456l-2 -12h-456z" />
    <glyph glyph-name="uni00CB" unicode="&#xcb;" horiz-adv-x="1752" 
d="M4 0l340 2048h1476l-76 -448h-920l-56 -352h844l-76 -448h-844l-56 -352h916l-76 -448h-1472zM836 2228q-114 0 -182 78t-50 186q15 84 86.5 142t161.5 58q111 0 176.5 -78t47.5 -186q-12 -84 -82.5 -142t-157.5 -58zM1472 2228q-114 0 -182 78t-50 186q15 84 86.5 142
t161.5 58q111 0 176.5 -78t47.5 -186q-12 -84 -82.5 -142t-157.5 -58z" />
    <glyph glyph-name="uni00CC" unicode="&#xcc;" horiz-adv-x="820" 
d="M900 2048l-340 -2048h-556l340 2048h556zM480 2240l-228 448h472l120 -448h-364z" />
    <glyph glyph-name="uni00CD" unicode="&#xcd;" horiz-adv-x="820" 
d="M900 2048l-340 -2048h-556l340 2048h556zM472 2240l268 448h472l-376 -448h-364z" />
    <glyph glyph-name="uni00CE" unicode="&#xce;" horiz-adv-x="820" 
d="M900 2048l-340 -2048h-556l340 2048h556zM852 2232l-160 220l-232 -220h-456l2 12l534 456h384l386 -456l-2 -12h-456z" />
    <glyph glyph-name="uni00CF" unicode="&#xcf;" horiz-adv-x="820" 
d="M900 2048l-340 -2048h-556l340 2048h556zM372 2228q-114 0 -182 78t-50 186q15 84 86.5 142t161.5 58q111 0 176.5 -78t47.5 -186q-12 -84 -82.5 -142t-157.5 -58zM1008 2228q-114 0 -182 78t-50 186q15 84 86.5 142t161.5 58q111 0 176.5 -78t47.5 -186
q-12 -84 -82.5 -142t-157.5 -58z" />
    <glyph glyph-name="uni00D0" unicode="&#xd0;" horiz-adv-x="2064" 
d="M804 0h-800l157 948h-265l52 296h263l133 804h768q314 0 527.5 -126.5t301.5 -364.5t35 -561q-78 -469 -390 -732.5t-782 -263.5zM767 1244h257l-52 -296h-255l-79 -476h202q118 0 210.5 29.5t169.5 95t129.5 179.5t78.5 276q15 89 16 160t-9.5 125.5t-35 95t-58.5 68
t-82.5 44.5t-104 24t-126.5 7h-206z" />
    <glyph glyph-name="uni00D1" unicode="&#xd1;" horiz-adv-x="2036" 
d="M2116 2048l-340 -2048h-464l-560 1076h-12l-180 -1076h-556l340 2048h472l552 -1072h16l176 1072h556zM996 2240h-272q35 208 147.5 318t260.5 110q58 0 106 -17t79.5 -41t57.5 -48t52.5 -41t52.5 -17q106 0 132 156h268q-38 -205 -151 -317t-261 -115q-58 0 -105 17
t-77 41t-55 48t-52 41t-55 17q-49 0 -82.5 -39t-45.5 -113z" />
    <glyph glyph-name="uni00D2" unicode="&#xd2;" horiz-adv-x="2240" 
d="M2152 988q-33 -196 -109 -361.5t-182.5 -285t-240.5 -203.5t-285.5 -125t-314.5 -41q-217 0 -392 72t-291.5 206t-161.5 340.5t-3 461.5q40 245 146.5 441t258.5 322.5t339 193.5t392 67q172 0 318.5 -46t259 -135.5t184.5 -221t94 -303.5t-12 -382zM1592 1052
q42 266 -34 403t-270 137q-221 0 -366 -159t-190 -445q-47 -264 33 -398t275 -134q218 0 361 155t191 441zM1188 2240l-228 448h472l120 -448h-364z" />
    <glyph glyph-name="uni00D3" unicode="&#xd3;" horiz-adv-x="2240" 
d="M2152 988q-33 -196 -109 -361.5t-182.5 -285t-240.5 -203.5t-285.5 -125t-314.5 -41q-217 0 -392 72t-291.5 206t-161.5 340.5t-3 461.5q40 245 146.5 441t258.5 322.5t339 193.5t392 67q172 0 318.5 -46t259 -135.5t184.5 -221t94 -303.5t-12 -382zM1592 1052
q42 266 -34 403t-270 137q-221 0 -366 -159t-190 -445q-47 -264 33 -398t275 -134q218 0 361 155t191 441zM1180 2240l268 448h472l-376 -448h-364z" />
    <glyph glyph-name="uni00D4" unicode="&#xd4;" horiz-adv-x="2240" 
d="M2152 988q-33 -196 -109 -361.5t-182.5 -285t-240.5 -203.5t-285.5 -125t-314.5 -41q-217 0 -392 72t-291.5 206t-161.5 340.5t-3 461.5q40 245 146.5 441t258.5 322.5t339 193.5t392 67q172 0 318.5 -46t259 -135.5t184.5 -221t94 -303.5t-12 -382zM1592 1052
q42 266 -34 403t-270 137q-221 0 -366 -159t-190 -445q-47 -264 33 -398t275 -134q218 0 361 155t191 441zM1560 2232l-160 220l-232 -220h-456l2 12l534 456h384l386 -456l-2 -12h-456z" />
    <glyph glyph-name="uni00D5" unicode="&#xd5;" horiz-adv-x="2240" 
d="M2152 988q-33 -196 -109 -361.5t-182.5 -285t-240.5 -203.5t-285.5 -125t-314.5 -41q-217 0 -392 72t-291.5 206t-161.5 340.5t-3 461.5q40 245 146.5 441t258.5 322.5t339 193.5t392 67q172 0 318.5 -46t259 -135.5t184.5 -221t94 -303.5t-12 -382zM1592 1052
q42 266 -34 403t-270 137q-221 0 -366 -159t-190 -445q-47 -264 33 -398t275 -134q218 0 361 155t191 441zM1096 2248h-272q35 208 147.5 318t260.5 110q58 0 106 -17t79.5 -41t57.5 -48t52.5 -41t52.5 -17q106 0 132 156h268q-38 -205 -151 -317t-261 -115q-58 0 -105 17
t-77 41t-55 48t-52 41t-55 17q-49 0 -82.5 -39t-45.5 -113z" />
    <glyph glyph-name="uni00D6" unicode="&#xd6;" horiz-adv-x="2240" 
d="M2152 988q-33 -196 -109 -361.5t-182.5 -285t-240.5 -203.5t-285.5 -125t-314.5 -41q-217 0 -392 72t-291.5 206t-161.5 340.5t-3 461.5q40 245 146.5 441t258.5 322.5t339 193.5t392 67q172 0 318.5 -46t259 -135.5t184.5 -221t94 -303.5t-12 -382zM1592 1052
q42 266 -34 403t-270 137q-221 0 -366 -159t-190 -445q-47 -264 33 -398t275 -134q218 0 361 155t191 441zM1080 2228q-114 0 -182 78t-50 186q15 84 86.5 142t161.5 58q111 0 176.5 -78t47.5 -186q-12 -84 -82.5 -142t-157.5 -58zM1716 2228q-114 0 -182 78t-50 186
q15 84 86.5 142t161.5 58q111 0 176.5 -78t47.5 -186q-12 -84 -82.5 -142t-157.5 -58z" />
    <glyph glyph-name="uni00D7" unicode="&#xd7;" horiz-adv-x="1952" 
d="M1308 44l-378 451l-526 -451l-280 336l525 451l-377 449l392 340l378 -452l526 452l280 -340l-525 -449l377 -451z" />
    <glyph glyph-name="uni00D8" unicode="&#xd8;" horiz-adv-x="2240" 
d="M340 -108l-200 152l189 216q-115 141 -157 341t0 451q40 245 146.5 441t258.5 322.5t339 193.5t392 67q290 0 499 -127l177 203l200 -152l-188 -215q114 -142 156 -343.5t0 -453.5q-33 -196 -109 -361.5t-182.5 -285t-240.5 -203.5t-285.5 -125t-314.5 -41
q-292 0 -501 125zM723 710l737 843q-69 39 -172 39q-221 0 -366 -159t-190 -445q-29 -160 -9 -278zM1592 1052q26 167 7 279l-733 -838q71 -37 174 -37q218 0 361 155t191 441z" />
    <glyph glyph-name="uni00D9" unicode="&#xd9;" horiz-adv-x="2032" 
d="M1556 2048h556l-218 -1312q-37 -231 -177 -404t-355.5 -264.5t-477.5 -91.5q-264 0 -448 92t-266 264.5t-44 403.5l218 1312h556l-210 -1264q-23 -143 54.5 -235.5t219.5 -92.5q144 0 251.5 92.5t130.5 235.5zM1082 2240l-228 448h472l120 -448h-364z" />
    <glyph glyph-name="uni00DA" unicode="&#xda;" horiz-adv-x="2032" 
d="M1556 2048h556l-218 -1312q-37 -231 -177 -404t-355.5 -264.5t-477.5 -91.5q-264 0 -448 92t-266 264.5t-44 403.5l218 1312h556l-210 -1264q-23 -143 54.5 -235.5t219.5 -92.5q144 0 251.5 92.5t130.5 235.5zM1074 2240l268 448h472l-376 -448h-364z" />
    <glyph glyph-name="uni00DB" unicode="&#xdb;" horiz-adv-x="2032" 
d="M1556 2048h556l-218 -1312q-37 -231 -177 -404t-355.5 -264.5t-477.5 -91.5q-264 0 -448 92t-266 264.5t-44 403.5l218 1312h556l-210 -1264q-23 -143 54.5 -235.5t219.5 -92.5q144 0 251.5 92.5t130.5 235.5zM1454 2232l-160 220l-232 -220h-456l2 12l534 456h384
l386 -456l-2 -12h-456z" />
    <glyph glyph-name="uni00DC" unicode="&#xdc;" horiz-adv-x="2032" 
d="M1556 2048h556l-218 -1312q-37 -231 -177 -404t-355.5 -264.5t-477.5 -91.5q-264 0 -448 92t-266 264.5t-44 403.5l218 1312h556l-210 -1264q-23 -143 54.5 -235.5t219.5 -92.5q144 0 251.5 92.5t130.5 235.5zM974 2228q-114 0 -182 78t-50 186q15 84 86.5 142t161.5 58
q111 0 176.5 -78t47.5 -186q-12 -84 -82.5 -142t-157.5 -58zM1610 2228q-114 0 -182 78t-50 186q15 84 86.5 142t161.5 58q111 0 176.5 -78t47.5 -186q-12 -84 -82.5 -142t-157.5 -58z" />
    <glyph glyph-name="uni00DD" unicode="&#xdd;" horiz-adv-x="2152" 
d="M260 2048h620l260 -832h20l536 832h620l-984 -1404l-108 -644h-552l108 644zM1136 2240l268 448h472l-376 -448h-364z" />
    <glyph glyph-name="uni00DE" unicode="&#xde;" horiz-adv-x="1964" 
d="M348 2048h556l-57 -344h237q196 0 344.5 -48t237.5 -134t123.5 -206t10.5 -264q-49 -294 -295 -471t-637 -177h-237l-67 -404h-556zM699 812h237q79 0 141.5 21t100.5 57t60 75.5t30 82.5q6 45 -2.5 86t-34.5 77.5t-81 58.5t-134 22h-238z" />
    <glyph glyph-name="uni00DF" unicode="&#xdf;" horiz-adv-x="1972" 
d="M4 0l248 1496q45 271 280 425.5t596 154.5q133 0 250 -21.5t213 -67.5t161 -112.5t92 -161.5t8 -209q-24 -150 -114 -257.5t-226 -138.5l-4 -24q197 -10 289 -154.5t55 -365.5q-25 -140 -95 -248.5t-175.5 -177t-238 -103.5t-287.5 -35h-300l72 432h184q118 0 196.5 54
t91.5 146q16 95 -51.5 147.5t-200.5 52.5h-144l64 404h92q80 0 139 52.5t73 135.5q17 92 -35.5 148t-160.5 56q-117 0 -193.5 -63t-94.5 -173l-232 -1392h-552z" />
    <glyph glyph-name="uni00E0" unicode="&#xe0;" horiz-adv-x="1664" 
d="M436 -24q-228 0 -345 114t-79 334q16 98 58 177t100.5 133t137 92t164 58.5t184.5 27.5q202 16 285 44t95 92v4q9 59 -30.5 91.5t-113.5 32.5q-81 0 -136.5 -35t-75.5 -105h-508q19 85 62 161.5t112 142.5t158.5 114t207 75t252.5 27q160 0 287.5 -39t206.5 -106.5
t113.5 -160t16.5 -198.5l-176 -1052h-516l36 216h-12q-167 -240 -484 -240zM828 1728l-228 448h472l120 -448h-364zM676 324q99 0 181 60t99 160l20 128q-67 -27 -228 -56q-96 -15 -149.5 -56.5t-62.5 -103.5t29 -97t111 -35z" />
    <glyph glyph-name="uni00E1" unicode="&#xe1;" horiz-adv-x="1664" 
d="M436 -24q-228 0 -345 114t-79 334q16 98 58 177t100.5 133t137 92t164 58.5t184.5 27.5q202 16 285 44t95 92v4q9 59 -30.5 91.5t-113.5 32.5q-81 0 -136.5 -35t-75.5 -105h-508q19 85 62 161.5t112 142.5t158.5 114t207 75t252.5 27q160 0 287.5 -39t206.5 -106.5
t113.5 -160t16.5 -198.5l-176 -1052h-516l36 216h-12q-167 -240 -484 -240zM820 1728l268 448h472l-376 -448h-364zM676 324q99 0 181 60t99 160l20 128q-67 -27 -228 -56q-96 -15 -149.5 -56.5t-62.5 -103.5t29 -97t111 -35z" />
    <glyph glyph-name="uni00E2" unicode="&#xe2;" horiz-adv-x="1664" 
d="M436 -24q-228 0 -345 114t-79 334q16 98 58 177t100.5 133t137 92t164 58.5t184.5 27.5q202 16 285 44t95 92v4q9 59 -30.5 91.5t-113.5 32.5q-81 0 -136.5 -35t-75.5 -105h-508q19 85 62 161.5t112 142.5t158.5 114t207 75t252.5 27q160 0 287.5 -39t206.5 -106.5
t113.5 -160t16.5 -198.5l-176 -1052h-516l36 216h-12q-167 -240 -484 -240zM1200 1720l-160 220l-232 -220h-456l2 12l534 456h384l386 -456l-2 -12h-456zM676 324q99 0 181 60t99 160l20 128q-67 -27 -228 -56q-96 -15 -149.5 -56.5t-62.5 -103.5t29 -97t111 -35z" />
    <glyph glyph-name="uni00E3" unicode="&#xe3;" horiz-adv-x="1664" 
d="M436 -24q-228 0 -345 114t-79 334q16 98 58 177t100.5 133t137 92t164 58.5t184.5 27.5q202 16 285 44t95 92v4q9 59 -30.5 91.5t-113.5 32.5q-81 0 -136.5 -35t-75.5 -105h-508q19 85 62 161.5t112 142.5t158.5 114t207 75t252.5 27q160 0 287.5 -39t206.5 -106.5
t113.5 -160t16.5 -198.5l-176 -1052h-516l36 216h-12q-167 -240 -484 -240zM736 1728h-272q35 208 147.5 318t260.5 110q58 0 106 -17t79.5 -41t57.5 -48t52.5 -41t52.5 -17q106 0 132 156h268q-38 -205 -151 -317t-261 -115q-58 0 -105 17t-77 41t-55 48t-52 41t-55 17
q-49 0 -82.5 -39t-45.5 -113zM676 324q99 0 181 60t99 160l20 128q-67 -27 -228 -56q-96 -15 -149.5 -56.5t-62.5 -103.5t29 -97t111 -35z" />
    <glyph glyph-name="uni00E4" unicode="&#xe4;" horiz-adv-x="1664" 
d="M436 -24q-228 0 -345 114t-79 334q16 98 58 177t100.5 133t137 92t164 58.5t184.5 27.5q202 16 285 44t95 92v4q9 59 -30.5 91.5t-113.5 32.5q-81 0 -136.5 -35t-75.5 -105h-508q19 85 62 161.5t112 142.5t158.5 114t207 75t252.5 27q160 0 287.5 -39t206.5 -106.5
t113.5 -160t16.5 -198.5l-176 -1052h-516l36 216h-12q-167 -240 -484 -240zM720 1716q-114 0 -182 78t-50 186q15 84 86.5 142t161.5 58q111 0 176.5 -78t47.5 -186q-12 -84 -82.5 -142t-157.5 -58zM1356 1716q-114 0 -182 78t-50 186q15 84 86.5 142t161.5 58
q111 0 176.5 -78t47.5 -186q-12 -84 -82.5 -142t-157.5 -58zM676 324q99 0 181 60t99 160l20 128q-67 -27 -228 -56q-96 -15 -149.5 -56.5t-62.5 -103.5t29 -97t111 -35z" />
    <glyph glyph-name="uni00E5" unicode="&#xe5;" horiz-adv-x="1664" 
d="M436 -24q-228 0 -345 114t-79 334q16 98 58 177t100.5 133t137 92t164 58.5t184.5 27.5q202 16 285 44t95 92v4q9 59 -30.5 91.5t-113.5 32.5q-81 0 -136.5 -35t-75.5 -105h-508q19 85 62 161.5t112 142.5t158.5 114t207 75t252.5 27q160 0 287.5 -39t206.5 -106.5
t113.5 -160t16.5 -198.5l-176 -1052h-516l36 216h-12q-167 -240 -484 -240zM1016 1696q-135 0 -221 94t-71 226t122 226t242 94t221 -94t71 -226t-122 -226t-242 -94zM676 324q99 0 181 60t99 160l20 128q-67 -27 -228 -56q-96 -15 -149.5 -56.5t-62.5 -103.5t29 -97
t111 -35zM1040 1892q54 0 96 36.5t48 87.5t-28 87.5t-88 36.5q-57 0 -99.5 -36.5t-48.5 -87.5t28.5 -87.5t91.5 -36.5z" />
    <glyph glyph-name="uni00E6" unicode="&#xe6;" horiz-adv-x="2552" 
d="M1628 -28q-182 0 -317 65t-190 195h-5q-89 -124 -264 -190t-376 -66q-258 0 -380 112.5t-84 335.5q16 98 58 177t100.5 133t137 92t164 58.5t184.5 27.5q204 15 286 43.5t94 92.5v4q9 59 -30.5 91.5t-113.5 32.5q-81 0 -136.5 -35t-75.5 -105h-508q26 108 88.5 200
t159.5 164.5t240 114t316 41.5q276 0 365 -171q203 171 495 171q349 0 520.5 -211.5t111.5 -576.5l-20 -128h-1000l-4 -24q-18 -114 39 -185t177 -71q86 0 155.5 35.5t104.5 100.5h504q-81 -239 -298.5 -381.5t-497.5 -142.5zM676 324q99 0 181 60t99 160l20 128
q-67 -27 -228 -56q-96 -15 -149.5 -56.5t-62.5 -103.5t29 -97t111 -35zM1496 944h492q15 98 -43 161t-161 63t-185 -63t-103 -161z" />
    <glyph glyph-name="uni00E7" unicode="&#xe7;" horiz-adv-x="1708" 
d="M849 -24l-21 -60q114 -18 170 -85t38 -163q-24 -162 -199 -255t-457 -93l36 212q297 0 328 124q12 57 -29.5 93t-134.5 51l71 176q-214 19 -355.5 123t-195 274.5t-16.5 390.5q28 176 107 322.5t197.5 250.5t278.5 161.5t345 57.5q338 0 507 -179.5t121 -480.5h-512
q9 119 -38 183.5t-138 64.5q-114 0 -194.5 -95.5t-109.5 -280.5t18 -280.5t158 -95.5q94 0 164 64.5t100 183.5h512q-53 -284 -251.5 -460.5t-499.5 -203.5z" />
    <glyph glyph-name="uni00E8" unicode="&#xe8;" horiz-adv-x="1712" 
d="M744 -28q-370 0 -546.5 210.5t-113.5 581.5q60 358 308 575t604 217q349 0 520.5 -211.5t111.5 -576.5l-20 -128h-999l-5 -24q-18 -114 39 -185t177 -71q86 0 155.5 35.5t104.5 100.5h504q-82 -243 -302.5 -383.5t-537.5 -140.5zM836 1728l-228 448h472l120 -448h-364z
M666 944h482q15 99 -41.5 161.5t-158.5 62.5q-101 0 -180 -62t-102 -162z" />
    <glyph glyph-name="uni00E9" unicode="&#xe9;" horiz-adv-x="1712" 
d="M744 -28q-370 0 -546.5 210.5t-113.5 581.5q60 358 308 575t604 217q349 0 520.5 -211.5t111.5 -576.5l-20 -128h-999l-5 -24q-18 -114 39 -185t177 -71q86 0 155.5 35.5t104.5 100.5h504q-82 -243 -302.5 -383.5t-537.5 -140.5zM828 1728l268 448h472l-376 -448h-364z
M666 944h482q15 99 -41.5 161.5t-158.5 62.5q-101 0 -180 -62t-102 -162z" />
    <glyph glyph-name="uni00EA" unicode="&#xea;" horiz-adv-x="1712" 
d="M744 -28q-370 0 -546.5 210.5t-113.5 581.5q60 358 308 575t604 217q349 0 520.5 -211.5t111.5 -576.5l-20 -128h-999l-5 -24q-18 -114 39 -185t177 -71q86 0 155.5 35.5t104.5 100.5h504q-82 -243 -302.5 -383.5t-537.5 -140.5zM1208 1720l-160 220l-232 -220h-456l2 12
l534 456h384l386 -456l-2 -12h-456zM666 944h482q15 99 -41.5 161.5t-158.5 62.5q-101 0 -180 -62t-102 -162z" />
    <glyph glyph-name="uni00EB" unicode="&#xeb;" horiz-adv-x="1712" 
d="M744 -28q-370 0 -546.5 210.5t-113.5 581.5q60 358 308 575t604 217q349 0 520.5 -211.5t111.5 -576.5l-20 -128h-999l-5 -24q-18 -114 39 -185t177 -71q86 0 155.5 35.5t104.5 100.5h504q-82 -243 -302.5 -383.5t-537.5 -140.5zM728 1716q-114 0 -182 78t-50 186
q15 84 86.5 142t161.5 58q111 0 176.5 -78t47.5 -186q-12 -84 -82.5 -142t-157.5 -58zM1364 1716q-114 0 -182 78t-50 186q15 84 86.5 142t161.5 58q111 0 176.5 -78t47.5 -186q-12 -84 -82.5 -142t-157.5 -58zM666 944h482q15 99 -41.5 161.5t-158.5 62.5q-101 0 -180 -62
t-102 -162z" />
    <glyph glyph-name="uni00EC" unicode="&#xec;" horiz-adv-x="832" 
d="M12 0l256 1536h552l-256 -1536h-552zM396 1728l-228 448h472l120 -448h-364z" />
    <glyph glyph-name="uni00ED" unicode="&#xed;" horiz-adv-x="832" 
d="M12 0l256 1536h552l-256 -1536h-552zM388 1728l268 448h472l-376 -448h-364z" />
    <glyph glyph-name="uni00EE" unicode="&#xee;" horiz-adv-x="832" 
d="M12 0l256 1536h552l-256 -1536h-552zM768 1720l-160 220l-232 -220h-456l2 12l534 456h384l386 -456l-2 -12h-456z" />
    <glyph glyph-name="uni00EF" unicode="&#xef;" horiz-adv-x="832" 
d="M12 0l256 1536h552l-256 -1536h-552zM288 1716q-114 0 -182 78t-50 186q15 84 86.5 142t161.5 58q111 0 176.5 -78t47.5 -186q-12 -84 -82.5 -142t-157.5 -58zM924 1716q-114 0 -182 78t-50 186q15 84 86.5 142t161.5 58q111 0 176.5 -78t47.5 -186q-12 -84 -82.5 -142
t-157.5 -58z" />
    <glyph glyph-name="uni00F0" unicode="&#xf0;" horiz-adv-x="1726" 
d="M1486 1916l-196 -94q216 -183 314 -441t46 -569q-31 -188 -111.5 -344t-199.5 -266.5t-277.5 -172t-341.5 -61.5q-227 0 -386.5 91t-228 258.5t-31.5 386.5q24 145 89.5 274t161.5 224.5t225 151.5t272 56q229 0 346 -130h22q-70 198 -272 362l-536 -258l38 224l321 155
q-138 78 -277 121l44 266q343 -45 610 -206l406 196zM804 370q121 0 209.5 99.5t118.5 276.5q29 167 -24.5 258.5t-183.5 91.5q-131 0 -214 -91t-110 -259q-28 -176 27 -276t177 -100z" />
    <glyph glyph-name="uni00F1" unicode="&#xf1;" horiz-adv-x="1820" 
d="M712 864l-144 -864h-552l256 1536h524l-48 -292h16q72 146 212.5 229t311.5 83q160 0 270.5 -74t154 -204.5t15.5 -297.5l-164 -980h-552l144 864q19 115 -28 179.5t-152 64.5q-102 0 -173.5 -65.5t-90.5 -178.5zM804 1728h-272q35 208 147.5 318t260.5 110q58 0 106 -17
t79.5 -41t57.5 -48t52.5 -41t52.5 -17q106 0 132 156h268q-38 -205 -151 -317t-261 -115q-58 0 -105 17t-77 41t-55 48t-52 41t-55 17q-49 0 -82.5 -39t-45.5 -113z" />
    <glyph glyph-name="uni00F2" unicode="&#xf2;" horiz-adv-x="1760" 
d="M748 -28q-246 0 -410.5 99.5t-228.5 278t-25 414.5q29 176 107.5 322.5t196.5 250.5t278 161.5t346 57.5q184 0 324 -57.5t224 -161.5t114.5 -250.5t1.5 -322.5q-60 -359 -309 -575.5t-619 -216.5zM816 380q107 0 186.5 104t109.5 284q29 181 -15.5 284.5t-152.5 103.5
t-187.5 -104t-108.5 -284q-30 -181 14.5 -284.5t153.5 -103.5zM860 1728l-228 448h472l120 -448h-364z" />
    <glyph glyph-name="uni00F3" unicode="&#xf3;" horiz-adv-x="1760" 
d="M748 -28q-246 0 -410.5 99.5t-228.5 278t-25 414.5q29 176 107.5 322.5t196.5 250.5t278 161.5t346 57.5q184 0 324 -57.5t224 -161.5t114.5 -250.5t1.5 -322.5q-60 -359 -309 -575.5t-619 -216.5zM816 380q107 0 186.5 104t109.5 284q29 181 -15.5 284.5t-152.5 103.5
t-187.5 -104t-108.5 -284q-30 -181 14.5 -284.5t153.5 -103.5zM852 1728l268 448h472l-376 -448h-364z" />
    <glyph glyph-name="uni00F4" unicode="&#xf4;" horiz-adv-x="1760" 
d="M748 -28q-246 0 -410.5 99.5t-228.5 278t-25 414.5q29 176 107.5 322.5t196.5 250.5t278 161.5t346 57.5q184 0 324 -57.5t224 -161.5t114.5 -250.5t1.5 -322.5q-60 -359 -309 -575.5t-619 -216.5zM1232 1720l-160 220l-232 -220h-456l2 12l534 456h384l386 -456l-2 -12
h-456zM816 380q107 0 186.5 104t109.5 284q29 181 -15.5 284.5t-152.5 103.5t-187.5 -104t-108.5 -284q-30 -181 14.5 -284.5t153.5 -103.5z" />
    <glyph glyph-name="uni00F5" unicode="&#xf5;" horiz-adv-x="1760" 
d="M748 -28q-246 0 -410.5 99.5t-228.5 278t-25 414.5q29 176 107.5 322.5t196.5 250.5t278 161.5t346 57.5q184 0 324 -57.5t224 -161.5t114.5 -250.5t1.5 -322.5q-60 -359 -309 -575.5t-619 -216.5zM768 1728h-272q35 208 147.5 318t260.5 110q58 0 106 -17t79.5 -41
t57.5 -48t52.5 -41t52.5 -17q106 0 132 156h268q-38 -205 -151 -317t-261 -115q-58 0 -105 17t-77 41t-55 48t-52 41t-55 17q-49 0 -82.5 -39t-45.5 -113zM816 380q107 0 186.5 104t109.5 284q29 181 -15.5 284.5t-152.5 103.5t-187.5 -104t-108.5 -284
q-30 -181 14.5 -284.5t153.5 -103.5z" />
    <glyph glyph-name="uni00F6" unicode="&#xf6;" horiz-adv-x="1760" 
d="M748 -28q-246 0 -410.5 99.5t-228.5 278t-25 414.5q29 176 107.5 322.5t196.5 250.5t278 161.5t346 57.5q184 0 324 -57.5t224 -161.5t114.5 -250.5t1.5 -322.5q-60 -359 -309 -575.5t-619 -216.5zM816 380q107 0 186.5 104t109.5 284q29 181 -15.5 284.5t-152.5 103.5
t-187.5 -104t-108.5 -284q-30 -181 14.5 -284.5t153.5 -103.5zM752 1716q-114 0 -182 78t-50 186q15 84 86.5 142t161.5 58q111 0 176.5 -78t47.5 -186q-12 -84 -82.5 -142t-157.5 -58zM1388 1716q-114 0 -182 78t-50 186q15 84 86.5 142t161.5 58q111 0 176.5 -78
t47.5 -186q-12 -84 -82.5 -142t-157.5 -58z" />
    <glyph glyph-name="uni00F7" unicode="&#xf7;" horiz-adv-x="1952" 
d="M1760 1040l-68 -416h-1480l68 416h1480zM872 -32q-129 0 -205.5 93.5t-54.5 222.5q18 104 104 176t192 72q129 0 203.5 -91.5t52.5 -220.5q-18 -105 -102.5 -178.5t-189.5 -73.5zM1068 1132q-129 0 -207.5 93.5t-56.5 222.5q18 104 104 176t192 72q128 0 201.5 -90.5
t54.5 -221.5q-15 -105 -99 -178.5t-189 -73.5z" />
    <glyph glyph-name="uni00F8" unicode="&#xf8;" horiz-adv-x="1760" 
d="M284 -108l-200 152l122 139q-183 214 -122 581q29 176 107.5 322.5t196.5 250.5t278 161.5t346 57.5q194 0 338 -63l122 139l200 -152l-119 -136q182 -215 123 -580q-60 -359 -309 -575.5t-619 -216.5q-193 0 -339 63zM637 677l397 454q-39 25 -90 25q-108 0 -187.5 -104
t-108.5 -284q-8 -54 -11 -91zM816 380q107 0 186.5 104t109.5 284q7 39 10 82l-392 -448q38 -22 86 -22z" />
    <glyph glyph-name="uni00F9" unicode="&#xf9;" horiz-adv-x="1828" 
d="M1120 672l144 864h552l-256 -1536h-524l48 292h-16q-71 -146 -211 -229t-313 -83q-240 0 -361 161t-79 415l164 980h552l-144 -864q-17 -115 29.5 -179.5t150.5 -64.5t175.5 65.5t88.5 178.5zM896 1728l-228 448h472l120 -448h-364z" />
    <glyph glyph-name="uni00FA" unicode="&#xfa;" horiz-adv-x="1828" 
d="M1120 672l144 864h552l-256 -1536h-524l48 292h-16q-71 -146 -211 -229t-313 -83q-240 0 -361 161t-79 415l164 980h552l-144 -864q-17 -115 29.5 -179.5t150.5 -64.5t175.5 65.5t88.5 178.5zM888 1728l268 448h472l-376 -448h-364z" />
    <glyph glyph-name="uni00FB" unicode="&#xfb;" horiz-adv-x="1828" 
d="M1120 672l144 864h552l-256 -1536h-524l48 292h-16q-71 -146 -211 -229t-313 -83q-240 0 -361 161t-79 415l164 980h552l-144 -864q-17 -115 29.5 -179.5t150.5 -64.5t175.5 65.5t88.5 178.5zM1268 1720l-160 220l-232 -220h-456l2 12l534 456h384l386 -456l-2 -12h-456z
" />
    <glyph glyph-name="uni00FC" unicode="&#xfc;" horiz-adv-x="1828" 
d="M1120 672l144 864h552l-256 -1536h-524l48 292h-16q-71 -146 -211 -229t-313 -83q-240 0 -361 161t-79 415l164 980h552l-144 -864q-17 -115 29.5 -179.5t150.5 -64.5t175.5 65.5t88.5 178.5zM788 1716q-114 0 -182 78t-50 186q15 84 86.5 142t161.5 58q111 0 176.5 -78
t47.5 -186q-12 -84 -82.5 -142t-157.5 -58zM1424 1716q-114 0 -182 78t-50 186q15 84 86.5 142t161.5 58q111 0 176.5 -78t47.5 -186q-12 -84 -82.5 -142t-157.5 -58z" />
    <glyph glyph-name="uni00FD" unicode="&#xfd;" horiz-adv-x="1704" 
d="M254 -576q-194 0 -324 54l186 392q211 -79 284 34l18 28l-274 1604h556l70 -1064h16l430 1064h600l-836 -1664q-51 -100 -114.5 -178t-150.5 -140.5t-204 -96t-257 -33.5zM822 1728l268 448h472l-376 -448h-364z" />
    <glyph glyph-name="uni00FE" unicode="&#xfe;" horiz-adv-x="1732" 
d="M352 2048h552l-105 -644h13q89 152 360 152q91 0 171.5 -28.5t148.5 -88.5t109 -153.5t54.5 -222.5t-15.5 -295q-25 -157 -79 -287.5t-125.5 -222t-159 -155t-181 -93.5t-191.5 -30q-55 0 -97 5t-87 19t-76 44t-44 76h-15l-117 -700h-552zM1124 768q61 364 -204 364
q-57 0 -102.5 -20t-76.5 -52.5t-54.5 -81t-37.5 -98.5t-25 -112q-10 -61 -13.5 -109t3.5 -98t27 -82.5t60 -53.5t99 -21q266 0 324 364z" />
    <glyph glyph-name="uni00FF" unicode="&#xff;" horiz-adv-x="1704" 
d="M254 -576q-194 0 -324 54l186 392q211 -79 284 34l18 28l-274 1604h556l70 -1064h16l430 1064h600l-836 -1664q-51 -100 -114.5 -178t-150.5 -140.5t-204 -96t-257 -33.5zM722 1716q-114 0 -182 78t-50 186q15 84 86.5 142t161.5 58q111 0 176.5 -78t47.5 -186
q-12 -84 -82.5 -142t-157.5 -58zM1358 1716q-114 0 -182 78t-50 186q15 84 86.5 142t161.5 58q111 0 176.5 -78t47.5 -186q-12 -84 -82.5 -142t-157.5 -58z" />
    <glyph glyph-name="uni0100" unicode="&#x100;" horiz-adv-x="2240" 
d="M536 0h-600l1016 2048h760l336 -2048h-600l-53 392h-675zM1916 2560l-40 -252h-1004l40 252h1004zM915 808h424l-91 676h-16z" />
    <glyph glyph-name="uni0101" unicode="&#x101;" horiz-adv-x="1664" 
d="M436 -24q-228 0 -345 114t-79 334q16 98 58 177t100.5 133t137 92t164 58.5t184.5 27.5q202 16 285 44t95 92v4q9 59 -30.5 91.5t-113.5 32.5q-81 0 -136.5 -35t-75.5 -105h-508q19 85 62 161.5t112 142.5t158.5 114t207 75t252.5 27q160 0 287.5 -39t206.5 -106.5
t113.5 -160t16.5 -198.5l-176 -1052h-516l36 216h-12q-167 -240 -484 -240zM1556 2048l-40 -252h-1004l40 252h1004zM676 324q99 0 181 60t99 160l20 128q-67 -27 -228 -56q-96 -15 -149.5 -56.5t-62.5 -103.5t29 -97t111 -35z" />
    <glyph glyph-name="uni0102" unicode="&#x102;" horiz-adv-x="2240" 
d="M536 0h-600l1016 2048h760l336 -2048h-600l-53 392h-675zM1624 2600h348q-33 -195 -200.5 -311.5t-417.5 -116.5q-253 0 -382 116t-96 312h344q-12 -70 30.5 -119t145.5 -49q101 0 158 47.5t70 120.5zM915 808h424l-91 676h-16z" />
    <glyph glyph-name="uni0103" unicode="&#x103;" horiz-adv-x="1664" 
d="M436 -24q-228 0 -345 114t-79 334q16 98 58 177t100.5 133t137 92t164 58.5t184.5 27.5q202 16 285 44t95 92v4q9 59 -30.5 91.5t-113.5 32.5q-81 0 -136.5 -35t-75.5 -105h-508q19 85 62 161.5t112 142.5t158.5 114t207 75t252.5 27q160 0 287.5 -39t206.5 -106.5
t113.5 -160t16.5 -198.5l-176 -1052h-516l36 216h-12q-167 -240 -484 -240zM1264 2088h348q-33 -195 -200.5 -311.5t-417.5 -116.5q-253 0 -382 116t-96 312h344q-12 -70 30.5 -119t145.5 -49q101 0 158 47.5t70 120.5zM676 324q99 0 181 60t99 160l20 128q-67 -27 -228 -56
q-96 -15 -149.5 -56.5t-62.5 -103.5t29 -97t111 -35z" />
    <glyph glyph-name="uni0104" unicode="&#x104;" horiz-adv-x="2240" 
d="M536 0h-600l1016 2048h760l336 -2048q-109 -33 -162.5 -68t-61.5 -92q-9 -50 11 -77t61 -27q21 0 53 8t35 8l24 -248q-122 -60 -252 -60q-138 0 -222.5 69t-101.5 195q-10 72 3.5 149.5t47.5 142.5h-35l-53 392h-675zM915 808h424l-91 676h-16z" />
    <glyph glyph-name="uni0105" unicode="&#x105;" horiz-adv-x="1664" 
d="M436 -24q-228 0 -345 114t-79 334q16 98 58 177t100.5 133t137 92t164 58.5t184.5 27.5q202 16 285 44t95 92v4q9 59 -30.5 91.5t-113.5 32.5q-81 0 -136.5 -35t-75.5 -105h-508q19 85 62 161.5t112 142.5t158.5 114t207 75t252.5 27q160 0 287.5 -39t206.5 -106.5
t113.5 -160t16.5 -198.5l-176 -1052q-109 -33 -162.5 -68t-61.5 -92q-9 -50 11 -77t61 -27q21 0 53 8t35 8l24 -248q-122 -60 -252 -60q-138 0 -222.5 69t-101.5 195q-15 103 18 209.5t97 170.5l21 128h-12q-167 -240 -484 -240zM676 324q99 0 181 60t99 160l20 128
q-67 -27 -228 -56q-96 -15 -149.5 -56.5t-62.5 -103.5t29 -97t111 -35z" />
    <glyph glyph-name="uni0106" unicode="&#x106;" horiz-adv-x="2164" 
d="M2126 1280h-556q12 145 -58 228.5t-218 83.5q-218 0 -365 -159.5t-195 -440.5q-42 -267 37 -401.5t271 -134.5q164 0 278 76.5t158 207.5h560q-26 -107 -82.5 -213.5t-148 -207t-206 -177.5t-268 -123.5t-323.5 -46.5q-173 0 -319.5 46t-257 135t-180.5 220.5t-91 302.5
t12 380q33 197 108.5 363.5t182 286.5t239.5 204t283 125t311 41q268 0 460.5 -92t289.5 -273t78 -431zM1172 2240l268 448h472l-376 -448h-364z" />
    <glyph glyph-name="uni0107" unicode="&#x107;" horiz-adv-x="1708" 
d="M748 -28q-148 0 -268.5 37t-204 106t-136.5 166.5t-65 219t10 263.5q28 176 107 322.5t197.5 250.5t278.5 161.5t345 57.5q338 0 507 -179.5t121 -480.5h-512q9 119 -38 183.5t-138 64.5q-114 0 -194.5 -95.5t-109.5 -280.5t18 -280.5t158 -95.5q94 0 164 64.5t100 183.5
h512q-57 -308 -284.5 -488t-567.5 -180zM856 1728l268 448h472l-376 -448h-364z" />
    <glyph glyph-name="uni0108" unicode="&#x108;" horiz-adv-x="2164" 
d="M2126 1280h-556q12 145 -58 228.5t-218 83.5q-218 0 -365 -159.5t-195 -440.5q-42 -267 37 -401.5t271 -134.5q164 0 278 76.5t158 207.5h560q-26 -107 -82.5 -213.5t-148 -207t-206 -177.5t-268 -123.5t-323.5 -46.5q-173 0 -319.5 46t-257 135t-180.5 220.5t-91 302.5
t12 380q33 197 108.5 363.5t182 286.5t239.5 204t283 125t311 41q268 0 460.5 -92t289.5 -273t78 -431zM1552 2232l-160 220l-232 -220h-456l2 12l534 456h384l386 -456l-2 -12h-456z" />
    <glyph glyph-name="uni0109" unicode="&#x109;" horiz-adv-x="1708" 
d="M748 -28q-148 0 -268.5 37t-204 106t-136.5 166.5t-65 219t10 263.5q28 176 107 322.5t197.5 250.5t278.5 161.5t345 57.5q338 0 507 -179.5t121 -480.5h-512q9 119 -38 183.5t-138 64.5q-114 0 -194.5 -95.5t-109.5 -280.5t18 -280.5t158 -95.5q94 0 164 64.5t100 183.5
h512q-57 -308 -284.5 -488t-567.5 -180zM1236 1720l-160 220l-232 -220h-456l2 12l534 456h384l386 -456l-2 -12h-456z" />
    <glyph glyph-name="uni010A" unicode="&#x10a;" horiz-adv-x="2164" 
d="M2126 1280h-556q12 145 -58 228.5t-218 83.5q-218 0 -365 -159.5t-195 -440.5q-42 -267 37 -401.5t271 -134.5q164 0 278 76.5t158 207.5h560q-26 -107 -82.5 -213.5t-148 -207t-206 -177.5t-268 -123.5t-323.5 -46.5q-173 0 -319.5 46t-257 135t-180.5 220.5t-91 302.5
t12 380q33 197 108.5 363.5t182 286.5t239.5 204t283 125t311 41q268 0 460.5 -92t289.5 -273t78 -431zM1352 2208q-113 0 -181.5 74.5t-50.5 177.5q18 105 109.5 178.5t204.5 73.5q112 0 179.5 -73.5t50.5 -178.5q-17 -104 -108.5 -178t-203.5 -74z" />
    <glyph glyph-name="uni010B" unicode="&#x10b;" horiz-adv-x="1708" 
d="M748 -28q-148 0 -268.5 37t-204 106t-136.5 166.5t-65 219t10 263.5q28 176 107 322.5t197.5 250.5t278.5 161.5t345 57.5q338 0 507 -179.5t121 -480.5h-512q9 119 -38 183.5t-138 64.5q-114 0 -194.5 -95.5t-109.5 -280.5t18 -280.5t158 -95.5q94 0 164 64.5t100 183.5
h512q-57 -308 -284.5 -488t-567.5 -180zM1036 1696q-113 0 -181.5 74.5t-50.5 177.5q18 105 109.5 178.5t204.5 73.5q112 0 179.5 -73.5t50.5 -178.5q-17 -104 -108.5 -178t-203.5 -74z" />
    <glyph glyph-name="uni010C" unicode="&#x10c;" horiz-adv-x="2164" 
d="M2126 1280h-556q12 145 -58 228.5t-218 83.5q-218 0 -365 -159.5t-195 -440.5q-42 -267 37 -401.5t271 -134.5q164 0 278 76.5t158 207.5h560q-26 -107 -82.5 -213.5t-148 -207t-206 -177.5t-268 -123.5t-323.5 -46.5q-173 0 -319.5 46t-257 135t-180.5 220.5t-91 302.5
t12 380q33 197 108.5 363.5t182 286.5t239.5 204t283 125t311 41q268 0 460.5 -92t289.5 -273t78 -431zM1236 2700l160 -220l232 220h456l-2 -12l-534 -456h-384l-386 456l2 12h456z" />
    <glyph glyph-name="uni010D" unicode="&#x10d;" horiz-adv-x="1708" 
d="M748 -28q-148 0 -268.5 37t-204 106t-136.5 166.5t-65 219t10 263.5q28 176 107 322.5t197.5 250.5t278.5 161.5t345 57.5q338 0 507 -179.5t121 -480.5h-512q9 119 -38 183.5t-138 64.5q-114 0 -194.5 -95.5t-109.5 -280.5t18 -280.5t158 -95.5q94 0 164 64.5t100 183.5
h512q-57 -308 -284.5 -488t-567.5 -180zM920 2188l160 -220l232 220h456l-2 -12l-534 -456h-384l-386 456l2 12h456z" />
    <glyph glyph-name="uni010E" unicode="&#x10e;" horiz-adv-x="2064" 
d="M804 0h-800l340 2048h768q314 0 527.5 -126.5t301.5 -364.5t35 -561q-78 -469 -390 -732.5t-782 -263.5zM638 472h202q118 0 210.5 29.5t169.5 95t129.5 179.5t78.5 276q15 89 16 160t-9.5 125.5t-35 95t-58.5 68t-82.5 44.5t-104 24t-126.5 7h-206zM940 2700l160 -220
l232 220h456l-2 -12l-534 -456h-384l-386 456l2 12h456z" />
    <glyph glyph-name="uni010F" unicode="&#x10f;" horiz-adv-x="2184" 
d="M566 -20q-125 0 -225 48.5t-168.5 146t-90 245.5t9.5 348q27 162 82 295t127 223t159.5 152t178 90t183.5 28q162 0 259 -81t125 -207h8l130 780h552l-340 -2048h-548l42 252h-12q-71 -123 -194 -197.5t-278 -74.5zM840 404q113 0 194.5 98t109.5 266q28 171 -21 267.5
t-163 96.5t-193 -96.5t-107 -267.5q-29 -172 18.5 -268t161.5 -96zM1986 1626l88 534h372l-162 -534h-298z" />
    <glyph glyph-name="uni0110" unicode="&#x110;" horiz-adv-x="2064" 
d="M804 0h-800l157 948h-265l52 296h263l133 804h768q314 0 527.5 -126.5t301.5 -364.5t35 -561q-78 -469 -390 -732.5t-782 -263.5zM767 1244h257l-52 -296h-255l-79 -476h202q118 0 210.5 29.5t169.5 95t129.5 179.5t78.5 276q15 89 16 160t-9.5 125.5t-35 95t-58.5 68
t-82.5 44.5t-104 24t-126.5 7h-206z" />
    <glyph glyph-name="uni0111" unicode="&#x111;" horiz-adv-x="1816" 
d="M566 -20q-125 0 -225 48.5t-168.5 146t-90 245.5t9.5 348q27 162 82 295t127 223t159.5 152t178 90t183.5 28q162 0 259 -81t125 -207h8l59 356h-381l52 296h379l21 128h552l-21 -128h145l-52 -296h-142l-270 -1624h-548l42 252h-12q-71 -123 -194 -197.5t-278 -74.5z
M840 404q113 0 194.5 98t109.5 266q28 171 -21 267.5t-163 96.5t-193 -96.5t-107 -267.5q-29 -172 18.5 -268t161.5 -96z" />
    <glyph glyph-name="uni0112" unicode="&#x112;" horiz-adv-x="1752" 
d="M4 0l340 2048h1476l-76 -448h-920l-56 -352h844l-76 -448h-844l-56 -352h916l-76 -448h-1472zM1672 2560l-40 -252h-1004l40 252h1004z" />
    <glyph glyph-name="uni0113" unicode="&#x113;" horiz-adv-x="1712" 
d="M744 -28q-370 0 -546.5 210.5t-113.5 581.5q60 358 308 575t604 217q349 0 520.5 -211.5t111.5 -576.5l-20 -128h-999l-5 -24q-18 -114 39 -185t177 -71q86 0 155.5 35.5t104.5 100.5h504q-82 -243 -302.5 -383.5t-537.5 -140.5zM1564 2048l-40 -252h-1004l40 252h1004z
M666 944h482q15 99 -41.5 161.5t-158.5 62.5q-101 0 -180 -62t-102 -162z" />
    <glyph glyph-name="uni0114" unicode="&#x114;" horiz-adv-x="1752" 
d="M4 0l340 2048h1476l-76 -448h-920l-56 -352h844l-76 -448h-844l-56 -352h916l-76 -448h-1472zM1380 2600h348q-33 -195 -200.5 -311.5t-417.5 -116.5q-253 0 -382 116t-96 312h344q-12 -70 30.5 -119t145.5 -49q101 0 158 47.5t70 120.5z" />
    <glyph glyph-name="uni0115" unicode="&#x115;" horiz-adv-x="1712" 
d="M744 -28q-370 0 -546.5 210.5t-113.5 581.5q60 358 308 575t604 217q349 0 520.5 -211.5t111.5 -576.5l-20 -128h-999l-5 -24q-18 -114 39 -185t177 -71q86 0 155.5 35.5t104.5 100.5h504q-82 -243 -302.5 -383.5t-537.5 -140.5zM1272 2088h348q-33 -195 -200.5 -311.5
t-417.5 -116.5q-253 0 -382 116t-96 312h344q-12 -70 30.5 -119t145.5 -49q101 0 158 47.5t70 120.5zM666 944h482q15 99 -41.5 161.5t-158.5 62.5q-101 0 -180 -62t-102 -162z" />
    <glyph glyph-name="uni0116" unicode="&#x116;" horiz-adv-x="1752" 
d="M4 0l340 2048h1476l-76 -448h-920l-56 -352h844l-76 -448h-844l-56 -352h916l-76 -448h-1472zM1116 2208q-113 0 -181.5 74.5t-50.5 177.5q18 105 109.5 178.5t204.5 73.5q112 0 179.5 -73.5t50.5 -178.5q-17 -104 -108.5 -178t-203.5 -74z" />
    <glyph glyph-name="uni0117" unicode="&#x117;" horiz-adv-x="1712" 
d="M744 -28q-370 0 -546.5 210.5t-113.5 581.5q60 358 308 575t604 217q349 0 520.5 -211.5t111.5 -576.5l-20 -128h-999l-5 -24q-18 -114 39 -185t177 -71q86 0 155.5 35.5t104.5 100.5h504q-82 -243 -302.5 -383.5t-537.5 -140.5zM1008 1696q-113 0 -181.5 74.5
t-50.5 177.5q18 105 109.5 178.5t204.5 73.5q112 0 179.5 -73.5t50.5 -178.5q-17 -104 -108.5 -178t-203.5 -74zM666 944h482q15 99 -41.5 161.5t-158.5 62.5q-101 0 -180 -62t-102 -162z" />
    <glyph glyph-name="uni0118" unicode="&#x118;" horiz-adv-x="1752" 
d="M4 0l340 2048h1476l-76 -448h-920l-56 -352h844l-76 -448h-844l-56 -352h916l-76 -448q-109 -33 -162.5 -68t-61.5 -92q-9 -50 11 -77t61 -27q21 0 53 8t35 8l24 -248q-122 -60 -252 -60q-138 0 -222.5 69t-101.5 195q-10 72 3.5 149.5t47.5 142.5h-907z" />
    <glyph glyph-name="uni0119" unicode="&#x119;" horiz-adv-x="1712" 
d="M908 -488q-138 0 -222.5 69t-101.5 195q-15 100 17 205q-299 41 -436 246t-81 537q60 358 308 575t604 217q349 0 520.5 -211.5t111.5 -576.5l-20 -128h-999l-5 -24q-18 -114 39 -185t177 -71q86 0 155.5 35.5t104.5 100.5h504q-59 -176 -193.5 -300t-328.5 -181
q-78 -42 -86 -107q-9 -50 11 -77t61 -27q21 0 53 8t35 8l24 -248q-122 -60 -252 -60zM666 944h482q15 99 -41.5 161.5t-158.5 62.5q-101 0 -180 -62t-102 -162z" />
    <glyph glyph-name="uni011A" unicode="&#x11a;" horiz-adv-x="1752" 
d="M4 0l340 2048h1476l-76 -448h-920l-56 -352h844l-76 -448h-844l-56 -352h916l-76 -448h-1472zM1000 2700l160 -220l232 220h456l-2 -12l-534 -456h-384l-386 456l2 12h456z" />
    <glyph glyph-name="uni011B" unicode="&#x11b;" horiz-adv-x="1712" 
d="M744 -28q-370 0 -546.5 210.5t-113.5 581.5q60 358 308 575t604 217q349 0 520.5 -211.5t111.5 -576.5l-20 -128h-999l-5 -24q-18 -114 39 -185t177 -71q86 0 155.5 35.5t104.5 100.5h504q-82 -243 -302.5 -383.5t-537.5 -140.5zM892 2188l160 -220l232 220h456l-2 -12
l-534 -456h-384l-386 456l2 12h456zM666 944h482q15 99 -41.5 161.5t-158.5 62.5q-101 0 -180 -62t-102 -162z" />
    <glyph glyph-name="uni011C" unicode="&#x11c;" horiz-adv-x="2176" 
d="M1562 1372q-16 220 -268 220q-213 0 -362 -150t-192 -414q-46 -275 36 -423.5t294 -148.5q185 0 299 78t139 214h-370l64 396h908l-46 -284q-46 -274 -198 -477t-376.5 -307t-493.5 -104q-297 0 -503 126t-293 364.5t-34 557.5q41 247 153 449t270 333.5t351.5 202.5
t401.5 71q239 0 422 -90t278 -250.5t82 -363.5h-562zM1546 2232l-160 220l-232 -220h-456l2 12l534 456h384l386 -456l-2 -12h-456z" />
    <glyph glyph-name="uni011D" unicode="&#x11d;" horiz-adv-x="1828" 
d="M656 -608q-339 0 -515 140t-157 368h532q5 -136 216 -136q252 0 284 240l44 260h-16q-62 -116 -188 -180t-284 -64q-101 0 -184.5 26.5t-151.5 83.5t-107.5 145t-52 211t15.5 282q27 162 82.5 295t127.5 223t159.5 152t178.5 90t184 28q161 0 258 -80.5t126 -207.5h12
l44 268h552l-256 -1532q-29 -193 -152.5 -332t-316 -209.5t-435.5 -70.5zM1232 1720l-160 220l-232 -220h-456l2 12l534 456h384l386 -456l-2 -12h-456zM840 412q115 0 196 94.5t108 261.5q27 171 -21.5 267.5t-162.5 96.5t-193.5 -96.5t-106.5 -267.5t19.5 -263.5
t160.5 -92.5z" />
    <glyph glyph-name="uni011E" unicode="&#x11e;" horiz-adv-x="2176" 
d="M1562 1372q-16 220 -268 220q-213 0 -362 -150t-192 -414q-46 -275 36 -423.5t294 -148.5q185 0 299 78t139 214h-370l64 396h908l-46 -284q-46 -274 -198 -477t-376.5 -307t-493.5 -104q-297 0 -503 126t-293 364.5t-34 557.5q41 247 153 449t270 333.5t351.5 202.5
t401.5 71q239 0 422 -90t278 -250.5t82 -363.5h-562zM1610 2600h348q-33 -195 -200.5 -311.5t-417.5 -116.5q-253 0 -382 116t-96 312h344q-12 -70 30.5 -119t145.5 -49q101 0 158 47.5t70 120.5z" />
    <glyph glyph-name="uni011F" unicode="&#x11f;" horiz-adv-x="1828" 
d="M656 -608q-339 0 -515 140t-157 368h532q5 -136 216 -136q252 0 284 240l44 260h-16q-62 -116 -188 -180t-284 -64q-101 0 -184.5 26.5t-151.5 83.5t-107.5 145t-52 211t15.5 282q27 162 82.5 295t127.5 223t159.5 152t178.5 90t184 28q161 0 258 -80.5t126 -207.5h12
l44 268h552l-256 -1532q-29 -193 -152.5 -332t-316 -209.5t-435.5 -70.5zM1296 2088h348q-33 -195 -200.5 -311.5t-417.5 -116.5q-253 0 -382 116t-96 312h344q-12 -70 30.5 -119t145.5 -49q101 0 158 47.5t70 120.5zM840 412q115 0 196 94.5t108 261.5q27 171 -21.5 267.5
t-162.5 96.5t-193.5 -96.5t-106.5 -267.5t19.5 -263.5t160.5 -92.5z" />
    <glyph glyph-name="uni0120" unicode="&#x120;" horiz-adv-x="2176" 
d="M1562 1372q-16 220 -268 220q-213 0 -362 -150t-192 -414q-46 -275 36 -423.5t294 -148.5q185 0 299 78t139 214h-370l64 396h908l-46 -284q-46 -274 -198 -477t-376.5 -307t-493.5 -104q-297 0 -503 126t-293 364.5t-34 557.5q41 247 153 449t270 333.5t351.5 202.5
t401.5 71q239 0 422 -90t278 -250.5t82 -363.5h-562zM1346 2208q-113 0 -181.5 74.5t-50.5 177.5q18 105 109.5 178.5t204.5 73.5q112 0 179.5 -73.5t50.5 -178.5q-17 -104 -108.5 -178t-203.5 -74z" />
    <glyph glyph-name="uni0121" unicode="&#x121;" horiz-adv-x="1828" 
d="M656 -608q-339 0 -515 140t-157 368h532q5 -136 216 -136q252 0 284 240l44 260h-16q-62 -116 -188 -180t-284 -64q-101 0 -184.5 26.5t-151.5 83.5t-107.5 145t-52 211t15.5 282q27 162 82.5 295t127.5 223t159.5 152t178.5 90t184 28q161 0 258 -80.5t126 -207.5h12
l44 268h552l-256 -1532q-29 -193 -152.5 -332t-316 -209.5t-435.5 -70.5zM840 412q115 0 196 94.5t108 261.5q27 171 -21.5 267.5t-162.5 96.5t-193.5 -96.5t-106.5 -267.5t19.5 -263.5t160.5 -92.5zM1032 1696q-113 0 -181.5 74.5t-50.5 177.5q18 105 109.5 178.5
t204.5 73.5q112 0 179.5 -73.5t50.5 -178.5q-17 -104 -108.5 -178t-203.5 -74z" />
    <glyph glyph-name="uni0122" unicode="&#x122;" horiz-adv-x="2176" 
d="M1562 1372q-16 220 -268 220q-213 0 -362 -150t-192 -414q-46 -275 36 -423.5t294 -148.5q185 0 299 78t139 214h-370l64 396h908l-46 -284q-46 -274 -198 -477t-376.5 -307t-493.5 -104q-297 0 -503 126t-293 364.5t-34 557.5q41 247 153 449t270 333.5t351.5 202.5
t401.5 71q239 0 422 -90t278 -250.5t82 -363.5h-562zM498 -632l212 478h496l-332 -478h-376z" />
    <glyph glyph-name="uni0123" unicode="&#x123;" horiz-adv-x="1828" 
d="M656 -608q-339 0 -515 140t-157 368h532q5 -136 216 -136q252 0 284 240l44 260h-16q-62 -116 -188 -180t-284 -64q-101 0 -184.5 26.5t-151.5 83.5t-107.5 145t-52 211t15.5 282q27 162 82.5 295t127.5 223t159.5 152t178.5 90t184 28q161 0 258 -80.5t126 -207.5h12
l44 268h552l-256 -1532q-29 -193 -152.5 -332t-316 -209.5t-435.5 -70.5zM840 412q115 0 196 94.5t108 261.5q27 171 -21.5 267.5t-162.5 96.5t-193.5 -96.5t-106.5 -267.5t19.5 -263.5t160.5 -92.5zM860 1756l36 200q52 344 280 464l236 -96q-46 -58 -95.5 -163.5
t-68.5 -224.5l-40 -180h-348z" />
    <glyph glyph-name="uni0124" unicode="&#x124;" horiz-adv-x="2112" 
d="M4 0l340 2048h556l-132 -800h736l132 800h556l-340 -2048h-556l132 800h-736l-132 -800h-556zM1496 2232l-160 220l-232 -220h-456l2 12l534 456h384l386 -456l-2 -12h-456z" />
    <glyph glyph-name="uni0125" unicode="&#x125;" horiz-adv-x="1820" 
d="M712 864l-144 -864h-552l340 2048h532l-132 -804h16q75 148 210.5 230t305.5 82q241 0 361.5 -161t78.5 -415l-164 -980h-552l144 864q18 115 -29 179.5t-151 64.5q-103 0 -174.5 -65.5t-89.5 -178.5zM848 2232l-160 220l-232 -220h-456l2 12l534 456h384l386 -456
l-2 -12h-456z" />
    <glyph glyph-name="uni0126" unicode="&#x126;" horiz-adv-x="2344" 
d="M2428 1744l-44 -264h-174l-246 -1480h-556l132 800h-736l-132 -800h-556l246 1480h-170l44 264h170l50 304h556l-50 -304h736l50 304h556l-50 -304h174zM1654 1480h-736l-38 -232h736z" />
    <glyph glyph-name="uni0127" unicode="&#x127;" horiz-adv-x="1820" 
d="M712 864l-144 -864h-552l268 1612h-276l52 296h273l23 140h532l-23 -140h271l-52 -296h-268l-60 -368h16q75 148 210.5 230t305.5 82q241 0 361.5 -161t78.5 -415l-164 -980h-552l144 864q18 115 -29 179.5t-151 64.5q-103 0 -174.5 -65.5t-89.5 -178.5z" />
    <glyph glyph-name="uni0128" unicode="&#x128;" horiz-adv-x="1284" 
d="M1132 2048l-340 -2048h-556l340 2048h556zM620 2240h-272q35 208 147.5 318t260.5 110q58 0 106 -17t79.5 -41t57.5 -48t52.5 -41t52.5 -17q106 0 132 156h268q-38 -205 -151 -317t-261 -115q-58 0 -105 17t-77 41t-55 48t-52 41t-55 17q-49 0 -82.5 -39t-45.5 -113z" />
    <glyph glyph-name="uni0129" unicode="&#x129;" horiz-adv-x="832" 
d="M12 0l256 1536h552l-256 -1536h-552zM304 1728h-272q35 208 147.5 318t260.5 110q58 0 106 -17t79.5 -41t57.5 -48t52.5 -41t52.5 -17q106 0 132 156h268q-38 -205 -151 -317t-261 -115q-58 0 -105 17t-77 41t-55 48t-52 41t-55 17q-49 0 -82.5 -39t-45.5 -113z" />
    <glyph glyph-name="uni012A" unicode="&#x12a;" horiz-adv-x="820" 
d="M900 2048l-340 -2048h-556l340 2048h556zM1208 2560l-40 -252h-1004l40 252h1004z" />
    <glyph glyph-name="uni012B" unicode="&#x12b;" horiz-adv-x="832" 
d="M12 0l256 1536h552l-256 -1536h-552zM1124 2048l-40 -252h-1004l40 252h1004z" />
    <glyph glyph-name="uni012C" unicode="&#x12c;" horiz-adv-x="820" 
d="M900 2048l-340 -2048h-556l340 2048h556zM916 2600h348q-33 -195 -200.5 -311.5t-417.5 -116.5q-253 0 -382 116t-96 312h344q-12 -70 30.5 -119t145.5 -49q101 0 158 47.5t70 120.5z" />
    <glyph glyph-name="uni012D" unicode="&#x12d;" horiz-adv-x="832" 
d="M12 0l256 1536h552l-256 -1536h-552zM832 2088h348q-33 -195 -200.5 -311.5t-417.5 -116.5q-253 0 -382 116t-96 312h344q-12 -70 30.5 -119t145.5 -49q101 0 158 47.5t70 120.5z" />
    <glyph glyph-name="uni012E" unicode="&#x12e;" horiz-adv-x="820" 
d="M900 2048l-340 -2048q-109 -33 -162.5 -68t-61.5 -92q-9 -50 11 -77t61 -27q21 0 53 8t35 8l24 -248q-122 -60 -252 -60q-138 0 -222.5 69t-101.5 195q-12 79 6 163.5t58 150.5l336 2026h556z" />
    <glyph glyph-name="uni012F" unicode="&#x12f;" horiz-adv-x="872" 
d="M240 -556q-138 0 -222.5 69t-101.5 195q-12 82 7 169t62 154l251 1505h552l-256 -1536q-109 -33 -162.5 -68t-61.5 -92q-9 -50 11 -77t61 -27q21 0 53 8t35 8l24 -248q-122 -60 -252 -60zM536 1696q-113 0 -181.5 74.5t-50.5 177.5q18 105 109.5 178.5t204.5 73.5
q112 0 179.5 -73.5t50.5 -178.5q-17 -104 -108.5 -178t-203.5 -74z" />
    <glyph glyph-name="uni0130" unicode="&#x130;" horiz-adv-x="820" 
d="M900 2048l-340 -2048h-556l340 2048h556zM652 2208q-113 0 -181.5 74.5t-50.5 177.5q18 105 109.5 178.5t204.5 73.5q112 0 179.5 -73.5t50.5 -178.5q-17 -104 -108.5 -178t-203.5 -74z" />
    <glyph glyph-name="uni0131" unicode="&#x131;" horiz-adv-x="832" 
d="M12 0l256 1536h552l-256 -1536h-552z" />
    <glyph glyph-name="uni0132" unicode="&#x132;" horiz-adv-x="2476" 
d="M2008 2048h548l-232 -1404q-34 -197 -157.5 -350.5t-314 -237.5t-416.5 -84q-120 0 -221 24t-184 75t-134 130t-70.5 188.5t5.5 250.5h556q-30 -236 156 -236q93 0 152 61.5t80 178.5zM900 2048l-340 -2048h-556l340 2048h556z" />
    <glyph glyph-name="uni0133" unicode="&#x133;" horiz-adv-x="1664" 
d="M1100 1536h552l-266 -1588q-20 -119 -67.5 -209t-114.5 -149.5t-159 -97t-195.5 -53t-229.5 -15.5q-53 0 -106 4l68 408q31 -4 64 -4q96 0 138 30t54 98zM12 0l256 1536h552l-256 -1536h-552zM568 1696q-113 0 -181.5 74.5t-50.5 177.5q18 105 109.5 178.5t204.5 73.5
q112 0 179.5 -73.5t50.5 -178.5q-17 -104 -108.5 -178t-203.5 -74zM1400 1696q-113 0 -181.5 74.5t-50.5 177.5q18 105 109.5 178.5t204.5 73.5q112 0 179.5 -73.5t50.5 -178.5q-17 -104 -108.5 -178t-203.5 -74z" />
    <glyph glyph-name="uni0134" unicode="&#x134;" horiz-adv-x="1656" 
d="M1188 2048h548l-232 -1404q-34 -197 -157.5 -350.5t-314 -237.5t-416.5 -84q-120 0 -221 24t-184 75t-134 130t-70.5 188.5t5.5 250.5h556q-30 -236 156 -236q93 0 152 61.5t80 178.5zM1688 2232l-160 220l-232 -220h-456l2 12l534 456h384l386 -456l-2 -12h-456z" />
    <glyph glyph-name="uni0135" unicode="&#x135;" horiz-adv-x="832" 
d="M268 1536h552l-266 -1588q-20 -119 -67.5 -209t-114.5 -149.5t-159 -97t-195.5 -53t-229.5 -15.5q-53 0 -106 4l68 408q31 -4 64 -4q96 0 138 30t54 98zM768 1720l-160 220l-232 -220h-456l2 12l534 456h384l386 -456l-2 -12h-456z" />
    <glyph glyph-name="uni0136" unicode="&#x136;" horiz-adv-x="2012" 
d="M4 0l340 2048h556l-136 -828h28l752 828h648l-840 -912l516 -1136h-664l-328 768l-228 -244l-88 -524h-556zM388 -636l212 478h496l-332 -478h-376z" />
    <glyph glyph-name="uni0137" unicode="&#x137;" horiz-adv-x="1708" 
d="M12 0l340 2048h552l-171 -1028h19l460 516h620l-633 -674l393 -862h-632l-224 540l-100 -105l-72 -435h-552zM256 -640l212 478h496l-332 -478h-376z" />
    <glyph glyph-name="uni0138" unicode="&#x138;" horiz-adv-x="1964" 
d="M824 1536l-86 -518h148l386 518h668l-628 -752l348 -784h-664l-172 506h-172l-84 -506h-520l256 1536h520z" />
    <glyph glyph-name="uni0139" unicode="&#x139;" horiz-adv-x="1608" 
d="M4 0l340 2048h556l-264 -1600h828l-76 -448h-1384zM464 2240l268 448h472l-376 -448h-364z" />
    <glyph glyph-name="uni013A" unicode="&#x13a;" horiz-adv-x="832" 
d="M904 2048l-340 -2048h-552l340 2048h552zM476 2240l268 448h472l-376 -448h-364z" />
    <glyph glyph-name="uni013B" unicode="&#x13b;" horiz-adv-x="1608" 
d="M4 0l340 2048h556l-264 -1600h828l-76 -448h-1384zM152 -640l212 478h496l-332 -478h-376z" />
    <glyph glyph-name="uni013C" unicode="&#x13c;" horiz-adv-x="832" 
d="M904 2048l-340 -2048h-552l340 2048h552zM-188 -640l212 478h496l-332 -478h-376z" />
    <glyph glyph-name="uni013D" unicode="&#x13d;" horiz-adv-x="1608" 
d="M4 0l340 2048h556l-264 -1600h828l-76 -448h-1384zM1114 1626l88 534h372l-162 -534h-298z" />
    <glyph glyph-name="uni013E" unicode="&#x13e;" horiz-adv-x="1192" 
d="M904 2048l-340 -2048h-552l340 2048h552zM994 1626l88 534h372l-162 -534h-298z" />
    <glyph glyph-name="uni013F" unicode="&#x13f;" horiz-adv-x="1664" 
d="M16 0l340 2048h556l-264 -1600h828l-76 -448h-1384zM1138 1036q-113 0 -181.5 74.5t-50.5 177.5q18 105 109.5 178.5t204.5 73.5q112 0 179.5 -73.5t50.5 -178.5q-17 -104 -108.5 -178t-203.5 -74z" />
    <glyph glyph-name="uni0140" unicode="&#x140;" horiz-adv-x="1340" 
d="M916 2048l-340 -2048h-552l340 2048h552zM1118 860q-113 0 -181.5 74.5t-50.5 177.5q18 105 109.5 178.5t204.5 73.5q112 0 179.5 -73.5t50.5 -178.5q-17 -104 -108.5 -178t-203.5 -74z" />
    <glyph glyph-name="uni0141" unicode="&#x141;" horiz-adv-x="1692" 
d="M1128 1352l-44 -276l-209 -51l-95 -577h828l-76 -448h-1384l147 883l-259 -63l44 272l260 65l148 891h556l-123 -747z" />
    <glyph glyph-name="uni0142" unicode="&#x142;" horiz-adv-x="832" 
d="M964 1368l-48 -276l-179 -50l-173 -1042h-552l146 882l-178 -50l44 276l180 50l148 890h552l-121 -730z" />
    <glyph glyph-name="uni0143" unicode="&#x143;" horiz-adv-x="2036" 
d="M2116 2048l-340 -2048h-464l-560 1076h-12l-180 -1076h-556l340 2048h472l552 -1072h16l176 1072h556zM1080 2240l268 448h472l-376 -448h-364z" />
    <glyph glyph-name="uni0144" unicode="&#x144;" horiz-adv-x="1820" 
d="M712 864l-144 -864h-552l256 1536h524l-48 -292h16q72 146 212.5 229t311.5 83q160 0 270.5 -74t154 -204.5t15.5 -297.5l-164 -980h-552l144 864q19 115 -28 179.5t-152 64.5q-102 0 -173.5 -65.5t-90.5 -178.5zM888 1728l268 448h472l-376 -448h-364z" />
    <glyph glyph-name="uni0145" unicode="&#x145;" horiz-adv-x="2036" 
d="M2116 2048l-340 -2048h-464l-560 1076h-12l-180 -1076h-556l340 2048h472l552 -1072h16l176 1072h556zM412 -640l212 478h496l-332 -478h-376z" />
    <glyph glyph-name="uni0146" unicode="&#x146;" horiz-adv-x="1820" 
d="M712 864l-144 -864h-552l256 1536h524l-48 -292h16q72 146 212.5 229t311.5 83q160 0 270.5 -74t154 -204.5t15.5 -297.5l-164 -980h-552l144 864q19 115 -28 179.5t-152 64.5q-102 0 -173.5 -65.5t-90.5 -178.5zM308 -640l212 478h496l-332 -478h-376z" />
    <glyph glyph-name="uni0147" unicode="&#x147;" horiz-adv-x="2036" 
d="M2116 2048l-340 -2048h-464l-560 1076h-12l-180 -1076h-556l340 2048h472l552 -1072h16l176 1072h556zM1144 2700l160 -220l232 220h456l-2 -12l-534 -456h-384l-386 456l2 12h456z" />
    <glyph glyph-name="uni0148" unicode="&#x148;" horiz-adv-x="1820" 
d="M712 864l-144 -864h-552l256 1536h524l-48 -292h16q72 146 212.5 229t311.5 83q160 0 270.5 -74t154 -204.5t15.5 -297.5l-164 -980h-552l144 864q19 115 -28 179.5t-152 64.5q-102 0 -173.5 -65.5t-90.5 -178.5zM952 2188l160 -220l232 220h456l-2 -12l-534 -456h-384
l-386 456l2 12h456z" />
    <glyph glyph-name="uni014A" unicode="&#x14a;" horiz-adv-x="2036" 
d="M1312 0l-560 1076h-12l-180 -1076h-556l340 2048h472l552 -1072h16l176 1072h556l-340 -2048l-4 -28q-20 -139 -69.5 -243t-120.5 -171.5t-172 -109.5t-214 -59t-256 -17q-73 0 -164 28l68 400q87 -20 192 -20q111 0 184 48t88 132z" />
    <glyph glyph-name="uni014B" unicode="&#x14b;" horiz-adv-x="1852" 
d="M712 864l-144 -864h-552l256 1536h524l-48 -292h16q72 146 212.5 229t311.5 83q160 0 270.5 -74t154 -204.5t15.5 -297.5l-164 -980h-1l-1 -8q-28 -159 -91.5 -270.5t-161.5 -176t-217.5 -93t-273.5 -28.5t-264 20l120 444q80 -20 156 -20q155 0 180 122l3 14l143 860
q19 115 -28 179.5t-152 64.5q-102 0 -173.5 -65.5t-90.5 -178.5z" />
    <glyph glyph-name="uni014C" unicode="&#x14c;" horiz-adv-x="2240" 
d="M2152 988q-33 -196 -109 -361.5t-182.5 -285t-240.5 -203.5t-285.5 -125t-314.5 -41q-217 0 -392 72t-291.5 206t-161.5 340.5t-3 461.5q40 245 146.5 441t258.5 322.5t339 193.5t392 67q172 0 318.5 -46t259 -135.5t184.5 -221t94 -303.5t-12 -382zM1592 1052
q42 266 -34 403t-270 137q-221 0 -366 -159t-190 -445q-47 -264 33 -398t275 -134q218 0 361 155t191 441zM1916 2560l-40 -252h-1004l40 252h1004z" />
    <glyph glyph-name="uni014D" unicode="&#x14d;" horiz-adv-x="1760" 
d="M748 -28q-246 0 -410.5 99.5t-228.5 278t-25 414.5q29 176 107.5 322.5t196.5 250.5t278 161.5t346 57.5q184 0 324 -57.5t224 -161.5t114.5 -250.5t1.5 -322.5q-60 -359 -309 -575.5t-619 -216.5zM816 380q107 0 186.5 104t109.5 284q29 181 -15.5 284.5t-152.5 103.5
t-187.5 -104t-108.5 -284q-30 -181 14.5 -284.5t153.5 -103.5zM1588 2048l-40 -252h-1004l40 252h1004z" />
    <glyph glyph-name="uni014E" unicode="&#x14e;" horiz-adv-x="2240" 
d="M2152 988q-33 -196 -109 -361.5t-182.5 -285t-240.5 -203.5t-285.5 -125t-314.5 -41q-217 0 -392 72t-291.5 206t-161.5 340.5t-3 461.5q40 245 146.5 441t258.5 322.5t339 193.5t392 67q172 0 318.5 -46t259 -135.5t184.5 -221t94 -303.5t-12 -382zM1592 1052
q42 266 -34 403t-270 137q-221 0 -366 -159t-190 -445q-47 -264 33 -398t275 -134q218 0 361 155t191 441zM1624 2600h348q-33 -195 -200.5 -311.5t-417.5 -116.5q-253 0 -382 116t-96 312h344q-12 -70 30.5 -119t145.5 -49q101 0 158 47.5t70 120.5z" />
    <glyph glyph-name="uni014F" unicode="&#x14f;" horiz-adv-x="1760" 
d="M748 -28q-246 0 -410.5 99.5t-228.5 278t-25 414.5q29 176 107.5 322.5t196.5 250.5t278 161.5t346 57.5q184 0 324 -57.5t224 -161.5t114.5 -250.5t1.5 -322.5q-60 -359 -309 -575.5t-619 -216.5zM1296 2088h348q-33 -195 -200.5 -311.5t-417.5 -116.5q-253 0 -382 116
t-96 312h344q-12 -70 30.5 -119t145.5 -49q101 0 158 47.5t70 120.5zM816 380q107 0 186.5 104t109.5 284q29 181 -15.5 284.5t-152.5 103.5t-187.5 -104t-108.5 -284q-30 -181 14.5 -284.5t153.5 -103.5z" />
    <glyph glyph-name="uni0150" unicode="&#x150;" horiz-adv-x="2240" 
d="M2152 988q-33 -196 -109 -361.5t-182.5 -285t-240.5 -203.5t-285.5 -125t-314.5 -41q-217 0 -392 72t-291.5 206t-161.5 340.5t-3 461.5q40 245 146.5 441t258.5 322.5t339 193.5t392 67q172 0 318.5 -46t259 -135.5t184.5 -221t94 -303.5t-12 -382zM1592 1052
q42 266 -34 403t-270 137q-221 0 -366 -159t-190 -445q-47 -264 33 -398t275 -134q218 0 361 155t191 441zM868 2232l364 408h424l-416 -408h-372zM1448 2232l392 408h424l-452 -408h-364z" />
    <glyph glyph-name="uni0151" unicode="&#x151;" horiz-adv-x="1760" 
d="M748 -28q-246 0 -410.5 99.5t-228.5 278t-25 414.5q29 176 107.5 322.5t196.5 250.5t278 161.5t346 57.5q184 0 324 -57.5t224 -161.5t114.5 -250.5t1.5 -322.5q-60 -359 -309 -575.5t-619 -216.5zM816 380q107 0 186.5 104t109.5 284q29 181 -15.5 284.5t-152.5 103.5
t-187.5 -104t-108.5 -284q-30 -181 14.5 -284.5t153.5 -103.5zM540 1720l364 408h424l-416 -408h-372zM1120 1720l392 408h424l-452 -408h-364z" />
    <glyph glyph-name="uni0152" unicode="&#x152;" horiz-adv-x="2988" 
d="M948 0q-203 0 -362.5 61.5t-270 187.5t-149 318t1.5 453q33 205 109 375t181.5 290t238.5 202.5t281.5 121.5t309.5 39h1772l-76 -448h-920l-56 -352h844l-76 -448h-844l-56 -352h916l-76 -448h-1768zM1318 448l192 1152h-298q-70 0 -129 -17t-115 -58.5t-100 -106.5
t-79.5 -166t-56.5 -232q-18 -111 -20 -199t13 -150t41 -106t66.5 -69.5t87 -36.5t104.5 -11h294z" />
    <glyph glyph-name="uni0153" unicode="&#x153;" horiz-adv-x="2720" 
d="M748 -28q-246 0 -410.5 99.5t-228.5 278t-25 414.5q29 176 107.5 322.5t196.5 250.5t278 161.5t346 57.5q321 0 501 -169q233 169 543 169q349 0 520.5 -211.5t111.5 -576.5l-20 -128h-999l-5 -24q-18 -114 39 -185t177 -71q86 0 155.5 35.5t104.5 100.5h504
q-82 -243 -302.5 -383.5t-537.5 -140.5q-326 0 -503 165q-233 -165 -553 -165zM816 380q107 0 186.5 104t109.5 284q29 181 -15.5 284.5t-152.5 103.5t-187.5 -104t-108.5 -284q-30 -181 14.5 -284.5t153.5 -103.5zM1726 944h482q15 99 -41.5 161.5t-158.5 62.5
q-101 0 -180 -62t-102 -162z" />
    <glyph glyph-name="uni0154" unicode="&#x154;" horiz-adv-x="1908" 
d="M4 0l340 2048h884q346 0 521.5 -186t122.5 -510q-34 -209 -149.5 -358.5t-295.5 -229.5l289 -764h-604l-247 676h-192l-113 -676h-556zM745 1108h195q313 0 352 244q20 129 -50 190.5t-218 61.5h-196zM988 2240l268 448h472l-376 -448h-364z" />
    <glyph glyph-name="uni0155" unicode="&#x155;" horiz-adv-x="1220" 
d="M12 0l256 1536h536l-48 -292h16q67 158 170 235t230 77q63 0 136 -20l-80 -472q-73 28 -200 28q-121 0 -214.5 -80.5t-117.5 -211.5l-132 -800h-552zM640 1728l268 448h472l-376 -448h-364z" />
    <glyph glyph-name="uni0156" unicode="&#x156;" horiz-adv-x="1908" 
d="M4 0l340 2048h884q346 0 521.5 -186t122.5 -510q-34 -209 -149.5 -358.5t-295.5 -229.5l289 -764h-604l-247 676h-192l-113 -676h-556zM745 1108h195q313 0 352 244q20 129 -50 190.5t-218 61.5h-196zM352 -640l212 478h496l-332 -478h-376z" />
    <glyph glyph-name="uni0157" unicode="&#x157;" horiz-adv-x="1220" 
d="M12 0l256 1536h536l-48 -292h16q67 158 170 235t230 77q63 0 136 -20l-80 -472q-73 28 -200 28q-121 0 -214.5 -80.5t-117.5 -211.5l-132 -800h-552zM-188 -640l212 478h496l-332 -478h-376z" />
    <glyph glyph-name="uni0158" unicode="&#x158;" horiz-adv-x="1908" 
d="M4 0l340 2048h884q346 0 521.5 -186t122.5 -510q-34 -209 -149.5 -358.5t-295.5 -229.5l289 -764h-604l-247 676h-192l-113 -676h-556zM1052 2700l160 -220l232 220h456l-2 -12l-534 -456h-384l-386 456l2 12h456zM745 1108h195q313 0 352 244q20 129 -50 190.5
t-218 61.5h-196z" />
    <glyph glyph-name="uni0159" unicode="&#x159;" horiz-adv-x="1220" 
d="M12 0l256 1536h536l-48 -292h16q67 158 170 235t230 77q63 0 136 -20l-80 -472q-73 28 -200 28q-121 0 -214.5 -80.5t-117.5 -211.5l-132 -800h-552zM704 2188l160 -220l232 220h456l-2 -12l-534 -456h-384l-386 456l2 12h456z" />
    <glyph glyph-name="uni015A" unicode="&#x15a;" horiz-adv-x="1876" 
d="M1340 1408q9 102 -49.5 157t-190.5 55q-124 0 -191.5 -42t-80.5 -114q-18 -71 42 -118.5t202 -77.5l160 -36q618 -136 536 -628q-51 -301 -297 -464.5t-639 -163.5q-202 0 -355.5 45t-255.5 134.5t-141 232.5t-8 332h528q-18 -140 61 -214t239 -74q131 0 209.5 47
t90.5 125q12 70 -51 117.5t-225 82.5l-196 44q-561 129 -488 576q32 193 161.5 342t331 229.5t443.5 80.5q371 0 559 -182t137 -486h-532zM1000 2240l268 448h472l-376 -448h-364z" />
    <glyph glyph-name="uni015B" unicode="&#x15b;" horiz-adv-x="1656" 
d="M1584 1036h-496q5 70 -41 111t-119 41q-85 0 -150.5 -37.5t-73.5 -94.5q-6 -27 18 -46t102 -34l304 -56q465 -86 408 -444q-26 -154 -137.5 -269.5t-282 -175t-376.5 -59.5q-356 0 -540 142.5t-168 381.5h536q2 -73 49.5 -111.5t130.5 -40.5q88 -3 154 35t74 97
q3 32 -28 49t-120 35l-264 48q-228 40 -332 164t-72 316q38 227 237 347.5t519 120.5q345 0 522.5 -138.5t145.5 -381.5zM808 1728l268 448h472l-376 -448h-364z" />
    <glyph glyph-name="uni015C" unicode="&#x15c;" horiz-adv-x="1876" 
d="M1340 1408q9 102 -49.5 157t-190.5 55q-124 0 -191.5 -42t-80.5 -114q-18 -71 42 -118.5t202 -77.5l160 -36q618 -136 536 -628q-51 -301 -297 -464.5t-639 -163.5q-202 0 -355.5 45t-255.5 134.5t-141 232.5t-8 332h528q-18 -140 61 -214t239 -74q131 0 209.5 47
t90.5 125q12 70 -51 117.5t-225 82.5l-196 44q-561 129 -488 576q32 193 161.5 342t331 229.5t443.5 80.5q371 0 559 -182t137 -486h-532zM1380 2232l-160 220l-232 -220h-456l2 12l534 456h384l386 -456l-2 -12h-456z" />
    <glyph glyph-name="uni015D" unicode="&#x15d;" horiz-adv-x="1656" 
d="M1584 1036h-496q5 70 -41 111t-119 41q-85 0 -150.5 -37.5t-73.5 -94.5q-6 -27 18 -46t102 -34l304 -56q465 -86 408 -444q-26 -154 -137.5 -269.5t-282 -175t-376.5 -59.5q-356 0 -540 142.5t-168 381.5h536q2 -73 49.5 -111.5t130.5 -40.5q88 -3 154 35t74 97
q3 32 -28 49t-120 35l-264 48q-228 40 -332 164t-72 316q38 227 237 347.5t519 120.5q345 0 522.5 -138.5t145.5 -381.5zM1188 1720l-160 220l-232 -220h-456l2 12l534 456h384l386 -456l-2 -12h-456z" />
    <glyph glyph-name="uni015E" unicode="&#x15e;" horiz-adv-x="1876" 
d="M1340 1408q9 102 -49.5 157t-190.5 55q-124 0 -191.5 -42t-80.5 -114q-18 -71 42 -118.5t202 -77.5l160 -36q618 -136 536 -628q-48 -286 -273.5 -448t-585.5 -178l-21 -62q114 -18 170 -85t38 -163q-24 -162 -199 -255t-457 -93l36 212q297 0 328 124q12 57 -29.5 93
t-134.5 51l73 180q-174 13 -305 64t-216.5 141t-117 225.5t-2.5 309.5h528q-18 -140 61 -214t239 -74q131 0 209.5 47t90.5 125q12 70 -51 117.5t-225 82.5l-196 44q-561 129 -488 576q32 193 161.5 342t331 229.5t443.5 80.5q371 0 559 -182t137 -486h-532z" />
    <glyph glyph-name="uni015F" unicode="&#x15f;" horiz-adv-x="1656" 
d="M1584 1036h-496q5 70 -41 111t-119 41q-85 0 -150.5 -37.5t-73.5 -94.5q-6 -27 18 -46t102 -34l304 -56q465 -86 408 -444q-38 -219 -238 -353t-490 -149l-20 -58q114 -18 170 -85t38 -163q-24 -162 -199 -255t-457 -93l36 212q297 0 328 124q12 57 -29.5 93t-134.5 51
l72 177q-294 26 -444.5 164.5t-135.5 354.5h536q2 -73 49.5 -111.5t130.5 -40.5q88 -3 154 35t74 97q3 32 -28 49t-120 35l-264 48q-228 40 -332 164t-72 316q38 227 237 347.5t519 120.5q345 0 522.5 -138.5t145.5 -381.5z" />
    <glyph glyph-name="uni0160" unicode="&#x160;" horiz-adv-x="1876" 
d="M1340 1408q9 102 -49.5 157t-190.5 55q-124 0 -191.5 -42t-80.5 -114q-18 -71 42 -118.5t202 -77.5l160 -36q618 -136 536 -628q-51 -301 -297 -464.5t-639 -163.5q-202 0 -355.5 45t-255.5 134.5t-141 232.5t-8 332h528q-18 -140 61 -214t239 -74q131 0 209.5 47
t90.5 125q12 70 -51 117.5t-225 82.5l-196 44q-561 129 -488 576q32 193 161.5 342t331 229.5t443.5 80.5q371 0 559 -182t137 -486h-532zM1064 2700l160 -220l232 220h456l-2 -12l-534 -456h-384l-386 456l2 12h456z" />
    <glyph glyph-name="uni0161" unicode="&#x161;" horiz-adv-x="1656" 
d="M1584 1036h-496q5 70 -41 111t-119 41q-85 0 -150.5 -37.5t-73.5 -94.5q-6 -27 18 -46t102 -34l304 -56q465 -86 408 -444q-26 -154 -137.5 -269.5t-282 -175t-376.5 -59.5q-356 0 -540 142.5t-168 381.5h536q2 -73 49.5 -111.5t130.5 -40.5q88 -3 154 35t74 97
q3 32 -28 49t-120 35l-264 48q-228 40 -332 164t-72 316q38 227 237 347.5t519 120.5q345 0 522.5 -138.5t145.5 -381.5zM872 2188l160 -220l232 220h456l-2 -12l-534 -456h-384l-386 456l2 12h456z" />
    <glyph glyph-name="uni0162" unicode="&#x162;" horiz-adv-x="1932" 
d="M212 1600l76 448h1780l-76 -448h-616l-264 -1600h-183l-29 -84q114 -18 170 -85t38 -163q-24 -162 -199 -255t-457 -93l36 212q297 0 328 124q12 57 -29.5 93t-134.5 51l81 200h-169l264 1600h-616z" />
    <glyph glyph-name="uni0163" unicode="&#x163;" horiz-adv-x="1140" 
d="M1184 1536l-68 -400h-263l-107 -642q-17 -96 88 -96q16 0 112 16l16 -388q-116 -33 -211 -43l-23 -67q114 -18 170 -85t38 -163q-24 -162 -199 -255t-457 -93l36 212q297 0 328 124q12 57 -29.5 93t-134.5 51l72 179q-220 17 -313 134.5t-53 328.5l115 694h-197l68 400
h195l61 368h552l-61 -368h265z" />
    <glyph glyph-name="uni0164" unicode="&#x164;" horiz-adv-x="1932" 
d="M212 1600l76 448h1780l-76 -448h-616l-264 -1600h-548l264 1600h-616zM1092 2700l160 -220l232 220h456l-2 -12l-534 -456h-384l-386 456l2 12h456z" />
    <glyph glyph-name="uni0165" unicode="&#x165;" horiz-adv-x="1310" 
d="M1184 1536l-68 -400h-263l-107 -642q-17 -96 88 -96q16 0 112 16l16 -388q-146 -42 -276 -48q-290 -14 -417.5 104.5t-82.5 359.5l115 694h-197l68 400h195l61 368h552l-61 -368h265zM1130 1726l88 534h372l-162 -534h-298z" />
    <glyph glyph-name="uni0166" unicode="&#x166;" horiz-adv-x="1932" 
d="M212 1600l76 448h1780l-76 -448h-616l-86 -524h262l-52 -296h-259l-129 -780h-548l129 780h-269l52 296h266l86 524h-616z" />
    <glyph glyph-name="uni0167" unicode="&#x167;" horiz-adv-x="1140" 
d="M36 724l36 216h196l33 196h-197l68 400h195l61 368h552l-61 -368h265l-68 -400h-263l-33 -196h264l-36 -216h-264l-38 -230q-17 -96 88 -96q16 0 112 16l16 -388q-146 -42 -276 -48q-290 -14 -417.5 104.5t-82.5 359.5l47 282h-197z" />
    <glyph glyph-name="uni0168" unicode="&#x168;" horiz-adv-x="2032" 
d="M1556 2048h556l-218 -1312q-37 -231 -177 -404t-355.5 -264.5t-477.5 -91.5q-264 0 -448 92t-266 264.5t-44 403.5l218 1312h556l-210 -1264q-23 -143 54.5 -235.5t219.5 -92.5q144 0 251.5 92.5t130.5 235.5zM990 2240h-272q35 208 147.5 318t260.5 110q58 0 106 -17
t79.5 -41t57.5 -48t52.5 -41t52.5 -17q106 0 132 156h268q-38 -205 -151 -317t-261 -115q-58 0 -105 17t-77 41t-55 48t-52 41t-55 17q-49 0 -82.5 -39t-45.5 -113z" />
    <glyph glyph-name="uni0169" unicode="&#x169;" horiz-adv-x="1828" 
d="M1120 672l144 864h552l-256 -1536h-524l48 292h-16q-71 -146 -211 -229t-313 -83q-240 0 -361 161t-79 415l164 980h552l-144 -864q-17 -115 29.5 -179.5t150.5 -64.5t175.5 65.5t88.5 178.5zM804 1728h-272q35 208 147.5 318t260.5 110q58 0 106 -17t79.5 -41t57.5 -48
t52.5 -41t52.5 -17q106 0 132 156h268q-38 -205 -151 -317t-261 -115q-58 0 -105 17t-77 41t-55 48t-52 41t-55 17q-49 0 -82.5 -39t-45.5 -113z" />
    <glyph glyph-name="uni016A" unicode="&#x16a;" horiz-adv-x="2032" 
d="M1556 2048h556l-218 -1312q-37 -231 -177 -404t-355.5 -264.5t-477.5 -91.5q-264 0 -448 92t-266 264.5t-44 403.5l218 1312h556l-210 -1264q-23 -143 54.5 -235.5t219.5 -92.5q144 0 251.5 92.5t130.5 235.5zM1810 2560l-40 -252h-1004l40 252h1004z" />
    <glyph glyph-name="uni016B" unicode="&#x16b;" horiz-adv-x="1828" 
d="M1120 672l144 864h552l-256 -1536h-524l48 292h-16q-71 -146 -211 -229t-313 -83q-240 0 -361 161t-79 415l164 980h552l-144 -864q-17 -115 29.5 -179.5t150.5 -64.5t175.5 65.5t88.5 178.5zM1624 2048l-40 -252h-1004l40 252h1004z" />
    <glyph glyph-name="uni016C" unicode="&#x16c;" horiz-adv-x="2032" 
d="M1556 2048h556l-218 -1312q-37 -231 -177 -404t-355.5 -264.5t-477.5 -91.5q-264 0 -448 92t-266 264.5t-44 403.5l218 1312h556l-210 -1264q-23 -143 54.5 -235.5t219.5 -92.5q144 0 251.5 92.5t130.5 235.5zM1518 2600h348q-33 -195 -200.5 -311.5t-417.5 -116.5
q-253 0 -382 116t-96 312h344q-12 -70 30.5 -119t145.5 -49q101 0 158 47.5t70 120.5z" />
    <glyph glyph-name="uni016D" unicode="&#x16d;" horiz-adv-x="1828" 
d="M1120 672l144 864h552l-256 -1536h-524l48 292h-16q-71 -146 -211 -229t-313 -83q-240 0 -361 161t-79 415l164 980h552l-144 -864q-17 -115 29.5 -179.5t150.5 -64.5t175.5 65.5t88.5 178.5zM1332 2088h348q-33 -195 -200.5 -311.5t-417.5 -116.5q-253 0 -382 116
t-96 312h344q-12 -70 30.5 -119t145.5 -49q101 0 158 47.5t70 120.5z" />
    <glyph glyph-name="uni016E" unicode="&#x16e;" horiz-adv-x="2032" 
d="M1556 2048h556l-218 -1312q-37 -231 -177 -404t-355.5 -264.5t-477.5 -91.5q-264 0 -448 92t-266 264.5t-44 403.5l218 1312h556l-210 -1264q-23 -143 54.5 -235.5t219.5 -92.5q144 0 251.5 92.5t130.5 235.5zM1248 2152q-132 0 -210 90.5t-58 217.5q20 129 128 218.5
t240 89.5q136 0 216.5 -90t55.5 -218q-24 -127 -132.5 -217.5t-239.5 -90.5zM1280 2340q52 0 97 36t51 84q6 51 -26 85.5t-86 34.5q-51 0 -92.5 -35t-51.5 -85q-9 -48 22.5 -84t85.5 -36z" />
    <glyph glyph-name="uni016F" unicode="&#x16f;" horiz-adv-x="1828" 
d="M1120 672l144 864h552l-256 -1536h-524l48 292h-16q-71 -146 -211 -229t-313 -83q-240 0 -361 161t-79 415l164 980h552l-144 -864q-17 -115 29.5 -179.5t150.5 -64.5t175.5 65.5t88.5 178.5zM1084 1696q-135 0 -221 94t-71 226t122 226t242 94t221 -94t71 -226
t-122 -226t-242 -94zM1108 1892q54 0 96 36.5t48 87.5t-28 87.5t-88 36.5q-57 0 -99.5 -36.5t-48.5 -87.5t28.5 -87.5t91.5 -36.5z" />
    <glyph glyph-name="uni0170" unicode="&#x170;" horiz-adv-x="2032" 
d="M1556 2048h556l-218 -1312q-37 -231 -177 -404t-355.5 -264.5t-477.5 -91.5q-264 0 -448 92t-266 264.5t-44 403.5l218 1312h556l-210 -1264q-23 -143 54.5 -235.5t219.5 -92.5q144 0 251.5 92.5t130.5 235.5zM762 2232l364 408h424l-416 -408h-372zM1342 2232l392 408
h424l-452 -408h-364z" />
    <glyph glyph-name="uni0171" unicode="&#x171;" horiz-adv-x="1828" 
d="M1120 672l144 864h552l-256 -1536h-524l48 292h-16q-71 -146 -211 -229t-313 -83q-240 0 -361 161t-79 415l164 980h552l-144 -864q-17 -115 29.5 -179.5t150.5 -64.5t175.5 65.5t88.5 178.5zM576 1720l364 408h424l-416 -408h-372zM1156 1720l392 408h424l-452 -408
h-364z" />
    <glyph glyph-name="uni0172" unicode="&#x172;" horiz-adv-x="2032" 
d="M1556 2048h556l-218 -1312q-46 -280 -239.5 -471.5t-484.5 -257.5l22 -7q-109 -33 -162.5 -68t-61.5 -92q-9 -50 11 -77t61 -27q21 0 53 8t35 8l24 -248q-122 -60 -252 -60q-138 0 -222.5 69t-101.5 195q-10 73 4 151t48 143q-279 61 -414 254.5t-88 479.5l218 1312h556
l-210 -1264q-23 -143 54.5 -235.5t219.5 -92.5q144 0 251.5 92.5t130.5 235.5z" />
    <glyph glyph-name="uni0173" unicode="&#x173;" horiz-adv-x="1828" 
d="M1120 672l144 864h552l-256 -1536q-109 -33 -162.5 -68t-61.5 -92q-9 -50 11 -77t61 -27q21 0 53 8t35 8l24 -248q-122 -60 -252 -60q-138 0 -222.5 69t-101.5 195q-14 98 15.5 201.5t89.5 168.5l35 214h-16q-71 -146 -211 -229t-313 -83q-240 0 -361 161t-79 415
l164 980h552l-144 -864q-17 -115 29.5 -179.5t150.5 -64.5t175.5 65.5t88.5 178.5z" />
    <glyph glyph-name="uni0174" unicode="&#x174;" horiz-adv-x="3080" 
d="M524 0l-264 2048h620l72 -1260h16l540 1260h488l124 -1264h16l488 1264h620l-944 -2048h-532l-156 1144h-16l-540 -1144h-532zM1980 2232l-160 220l-232 -220h-456l2 12l534 456h384l386 -456l-2 -12h-456z" />
    <glyph glyph-name="uni0175" unicode="&#x175;" horiz-adv-x="2464" 
d="M284 0l-128 1536h552l20 -936h12l352 936h536l48 -928h12l324 928h552l-640 -1536h-596l-80 824h-16l-352 -824h-596zM1584 1720l-160 220l-232 -220h-456l2 12l534 456h384l386 -456l-2 -12h-456z" />
    <glyph glyph-name="uni0176" unicode="&#x176;" horiz-adv-x="2152" 
d="M260 2048h620l260 -832h20l536 832h620l-984 -1404l-108 -644h-552l108 644zM1516 2232l-160 220l-232 -220h-456l2 12l534 456h384l386 -456l-2 -12h-456z" />
    <glyph glyph-name="uni0177" unicode="&#x177;" horiz-adv-x="1704" 
d="M254 -576q-194 0 -324 54l186 392q211 -79 284 34l18 28l-274 1604h556l70 -1064h16l430 1064h600l-836 -1664q-51 -100 -114.5 -178t-150.5 -140.5t-204 -96t-257 -33.5zM1202 1720l-160 220l-232 -220h-456l2 12l534 456h384l386 -456l-2 -12h-456z" />
    <glyph glyph-name="uni0178" unicode="&#x178;" horiz-adv-x="2152" 
d="M260 2048h620l260 -832h20l536 832h620l-984 -1404l-108 -644h-552l108 644zM1036 2228q-114 0 -182 78t-50 186q15 84 86.5 142t161.5 58q111 0 176.5 -78t47.5 -186q-12 -84 -82.5 -142t-157.5 -58zM1672 2228q-114 0 -182 78t-50 186q15 84 86.5 142t161.5 58
q111 0 176.5 -78t47.5 -186q-12 -84 -82.5 -142t-157.5 -58z" />
    <glyph glyph-name="uni0179" unicode="&#x179;" horiz-adv-x="1956" 
d="M12 0l52 308l1184 1292h-968l76 448h1672l-52 -308l-1184 -1292h968l-76 -448h-1672zM1044 2240l268 448h472l-376 -448h-364z" />
    <glyph glyph-name="uni017A" unicode="&#x17a;" horiz-adv-x="1676" 
d="M32 0l48 304l804 804l4 8h-648l72 420h1300l-52 -336l-740 -772l-4 -8h636l-68 -420h-1352zM808 1728l268 448h472l-376 -448h-364z" />
    <glyph glyph-name="uni017B" unicode="&#x17b;" horiz-adv-x="1956" 
d="M12 0l52 308l1184 1292h-968l76 448h1672l-52 -308l-1184 -1292h968l-76 -448h-1672zM1224 2208q-113 0 -181.5 74.5t-50.5 177.5q18 105 109.5 178.5t204.5 73.5q112 0 179.5 -73.5t50.5 -178.5q-17 -104 -108.5 -178t-203.5 -74z" />
    <glyph glyph-name="uni017C" unicode="&#x17c;" horiz-adv-x="1676" 
d="M32 0l48 304l804 804l4 8h-648l72 420h1300l-52 -336l-740 -772l-4 -8h636l-68 -420h-1352zM988 1696q-113 0 -181.5 74.5t-50.5 177.5q18 105 109.5 178.5t204.5 73.5q112 0 179.5 -73.5t50.5 -178.5q-17 -104 -108.5 -178t-203.5 -74z" />
    <glyph glyph-name="uni017D" unicode="&#x17d;" horiz-adv-x="1956" 
d="M12 0l52 308l1184 1292h-968l76 448h1672l-52 -308l-1184 -1292h968l-76 -448h-1672zM1108 2700l160 -220l232 220h456l-2 -12l-534 -456h-384l-386 456l2 12h456z" />
    <glyph glyph-name="uni017E" unicode="&#x17e;" horiz-adv-x="1676" 
d="M32 0l48 304l804 804l4 8h-648l72 420h1300l-52 -336l-740 -772l-4 -8h636l-68 -420h-1352zM872 2188l160 -220l232 220h456l-2 -12l-534 -456h-384l-386 456l2 12h456z" />
    <glyph glyph-name="uni017F" unicode="&#x17f;" horiz-adv-x="856" 
d="M380 0h-520l264 1596q44 265 233 404.5t495 139.5q91 0 240 -28l-100 -396q-67 12 -144 12q-182 0 -204 -132z" />
    <glyph glyph-name="uni0180" unicode="&#x180;" horiz-adv-x="1816" 
d="M4 0l270 1624h-270l52 296h267l21 128h552l-21 -128h257l-52 -296h-254l-58 -356h8q68 126 193 207t287 81q118 0 214.5 -45t168 -140.5t94 -245t-8.5 -357.5q-32 -194 -105.5 -346.5t-173 -247.5t-216 -144.5t-241.5 -49.5q-156 0 -254 74.5t-126 197.5h-16l-40 -252
h-548zM672 768q-27 -169 21.5 -266.5t162.5 -97.5t193.5 96.5t106.5 267.5q27 172 -20 268t-160 96q-114 0 -195.5 -97t-108.5 -267z" />
    <glyph glyph-name="uni0181" unicode="&#x181;" horiz-adv-x="2560" 
d="M684 0l266 1604h-30q-61 0 -109.5 -23t-78.5 -62.5t-47.5 -83t-24.5 -91.5l-24 -148h-488l40 244q45 288 261 448t543 160h920q345 0 508.5 -137t123.5 -375q-30 -167 -159 -289.5t-313 -158.5l-4 -20q202 -6 316.5 -141t79.5 -347q-43 -256 -265.5 -418t-550.5 -162
h-964zM1316 444h260q138 0 217.5 53t94.5 155q18 107 -44 165.5t-192 58.5h-268zM1444 1220h228q110 0 187.5 52.5t92.5 143.5q15 93 -43.5 144.5t-164.5 51.5h-236z" />
    <glyph glyph-name="uni0182" unicode="&#x182;" horiz-adv-x="1848" 
d="M4 0l340 2048h1440l-76 -448h-884l-36 -240h208q387 0 592 -183.5t156 -488.5q-34 -202 -167 -358.5t-343.5 -243t-465.5 -86.5h-764zM632 436h208q147 0 240 71t112 185q18 108 -52 176t-216 68h-208z" />
    <glyph glyph-name="uni0183" unicode="&#x183;" horiz-adv-x="1816" 
d="M1708 2048l-60 -364h-812l-68 -416h8q68 126 193 207t287 81q118 0 214.5 -45t168 -140.5t94 -245t-8.5 -357.5q-32 -194 -105.5 -346.5t-173 -247.5t-216 -144.5t-241.5 -49.5q-156 0 -254 74.5t-126 197.5h-16l-40 -252h-548l340 2048h1364zM672 768
q-27 -169 21.5 -266.5t162.5 -97.5t193.5 96.5t106.5 267.5q27 172 -20 268t-160 96q-114 0 -195.5 -97t-108.5 -267z" />
    <glyph glyph-name="uni0184" unicode="&#x184;" horiz-adv-x="2340" 
d="M1198 1360h210q255 0 436.5 -82.5t263 -235t48.5 -354.5q-34 -202 -167.5 -358.5t-344 -243t-464.5 -86.5h-764l266 1600h-506l76 448h1060zM1127 936l-83 -500h208q146 0 239.5 71t112.5 185q18 108 -52.5 176t-215.5 68h-209z" />
    <glyph glyph-name="uni0185" unicode="&#x185;" horiz-adv-x="1952" 
d="M624 2112h76l-11 -64h455l-105 -644h13q87 152 356 152q92 0 172.5 -28.5t148.5 -88.5t109.5 -153.5t55.5 -222.5t-14 -295q-26 -157 -80.5 -287.5t-126 -222t-159 -155t-180.5 -93.5t-190 -30q-60 0 -104.5 5.5t-88.5 20t-72 44t-39 74.5h-19l-21 -124h-548l241 1454
l-237 186l44 264zM1364 768q58 364 -204 364q-59 0 -105.5 -20.5t-77.5 -53t-54 -81.5t-36 -98t-23 -111q-11 -60 -14.5 -109t3 -98t26.5 -82t60.5 -54t100.5 -21q260 0 324 364z" />
    <glyph glyph-name="uni0186" unicode="&#x186;" horiz-adv-x="2164" 
d="M122 768h556q-12 -145 58 -228.5t218 -83.5q218 0 365 159.5t195 440.5q42 267 -37 401.5t-271 134.5q-164 0 -278 -76.5t-158 -207.5h-560q26 107 82.5 213.5t148 207t206 177.5t268 123.5t323.5 46.5q173 0 319.5 -46t257 -135t180.5 -220.5t91 -302.5t-12 -380
q-33 -197 -108.5 -363.5t-182 -286.5t-239.5 -204t-283 -125t-311 -41q-268 0 -460.5 92t-289.5 273t-78 431z" />
    <glyph glyph-name="uni0187" unicode="&#x187;" horiz-adv-x="2476" 
d="M2126 1280h-556q12 145 -58 228.5t-218 83.5q-218 0 -365 -159.5t-195 -440.5q-42 -267 37 -401.5t271 -134.5q164 0 278 76.5t158 207.5h560q-26 -107 -82.5 -213.5t-148 -207t-206 -177.5t-268 -123.5t-323.5 -46.5q-173 0 -319.5 46t-257 135t-180.5 220.5t-91 302.5
t12 380q33 197 108.5 363.5t182 286.5t239.5 204t283 125t311 41q349 0 566 -156q122 103 283 157.5t333 54.5q153 0 244 -12l-72 -440q-20 0 -77 2t-75 2q-41 0 -83.5 -9t-89 -30.5t-84.5 -53t-66 -82.5t-37 -113l-12 -89q0 -5 -1 -14t-1 -13z" />
    <glyph glyph-name="uni0188" unicode="&#x188;" horiz-adv-x="1872" 
d="M1648 896h-520q9 119 -38 183.5t-138 64.5q-114 0 -194.5 -95.5t-109.5 -280.5t18 -280.5t158 -95.5q94 0 164 64.5t100 183.5h512q-57 -308 -284.5 -488t-567.5 -180q-148 0 -268.5 37t-204 106t-136.5 166.5t-65 219t10 263.5q28 176 107 322.5t197.5 250.5
t278.5 161.5t345 57.5q200 0 346 -66q91 94 219 144t275 50q85 0 200 -32l-56 -332q-7 1 -51.5 6.5t-72.5 5.5q-83 0 -124 -43t-56 -141z" />
    <glyph glyph-name="uni0189" unicode="&#x189;" horiz-adv-x="2064" 
d="M804 0h-800l157 948h-265l52 296h263l133 804h768q314 0 527.5 -126.5t301.5 -364.5t35 -561q-78 -469 -390 -732.5t-782 -263.5zM767 1244h257l-52 -296h-255l-79 -476h202q118 0 210.5 29.5t169.5 95t129.5 179.5t78.5 276q15 89 16 160t-9.5 125.5t-35 95t-58.5 68
t-82.5 44.5t-104 24t-126.5 7h-206z" />
    <glyph glyph-name="uni018A" unicode="&#x18a;" horiz-adv-x="2744" 
d="M144 1196l40 244q47 288 262.5 448t541.5 160h804q314 0 527.5 -126.5t301.5 -364.5t35 -561q-78 -469 -390 -732.5t-782 -263.5h-800l262 1576h-38q-215 0 -252 -232l-24 -148h-488zM1502 1576l-184 -1104h202q118 0 210.5 29.5t169.5 95t129.5 179.5t78.5 276
q15 89 16 160t-9.5 125.5t-35 95t-58.5 68t-82.5 44.5t-104 24t-126.5 7h-206z" />
    <glyph glyph-name="uni018B" unicode="&#x18b;" horiz-adv-x="1964" 
d="M1668 0h-764q-254 0 -435.5 87.5t-262 244t-46.5 356.5q32 200 164.5 352.5t342 236t465.5 83.5h228l44 268h-904l72 436h1440zM1204 428l84 508h-228q-150 0 -248 -68t-116 -176q-19 -114 56 -189t224 -75h228z" />
    <glyph glyph-name="uni018C" unicode="&#x18c;" horiz-adv-x="1816" 
d="M532 2048h1364l-340 -2048h-548l42 252h-12q-70 -123 -193 -197.5t-279 -74.5q-125 0 -225 48.5t-168 146t-90 245.5t9 348q27 162 82 295t127 223t159.5 152t178 90t183.5 28q162 0 259.5 -81t124.5 -207h8l69 416h-811zM1144 768q28 171 -21 267.5t-163 96.5
t-192.5 -96t-107.5 -268q-29 -171 18.5 -267.5t161.5 -96.5t195 97.5t109 266.5z" />
    <glyph glyph-name="uni018D" unicode="&#x18d;" horiz-adv-x="2060" 
d="M1416 -516h-1220l68 412h556q-12 8 -46 24t-77 42.5t-93 69.5q-393 334 -336 724l4 28q25 173 98.5 315t186 243.5t267.5 157.5t338 56q363 0 530 -186t120 -506l-4 -28q-17 -119 -63 -226.5t-110 -189t-142 -146t-161.5 -103.5t-167.5 -55h-52q32 -26 87.5 -85.5
t96 -106t99 -116t61.5 -72.5zM1280 756l4 28q7 45 10 79t2.5 73t-6.5 67.5t-20 56.5t-36.5 45.5t-58 28t-81.5 10.5q-74 0 -128.5 -26t-89.5 -77t-55.5 -112.5t-32.5 -144.5l-4 -28q-21 -143 18 -243t118 -145q17 -8 48 -8q69 0 122.5 29.5t90 85t60.5 124t39 157.5z" />
    <glyph glyph-name="uni018E" unicode="&#x18e;" horiz-adv-x="1752" 
d="M1832 2048l-340 -2048h-1476l76 448h920l56 352h-844l76 448h844l56 352h-916l76 448h1472z" />
    <glyph glyph-name="uni018F" unicode="&#x18f;" horiz-adv-x="2232" 
d="M966 -28q-281 0 -468.5 117.5t-261 334t-24.5 508.5l46 272h1319q10 53 5.5 102t-18.5 92t-51.5 79t-92 61.5t-140.5 39.5t-198 14q-143 0 -306.5 -20t-267.5 -44l4 460q63 23 292 55.5t426 32.5q249 0 434.5 -66t292.5 -185t146 -282t7 -359l-54 -328
q-43 -258 -193.5 -459t-384 -313t-512.5 -112zM1497 760h-777l-6 -40q-18 -119 67 -193.5t263 -74.5q181 0 293.5 83t159.5 225z" />
    <glyph glyph-name="uni0190" unicode="&#x190;" horiz-adv-x="1960" 
d="M1296 1100l-42 -260h-268q-147 0 -224.5 -57t-95.5 -169q-19 -115 42.5 -164.5t203.5 -49.5t223 40.5t95 115.5h540q-29 -171 -153.5 -304t-321.5 -206.5t-433 -73.5q-404 0 -597.5 158t-144.5 450q28 170 140.5 289.5t296.5 178.5q-142 64 -210.5 177.5t-44.5 254.5
q47 281 286.5 438.5t621.5 157.5q166 0 303.5 -43.5t228 -120t131.5 -184.5t21 -232h-536q11 76 -44 112t-178 36q-138 0 -210.5 -48t-89.5 -152q-17 -100 36 -150t180 -50h268z" />
    <glyph glyph-name="uni0191" unicode="&#x191;" horiz-adv-x="1756" 
d="M116 0l340 2048h1440l-76 -448h-884l-56 -352h796l-76 -448h-796l-132 -800l-8 -48q-17 -100 -50 -180.5t-74.5 -135t-97.5 -94.5t-110 -62t-122.5 -35t-124.5 -17t-125 -4q-187 0 -236 8l68 408q14 -3 62 -1q11 1 30 1q204 0 224 112z" />
    <glyph glyph-name="uni0192" unicode="&#x192;" horiz-adv-x="1476" 
d="M1396 1488l-60 -368h-312l-184 -1112q-47 -282 -224.5 -433t-451.5 -151q-124 0 -236 20l88 408q68 -16 124 -16q40 0 69.5 8.5t47 21.5t30 37t18 46.5t11.5 58.5l184 1112h-220l60 368h220l16 108q46 265 238 404.5t502 139.5q80 0 236 -24l-92 -392q-63 12 -156 12
q-81 0 -136 -36t-68 -104l-16 -108h312z" />
    <glyph glyph-name="uni0193" unicode="&#x193;" horiz-adv-x="2468" 
d="M2128 1372h-568l1 8q-19 212 -267 212q-213 0 -362 -150t-192 -414q-46 -275 36 -423.5t294 -148.5q185 0 299 78t139 214h-370l64 396h908l-46 -284q-46 -274 -198 -477t-376.5 -307t-493.5 -104q-297 0 -503 126t-293 364.5t-34 557.5q41 247 153 449t270 333.5
t351.5 202.5t401.5 71q204 0 375 -69q116 184 329.5 286.5t445.5 102.5q101 0 240 -32l-72 -432q-9 1 -62 6.5t-82 5.5q-49 0 -87.5 -3.5t-81 -16t-72 -33t-52.5 -57t-31 -86.5z" />
    <glyph glyph-name="uni0194" unicode="&#x194;" horiz-adv-x="2312" 
d="M350 2048h640l249 -798l507 798h644l-969 -1390q99 -339 139 -548.5t22 -317.5q-29 -171 -211 -285.5t-441 -114.5q-270 0 -417.5 112.5t-116.5 303.5q13 86 97.5 242t367.5 604zM1050 112q-84 -151 -102 -274q-15 -94 42 -94q28 0 45 23t25 73q18 125 -10 272z" />
    <glyph glyph-name="uni0195" unicode="&#x195;" horiz-adv-x="2840" 
d="M16 0l340 2048h532l-132 -804h16q75 148 210 230t306 82q240 0 361 -161t79 -415l-36 -212l-28 -176q-14 -80 20 -126t108 -46q84 0 153.5 65.5t125 195.5t99 302.5t82.5 408.5l24 144h552l-24 -144q-47 -285 -111.5 -504.5t-156.5 -395t-211.5 -288.5t-275.5 -172.5
t-349 -59.5q-171 0 -296.5 45t-196 128t-94.5 195.5t-1 251.5l28 176l16 96q19 115 -28 179.5t-152 64.5q-102 0 -173.5 -65.5t-90.5 -178.5l-144 -864h-552z" />
    <glyph glyph-name="uni0196" unicode="&#x196;" horiz-adv-x="928" 
d="M352 2048h552l-256 -1548q-18 -96 88 -96q44 0 68 8l20 -380q-103 -32 -236 -40q-301 -15 -421.5 93.5t-78.5 362.5z" />
    <glyph glyph-name="uni0197" unicode="&#x197;" horiz-adv-x="820" 
d="M900 2048l-133 -804h257l-52 -296h-255l-157 -948h-556l157 948h-265l52 296h263l133 804h556z" />
    <glyph glyph-name="uni0198" unicode="&#x198;" horiz-adv-x="2160" 
d="M4 0l340 2048h556l-132 -792h28l680 588q444 383 868 128l-228 -388q-44 22 -80 26t-72.5 -12t-62 -34t-69.5 -56l-488 -420l656 -1088h-664l-416 692l-288 -252l-72 -440h-556z" />
    <glyph glyph-name="uni0199" unicode="&#x199;" horiz-adv-x="1708" 
d="M1004 0l-236 488l-144 -136l-60 -352h-552l209 1256h-1l48 292q17 101 50 181.5t74 135t97 94.5t109.5 62t122 35t123.5 16.5t124 3.5q52 0 102.5 -3t102 -7.5t63.5 -5.5l-64 -408q-86 8 -124 8q-207 0 -228 -112l-21 -128h1l-52 -320h20l436 436h628l-672 -656l432 -880
h-588z" />
    <glyph glyph-name="uni019A" unicode="&#x19a;" horiz-adv-x="832" 
d="M904 2048l-138 -832h262l-52 -296h-259l-153 -920h-552l153 920h-265l52 296h262l138 832h552z" />
    <glyph glyph-name="uni019B" unicode="&#x19b;" horiz-adv-x="1952" 
d="M1480 1884l-50 -292l-126 -36l264 -996q8 -29 13 -46t17 -46t25 -45.5t33.5 -29.5t45.5 -13h48l-70 -404q-32 -5 -131 -5q-19 1 -59 1q-100 0 -179 28.5t-129.5 78t-80.5 106.5t-43 123l-95 490l-391 -798h-552l739 1399l-369 -107l48 300l294 82q-48 50 -152 50
q-49 0 -96 -4l48 384q62 17 152.5 26.5t153.5 9.5q156 0 250.5 -62.5t125.5 -181.5l21 -81z" />
    <glyph glyph-name="uni019C" unicode="&#x19c;" horiz-adv-x="2780" 
d="M1114 201q-200 -229 -506 -229q-275 0 -376 139t-48 457l244 1480h512l-244 -1480q-14 -84 24.5 -134t131.5 -50q150 0 236 88q3 44 12 96l244 1480h512l-244 -1480q-16 -84 23.5 -134t132.5 -50q142 0 228 81l264 1583h520l-340 -2048h-460l2 163q-194 -191 -458 -191
q-327 0 -410 229z" />
    <glyph glyph-name="uni019D" unicode="&#x19d;" horiz-adv-x="2108" 
d="M76 0l340 2048h472l552 -1072h16l176 1072h556l-340 -2048h-464l-560 1076h-12l-180 -1076l-8 -48q-17 -101 -50 -181.5t-74 -135t-97.5 -94.5t-110 -62t-122.5 -35t-124.5 -16.5t-125.5 -3.5q-185 0 -236 8l68 408q17 -3 64 -1q11 1 28 1q207 0 224 112z" />
    <glyph glyph-name="uni019E" unicode="&#x19e;" horiz-adv-x="1820" 
d="M712 864l-144 -864h-552l256 1536h524l-48 -292h16q74 146 214 229t310 83q160 0 270 -74t153.5 -204.5t16.5 -297.5l-260 -1556h-552l240 1440q19 115 -28.5 179.5t-151.5 64.5q-103 0 -174 -65.5t-90 -178.5z" />
    <glyph glyph-name="uni019F" unicode="&#x19f;" horiz-adv-x="2240" 
d="M2152 988q-33 -196 -109 -361.5t-182.5 -285t-240.5 -203.5t-285.5 -125t-314.5 -41q-217 0 -392 72t-291.5 206t-161.5 340.5t-3 461.5q40 245 146.5 441t258.5 322.5t339 193.5t392 67q172 0 318.5 -46t259 -135.5t184.5 -221t94 -303.5t-12 -382zM1040 456
q179 0 308 105t197 303h-829q-13 -203 70.5 -305.5t253.5 -102.5zM1606 1184q18 408 -318 408q-179 0 -309.5 -105.5t-198.5 -302.5h826z" />
    <glyph glyph-name="uni01A0" unicode="&#x1a0;" horiz-adv-x="2364" 
d="M2256 2116h300q-83 -505 -418 -616q61 -226 14 -512q-33 -196 -109 -361.5t-182.5 -285t-240.5 -203.5t-285.5 -125t-314.5 -41q-217 0 -392 72t-291.5 206t-161.5 340.5t-3 461.5q40 245 146.5 441t258.5 322.5t339 193.5t392 67q245 0 436 -92.5t301 -267.5
q60 19 102 74.5t66 132t43 193.5zM1592 1052q42 266 -34 403t-270 137q-221 0 -366 -159t-190 -445q-47 -264 33 -398t275 -134q218 0 361 155t191 441z" />
    <glyph glyph-name="uni01A1" unicode="&#x1a1;" horiz-adv-x="1844" 
d="M1708 1608h276q-60 -361 -316 -493q39 -156 8 -351q-60 -359 -309 -575.5t-619 -216.5q-246 0 -410.5 99.5t-228.5 278t-25 414.5q29 176 107.5 322.5t196.5 250.5t278 161.5t346 57.5q200 0 346.5 -67t229.5 -191q84 88 120 310zM816 380q107 0 186.5 104t109.5 284
q29 181 -15.5 284.5t-152.5 103.5t-187.5 -104t-108.5 -284q-30 -181 14.5 -284.5t153.5 -103.5z" />
    <glyph glyph-name="uni01A2" unicode="&#x1a2;" horiz-adv-x="2770" 
d="M2844 2048l-434 -2624h-512l326 1972l-241 -108l-51 -311l-40 -241l-82 -492q-54 -45 -135 -90t-189.5 -87.5t-249.5 -68.5t-286 -26q-453 0 -662.5 257t-133.5 719l2 12l24 140q76 464 370 720t748 256q245 0 431 -65t291 -157l440 194h384zM1420 1027l92 557
q-77 64 -262 64q-130 0 -222 -35.5t-151 -109.5t-92.5 -169t-56.5 -234l-24 -144h-1l-1 -8q-23 -123 -17 -224t40.5 -173t113.5 -111.5t201 -39.5q171 0 286 68z" />
    <glyph glyph-name="uni01A3" unicode="&#x1a3;" horiz-adv-x="2304" 
d="M2312 1536l-348 -2112h-520l258 1564l-134 -37l-20 -123h-1l-81 -488q-43 -63 -89 -114t-111.5 -100t-140.5 -81.5t-176.5 -52.5t-218.5 -20q-145 0 -259.5 36.5t-189.5 103t-120.5 161t-53 210t12.5 249.5l4 24q30 181 100.5 327.5t178 252t257.5 163t332 57.5
q155 0 276 -57.5t205 -150.5l503 188h336zM786 388q124 0 184 64l80 492h1l17 108q-20 46 -59 69t-105 23q-55 0 -97 -20.5t-68.5 -51.5t-47 -86t-31.5 -104t-24 -126l-4 -24q-6 -36 -9 -54.5t-7 -53t-3.5 -53.5t3 -47.5t10 -45t20.5 -36t32 -30t46 -17.5t62 -7z" />
    <glyph glyph-name="uni01A4" unicode="&#x1a4;" horiz-adv-x="2528" 
d="M636 1196h-488l40 244q47 288 262 448t542 160h916q226 0 383.5 -89.5t225 -254t31.5 -380.5q-54 -331 -298.5 -523.5t-601.5 -192.5h-306l-102 -608h-556l266 1604h-30q-62 0 -110 -23t-78 -62.5t-47 -82.5t-25 -92zM1414 1040h194q149 0 244 75.5t116 208.5
q21 132 -48 206t-216 74h-196z" />
    <glyph glyph-name="uni01A5" unicode="&#x1a5;" horiz-adv-x="1824" 
d="M816 1536h6l-44 -268h12q67 126 192 207t288 81q93 0 173.5 -28.5t148 -88.5t108 -153.5t53.5 -222.5t-15 -295q-32 -194 -106 -346.5t-173.5 -247.5t-215.5 -144.5t-241 -49.5q-157 0 -255 74.5t-125 197.5h-12l-136 -828h-554l354 2112h-6q39 241 188 338.5t464 97.5
q129 0 268 -32l-60 -340q-55 22 -168 28q-70 3 -104 -20t-40 -72zM686 768q-28 -169 21 -266.5t163 -97.5q113 0 191 96t109 268q26 172 -20.5 268t-159.5 96q-115 0 -196.5 -97t-107.5 -267z" />
    <glyph glyph-name="uni01A6" unicode="&#x1a6;" horiz-adv-x="2224" 
d="M316 1908l46 280h536l-23 -140h313q243 0 411 -68.5t245.5 -206.5t45.5 -333q-21 -126 -63.5 -223t-107 -166t-138 -116t-171.5 -88l484 -1299l-4 -20h-576l-424 1184h-232l-118 -712h-540l317 1908h-1zM729 1140h307q130 0 209.5 61t98.5 175t-41.5 177t-186.5 63h-308z
" />
    <glyph glyph-name="uni01A7" unicode="&#x1a7;" horiz-adv-x="1880" 
d="M746 1408h-532q53 303 301.5 485.5t618.5 182.5q242 0 417 -81t255.5 -230t47.5 -341q-73 -450 -680 -576l-212 -44q-174 -37 -250.5 -83t-89.5 -117q-12 -78 50.5 -125t193.5 -47q160 0 262.5 74t133.5 214h528q-32 -189 -119 -332.5t-218.5 -233t-299.5 -134
t-371 -44.5q-392 0 -584 163.5t-144 464.5q42 241 222 399t522 229l174 36q153 31 226.5 77t81.5 119q11 71 -43.5 113.5t-178.5 42.5q-258 0 -312 -212z" />
    <glyph glyph-name="uni01A8" unicode="&#x1a8;" horiz-adv-x="1662" 
d="M162 1036q51 244 266.5 382t547.5 138t499.5 -131t126.5 -369q-29 -182 -166 -296.5t-378 -155.5l-280 -48q-93 -17 -139 -43t-55 -69q-6 -47 38.5 -73.5t121.5 -26.5q95 0 162.5 39.5t89.5 112.5h548q-62 -241 -287 -382.5t-571 -141.5q-212 0 -368.5 64.5t-233 187.5
t-50.5 284q31 170 162.5 271.5t375.5 144.5l322 56q157 27 164 108q10 46 -35 73t-119 27q-84 0 -150 -41.5t-84 -110.5h-508z" />
    <glyph glyph-name="uni01A9" unicode="&#x1a9;" horiz-adv-x="1972" 
d="M1680 440l-72 -440h-1500l36 212l732 824l-460 816l36 212h1492l-76 -444h-726l298 -576v-16l-499 -588h739z" />
    <glyph glyph-name="uni01AA" unicode="&#x1aa;" horiz-adv-x="2048" 
d="M328 1512q27 168 137 312.5t273 230t338 85.5q174 0 309.5 -85.5t199 -230.5t35.5 -312v-1l-250 -1501q-16 -98 29 -153t139 -55q56 0 148 12l-64 -404q-101 -20 -244 -20q-290 0 -431.5 162t-92.5 458l147 887q-64 -13 -133 -13q-130 0 -240.5 49.5t-183 133.5
t-105 200.5t-11.5 244.5zM944 1312q85 0 149.5 53t78.5 151q14 94 -34 145t-130 51q-92 0 -155.5 -51t-80.5 -145q-18 -99 30 -151.5t142 -52.5z" />
    <glyph glyph-name="uni01AB" unicode="&#x1ab;" horiz-adv-x="1152" 
d="M1184 1536l-68 -400h-263l-107 -642q-17 -96 88 -96h5l205 42l-80 -488q-41 -251 -197 -387.5t-399 -136.5q-98 0 -204 24l52 336q78 -8 128 -8q42 0 81.5 6.5t84 23.5t75.5 53.5t39 88.5l4 25q-260 -1 -372.5 118t-69.5 347l115 694h-197l68 400h195l61 368h552
l-61 -368h265z" />
    <glyph glyph-name="uni01AC" unicode="&#x1ac;" horiz-adv-x="2020" 
d="M2156 2048l-76 -448h-616l-264 -1600h-548l264 1600h-40q-215 0 -256 -264l-28 -148h-448l44 248q49 292 243.5 452t520.5 160h1204z" />
    <glyph glyph-name="uni01AD" unicode="&#x1ad;" horiz-adv-x="1512" 
d="M1292 1488l-60 -368h-257l-103 -608q-12 -71 18.5 -97.5t121.5 -26.5q84 0 120 4l-60 -376q-127 -44 -292 -44q-252 0 -361 111.5t-71 352.5l115 684h-187l60 368h189l3 17l6 37l12 68q17 98 47.5 176t69 132.5t91 95t106 64.5t122 38t131.5 19t141 5q160 0 268 -24
l-56 -340q-72 12 -120 12q-43 0 -84.5 -7t-86.5 -25t-76.5 -55.5t-40.5 -90.5l-19 -111l-2 -11h255z" />
    <glyph glyph-name="uni01AE" unicode="&#x1ae;" horiz-adv-x="1932" 
d="M1112 0l-8 -48q-8 -43 20 -70.5t69 -36.5t95 -9h92l-68 -412h-240q-48 0 -87.5 2t-85.5 7t-82.5 14.5t-75 24t-67 37t-55 51t-42.5 68t-25.5 87t-8.5 109t13 132.5l8 44l264 1600h-616l76 448h1780l-76 -448h-616z" />
    <glyph glyph-name="uni01AF" unicode="&#x1af;" horiz-adv-x="2460" 
d="M2300 2088h304q-20 -118 -49.5 -210.5t-76.5 -174.5t-111 -139t-154.5 -95.5t-205.5 -52.5l-113 -680q-37 -231 -177 -404t-355.5 -264.5t-477.5 -91.5q-264 0 -448 92t-266 264.5t-44 403.5l218 1312h556l-210 -1264q-23 -143 54.5 -235.5t219.5 -92.5q144 0 251.5 92.5
t130.5 235.5l210 1264h556l-63 -382q55 13 95 43.5t62.5 55.5t43 91t26 94.5t21.5 122.5q1 3 1.5 5t1 5t0.5 5z" />
    <glyph glyph-name="uni01B0" unicode="&#x1b0;" horiz-adv-x="2156" 
d="M2064 1632h272q-22 -131 -63.5 -227.5t-110.5 -169.5t-171.5 -114.5t-240.5 -54.5l-178 -1066h-524l48 292h-16q-71 -146 -211 -229t-313 -83q-240 0 -361 161t-79 415l164 980h552l-144 -864q-17 -115 29.5 -179.5t150.5 -64.5t175.5 65.5t88.5 178.5l144 864h552
l-43 -258q71 12 120.5 40t80.5 75.5t48 102t30 136.5z" />
    <glyph glyph-name="uni01B1" unicode="&#x1b1;" horiz-adv-x="2224" 
d="M124 916q38 227 157 394.5t303 273.5l4 16h-352l76 448h868l-92 -560q-147 -54 -252.5 -195t-135.5 -321q-36 -225 64.5 -368.5t295.5 -143.5t343.5 143.5t184.5 368.5q30 181 -27 321.5t-185 194.5l92 560h868l-76 -448h-352v-12q314 -229 240 -672
q-34 -204 -138.5 -380t-257.5 -299.5t-353 -194t-419 -70.5t-396 70.5t-289 194t-158.5 299.5t-12.5 380z" />
    <glyph glyph-name="uni01B2" unicode="&#x1b2;" horiz-adv-x="1952" 
d="M848 -28q-187 0 -333.5 50t-241.5 143t-132.5 234t-8.5 317l220 1332h536l-220 -1332q-25 -154 33 -235t219 -81q159 0 239 80t105 236l120 740q18 108 -7 144t-125 36q-56 0 -148 -12l72 428q119 24 228 24q304 0 438.5 -159.5t85.5 -460.5l-120 -740
q-38 -234 -168 -402.5t-333 -255t-459 -86.5z" />
    <glyph glyph-name="uni01B3" unicode="&#x1b3;" horiz-adv-x="2380" 
d="M284 2048h596l363 -832h24l405 528q96 126 210.5 203.5t230 103t225.5 17t218 -47.5l-180 -408q-111 32 -177.5 0.5t-158.5 -144.5l-584 -712l-128 -756h-552l128 756z" />
    <glyph glyph-name="uni01B4" unicode="&#x1b4;" horiz-adv-x="1806" 
d="M254 -576q-197 0 -324 54l186 392q211 -79 284 34l18 28l-274 1604h556l70 -1064h16l422 996q91 214 234.5 327t329.5 113q155 0 266 -30l-156 -434q-62 14 -98 -2q-48 -19 -76 -80l-708 -1490q-47 -99 -114.5 -178.5t-158.5 -141t-211.5 -95t-261.5 -33.5z" />
    <glyph glyph-name="uni01B5" unicode="&#x1b5;" horiz-adv-x="1956" 
d="M12 0l52 308l587 640h-143l52 296h362l326 356h-968l76 448h1672l-52 -308l-455 -496h115l-52 -296h-334l-458 -500h968l-76 -448h-1672z" />
    <glyph glyph-name="uni01B6" unicode="&#x1b6;" horiz-adv-x="1676" 
d="M32 0l48 304l328 328h-140l52 296h384l180 180l4 8h-648l72 420h1300l-52 -336l-261 -272h97l-52 -296h-328l-196 -204l-4 -8h636l-68 -420h-1352z" />
    <glyph glyph-name="uni01B7" unicode="&#x1b7;" horiz-adv-x="1940" 
d="M-24 188h560q-19 -150 56 -243t212 -93q157 0 265.5 122t140.5 320q35 214 -45.5 340t-242.5 126h-268l64 384l568 432l2 16h-968l76 456h1636l-66 -400l-718 -540l-4 -20q304 -34 454.5 -247.5t97.5 -536.5q-43 -261 -194.5 -469.5t-378.5 -325.5t-487 -117
q-189 0 -343.5 60t-254.5 164.5t-144 252.5t-18 319z" />
    <glyph glyph-name="uni01B8" unicode="&#x1b8;" horiz-adv-x="1938" 
d="M1770 188q-42 -228 -188 -410t-365 -284t-471 -102q-195 0 -352 68.5t-256.5 188.5t-140 289.5t-7.5 365.5q52 322 273 536t535 248l4 20l-538 540l66 400h1636l-76 -456h-968l-2 -16l424 -432l-64 -384h-268q-160 0 -282.5 -126t-157.5 -340q-33 -198 34.5 -320
t223.5 -122q137 0 243 93t137 243h560z" />
    <glyph glyph-name="uni01B9" unicode="&#x1b9;" horiz-adv-x="1898" 
d="M1684 112q-51 -288 -310 -470t-634 -182q-239 0 -418.5 75.5t-268.5 216.5t-59 324q12 73 40.5 140t84 137.5t132.5 125.5t193.5 97.5t259.5 59.5l2 16l-472 484l66 400h1516l-74 -444h-856l-2 -12l354 -376l-60 -368h-260q-131 0 -221 -56.5t-107 -155.5
q-15 -93 46 -154.5t178 -61.5q116 0 204.5 57.5t105.5 146.5h560z" />
    <glyph glyph-name="uni01BA" unicode="&#x1ba;" horiz-adv-x="1688" 
d="M364 1536h1272l-48 -290l-439 -322q172 -54 252 -174.5t55 -269.5q-59 -356 -674 -494q-145 -33 -209 -66.5t-71 -79.5q-8 -54 39.5 -79t128.5 -25q97 0 168 38t90 126h480q-12 -72 -52.5 -143.5t-110 -137t-159 -116.5t-208.5 -81t-250 -30q-209 0 -358 60.5t-216 169.5
t-44 250q32 193 190 307t472 167q142 24 214.5 58t85.5 102q10 55 -29.5 86.5t-110.5 31.5h-396l48 288l296 212h-484z" />
    <glyph glyph-name="uni01BB" unicode="&#x1bb;" horiz-adv-x="1820" 
d="M8 0l66 400l809 588h-155l52 296h428q30 52 40 112q19 116 -42.5 184t-177.5 68q-118 0 -200.5 -70.5t-103.5 -197.5h-528q54 322 298.5 509t603.5 187q368 0 558.5 -172.5t141.5 -459.5q-14 -87 -49 -160h107l-52 -296h-277q-159 -156 -453 -372l-218 -160l-2 -12h800
l-74 -444h-1572z" />
    <glyph glyph-name="uni01BC" unicode="&#x1bc;" horiz-adv-x="1864" 
d="M904 -28q-174 0 -316.5 48.5t-235 134.5t-133.5 207t-19 262h540q-14 -103 53 -167.5t179 -64.5q130 0 223.5 81t116.5 215q22 134 -45 215t-195 81q-90 0 -171 -43t-129 -117l-472 96l163 684h-219l72 444h1628l-72 -444h-920l-116 -452h12q65 95 194.5 155.5
t281.5 60.5q181 0 311.5 -84.5t187.5 -236.5t25 -343q-25 -159 -106 -294.5t-203 -232t-286 -151t-349 -54.5z" />
    <glyph glyph-name="uni01BD" unicode="&#x1bd;" horiz-adv-x="2060" 
d="M872 624l-472 16l142 456h-234l64 392h1432l-64 -392h-724l-72 -196q142 56 332 56q266 0 392.5 -127.5t91.5 -356.5q-19 -110 -75 -199t-151.5 -156.5t-240.5 -104t-329 -36.5q-123 0 -228.5 17t-194.5 54.5t-147.5 93t-84.5 137t-9 182.5l520 16q2 -48 53.5 -66
t158.5 -18q194 0 220 128q8 54 -42.5 87t-145.5 33q-151 0 -192 -16z" />
    <glyph glyph-name="uni01BE" unicode="&#x1be;" horiz-adv-x="1688" 
d="M988 428q4 26 -3 47.5t-30.5 42t-42 33t-58.5 36.5q-113 68 -165 119q-148 149 -119 414h-182l60 368h183l65 380h520l-64 -380h252l-60 -368h-252q-5 -51 5 -94t24 -69.5t46.5 -55t53.5 -41.5t63 -38q30 -17 45.5 -26.5t42 -28t40 -33.5t32.5 -38t27.5 -48t15.5 -57
t6 -71t-9 -84q-32 -202 -243 -333t-525 -131q-131 0 -241 31t-182.5 82.5t-120.5 117.5t-65 136.5t-7 140.5h480q-7 -86 52 -125t152 -39q88 0 142.5 27.5t61.5 84.5z" />
    <glyph glyph-name="uni01BF" unicode="&#x1bf;" horiz-adv-x="1980" 
d="M855 1394q162 162 381 162q191 0 314 -94t167.5 -261t14.5 -393l-10 -76q-26 -200 -109.5 -357.5t-225 -275.5t-327 -202t-432.5 -147l-48 -322h-520l312 2108h488zM687 149q212 61 349 212t166 371l10 76q11 69 8.5 131t-16.5 108.5t-54 73.5t-104 27q-159 0 -226 -97z
" />
    <glyph glyph-name="uni01C0" unicode="&#x1c0;" horiz-adv-x="908" 
d="M788 1988l-328 -1988h-268l328 1988h268z" />
    <glyph glyph-name="uni01C1" unicode="&#x1c1;" horiz-adv-x="1176" 
d="M764 1988l-328 -1988h-268l328 1988h268zM1132 1988l-328 -1988h-268l328 1988h268z" />
    <glyph glyph-name="uni01C2" unicode="&#x1c2;" horiz-adv-x="1590" 
d="M1130 1988l-85 -514h407l-52 -296h-404l-56 -340h406l-52 -296h-403l-89 -542h-268l89 542h-405l52 296h402l56 340h-404l52 296h401l85 514h268z" />
    <glyph glyph-name="uni01C3" unicode="&#x1c3;" horiz-adv-x="1000" 
d="M988 2048l-284 -1408h-452l180 1408h556zM388 -32q-117 0 -190.5 81.5t-61.5 198.5q12 114 103.5 195t208.5 81q112 0 186 -81.5t62 -194.5q-12 -115 -105 -197.5t-203 -82.5z" />
    <glyph glyph-name="uni01C5" unicode="&#x1c5;" horiz-adv-x="3740" 
d="M804 0h-800l340 2048h768q314 0 527.5 -126.5t301.5 -364.5t35 -561q-78 -469 -390 -732.5t-782 -263.5zM2096 0l48 304l804 804l4 8h-648l72 420h1300l-52 -336l-740 -772l-4 -8h636l-68 -420h-1352zM638 472h202q118 0 210.5 29.5t169.5 95t129.5 179.5t78.5 276
q15 89 16 160t-9.5 125.5t-35 95t-58.5 68t-82.5 44.5t-104 24t-126.5 7h-206zM2936 2188l160 -220l232 220h456l-2 -12l-534 -456h-384l-386 456l2 12h456z" />
    <glyph glyph-name="uni01C6" unicode="&#x1c6;" horiz-adv-x="3264" 
d="M566 -20q-125 0 -225 48.5t-168.5 146t-90 245.5t9.5 348q27 162 82 295t127 223t159.5 152t178 90t183.5 28q162 0 259 -81t125 -207h8l130 780h552l-340 -2048h-548l42 252h-12q-71 -123 -194 -197.5t-278 -74.5zM1620 0l48 304l804 804l4 8h-648l72 420h1300l-52 -336
l-740 -772l-4 -8h636l-68 -420h-1352zM2460 2188l160 -220l232 220h456l-2 -12l-534 -456h-384l-386 456l2 12h456zM840 404q113 0 194.5 98t109.5 266q28 171 -21 267.5t-163 96.5t-193 -96.5t-107 -267.5q-29 -172 18.5 -268t161.5 -96z" />
    <glyph glyph-name="uni01C7" unicode="&#x1c7;" horiz-adv-x="3264" 
d="M4 0l340 2048h556l-264 -1600h828l-76 -448h-1384zM2796 2048h548l-232 -1404q-34 -197 -157.5 -350.5t-314 -237.5t-416.5 -84q-120 0 -221 24t-184 75t-134 130t-70.5 188.5t5.5 250.5h556q-30 -236 156 -236q93 0 152 61.5t80 178.5z" />
    <glyph glyph-name="uni01C8" unicode="&#x1c8;" horiz-adv-x="2440" 
d="M4 0l340 2048h556l-264 -1600h828l-76 -448h-1384zM1876 1536h552l-266 -1588q-20 -119 -67.5 -209t-114.5 -149.5t-159 -97t-195.5 -53t-229.5 -15.5q-53 0 -106 4l68 408q31 -4 64 -4q96 0 138 30t54 98zM2176 1696q-113 0 -181.5 74.5t-50.5 177.5q18 105 109.5 178.5
t204.5 73.5q112 0 179.5 -73.5t50.5 -178.5q-17 -104 -108.5 -178t-203.5 -74z" />
    <glyph glyph-name="uni01C9" unicode="&#x1c9;" horiz-adv-x="1640" 
d="M1004 1536h552l-266 -1588q-20 -119 -67.5 -209t-114.5 -149.5t-159 -97t-195.5 -53t-229.5 -15.5q-53 0 -106 4l68 408q31 -4 64 -4q96 0 138 30t54 98zM904 2048l-340 -2048h-552l340 2048h552zM1304 1696q-113 0 -181.5 74.5t-50.5 177.5q18 105 109.5 178.5
t204.5 73.5q112 0 179.5 -73.5t50.5 -178.5q-17 -104 -108.5 -178t-203.5 -74z" />
    <glyph glyph-name="uni01CA" unicode="&#x1ca;" horiz-adv-x="3692" 
d="M2116 2048l-340 -2048h-464l-560 1076h-12l-180 -1076h-556l340 2048h472l552 -1072h16l176 1072h556zM3224 2048h548l-232 -1404q-34 -197 -157.5 -350.5t-314 -237.5t-416.5 -84q-120 0 -221 24t-184 75t-134 130t-70.5 188.5t5.5 250.5h556q-30 -236 156 -236
q93 0 152 61.5t80 178.5z" />
    <glyph glyph-name="uni01CB" unicode="&#x1cb;" horiz-adv-x="2772" 
d="M2116 2048l-340 -2048h-464l-560 1076h-12l-180 -1076h-556l340 2048h472l552 -1072h16l176 1072h556zM2208 1536h552l-266 -1588q-20 -119 -67.5 -209t-114.5 -149.5t-159 -97t-195.5 -53t-229.5 -15.5q-53 0 -106 4l68 408q31 -4 64 -4q96 0 138 30t54 98zM2508 1696
q-113 0 -181.5 74.5t-50.5 177.5q18 105 109.5 178.5t204.5 73.5q112 0 179.5 -73.5t50.5 -178.5q-17 -104 -108.5 -178t-203.5 -74z" />
    <glyph glyph-name="uni01CC" unicode="&#x1cc;" horiz-adv-x="2652" 
d="M712 864l-144 -864h-552l256 1536h524l-48 -292h16q72 146 212.5 229t311.5 83q160 0 270.5 -74t154 -204.5t15.5 -297.5l-164 -980h-552l144 864q19 115 -28 179.5t-152 64.5q-102 0 -173.5 -65.5t-90.5 -178.5zM2088 1536h552l-266 -1588q-20 -119 -67.5 -209
t-114.5 -149.5t-159 -97t-195.5 -53t-229.5 -15.5q-53 0 -106 4l68 408q31 -4 64 -4q96 0 138 30t54 98zM2388 1696q-113 0 -181.5 74.5t-50.5 177.5q18 105 109.5 178.5t204.5 73.5q112 0 179.5 -73.5t50.5 -178.5q-17 -104 -108.5 -178t-203.5 -74z" />
    <glyph glyph-name="uni01CD" unicode="&#x1cd;" horiz-adv-x="2240" 
d="M536 0h-600l1016 2048h760l336 -2048h-600l-53 392h-675zM1244 2700l160 -220l232 220h456l-2 -12l-534 -456h-384l-386 456l2 12h456zM915 808h424l-91 676h-16z" />
    <glyph glyph-name="uni01CE" unicode="&#x1ce;" horiz-adv-x="1664" 
d="M436 -24q-228 0 -345 114t-79 334q16 98 58 177t100.5 133t137 92t164 58.5t184.5 27.5q202 16 285 44t95 92v4q9 59 -30.5 91.5t-113.5 32.5q-81 0 -136.5 -35t-75.5 -105h-508q19 85 62 161.5t112 142.5t158.5 114t207 75t252.5 27q160 0 287.5 -39t206.5 -106.5
t113.5 -160t16.5 -198.5l-176 -1052h-516l36 216h-12q-167 -240 -484 -240zM884 2188l160 -220l232 220h456l-2 -12l-534 -456h-384l-386 456l2 12h456zM676 324q99 0 181 60t99 160l20 128q-67 -27 -228 -56q-96 -15 -149.5 -56.5t-62.5 -103.5t29 -97t111 -35z" />
    <glyph glyph-name="uni01CF" unicode="&#x1cf;" horiz-adv-x="820" 
d="M900 2048l-340 -2048h-556l340 2048h556zM536 2700l160 -220l232 220h456l-2 -12l-534 -456h-384l-386 456l2 12h456z" />
    <glyph glyph-name="uni01D0" unicode="&#x1d0;" horiz-adv-x="832" 
d="M12 0l256 1536h552l-256 -1536h-552zM452 2188l160 -220l232 220h456l-2 -12l-534 -456h-384l-386 456l2 12h456z" />
    <glyph glyph-name="uni01D1" unicode="&#x1d1;" horiz-adv-x="2240" 
d="M2152 988q-33 -196 -109 -361.5t-182.5 -285t-240.5 -203.5t-285.5 -125t-314.5 -41q-217 0 -392 72t-291.5 206t-161.5 340.5t-3 461.5q40 245 146.5 441t258.5 322.5t339 193.5t392 67q172 0 318.5 -46t259 -135.5t184.5 -221t94 -303.5t-12 -382zM1592 1052
q42 266 -34 403t-270 137q-221 0 -366 -159t-190 -445q-47 -264 33 -398t275 -134q218 0 361 155t191 441zM1244 2700l160 -220l232 220h456l-2 -12l-534 -456h-384l-386 456l2 12h456z" />
    <glyph glyph-name="uni01D2" unicode="&#x1d2;" horiz-adv-x="1760" 
d="M748 -28q-246 0 -410.5 99.5t-228.5 278t-25 414.5q29 176 107.5 322.5t196.5 250.5t278 161.5t346 57.5q184 0 324 -57.5t224 -161.5t114.5 -250.5t1.5 -322.5q-60 -359 -309 -575.5t-619 -216.5zM916 2188l160 -220l232 220h456l-2 -12l-534 -456h-384l-386 456l2 12
h456zM816 380q107 0 186.5 104t109.5 284q29 181 -15.5 284.5t-152.5 103.5t-187.5 -104t-108.5 -284q-30 -181 14.5 -284.5t153.5 -103.5z" />
    <glyph glyph-name="uni01D3" unicode="&#x1d3;" horiz-adv-x="2032" 
d="M1556 2048h556l-218 -1312q-37 -231 -177 -404t-355.5 -264.5t-477.5 -91.5q-264 0 -448 92t-266 264.5t-44 403.5l218 1312h556l-210 -1264q-23 -143 54.5 -235.5t219.5 -92.5q144 0 251.5 92.5t130.5 235.5zM1138 2700l160 -220l232 220h456l-2 -12l-534 -456h-384
l-386 456l2 12h456z" />
    <glyph glyph-name="uni01D4" unicode="&#x1d4;" horiz-adv-x="1828" 
d="M1120 672l144 864h552l-256 -1536h-524l48 292h-16q-71 -146 -211 -229t-313 -83q-240 0 -361 161t-79 415l164 980h552l-144 -864q-17 -115 29.5 -179.5t150.5 -64.5t175.5 65.5t88.5 178.5zM952 2188l160 -220l232 220h456l-2 -12l-534 -456h-384l-386 456l2 12h456z
" />
    <glyph glyph-name="uni01D5" unicode="&#x1d5;" horiz-adv-x="2032" 
d="M1556 2048h556l-218 -1312q-37 -231 -177 -404t-355.5 -264.5t-477.5 -91.5q-264 0 -448 92t-266 264.5t-44 403.5l218 1312h556l-210 -1264q-23 -143 54.5 -235.5t219.5 -92.5q144 0 251.5 92.5t130.5 235.5zM1900 3072l-40 -252h-1004l40 252h1004zM974 2228
q-114 0 -182 78t-50 186q15 84 86.5 142t161.5 58q111 0 176.5 -78t47.5 -186q-12 -84 -82.5 -142t-157.5 -58zM1610 2228q-114 0 -182 78t-50 186q15 84 86.5 142t161.5 58q111 0 176.5 -78t47.5 -186q-12 -84 -82.5 -142t-157.5 -58z" />
    <glyph glyph-name="uni01D6" unicode="&#x1d6;" horiz-adv-x="1828" 
d="M1120 672l144 864h552l-256 -1536h-524l48 292h-16q-71 -146 -211 -229t-313 -83q-240 0 -361 161t-79 415l164 980h552l-144 -864q-17 -115 29.5 -179.5t150.5 -64.5t175.5 65.5t88.5 178.5zM1714 2560l-40 -252h-1004l40 252h1004zM788 1716q-114 0 -182 78t-50 186
q15 84 86.5 142t161.5 58q111 0 176.5 -78t47.5 -186q-12 -84 -82.5 -142t-157.5 -58zM1424 1716q-114 0 -182 78t-50 186q15 84 86.5 142t161.5 58q111 0 176.5 -78t47.5 -186q-12 -84 -82.5 -142t-157.5 -58z" />
    <glyph glyph-name="uni01D7" unicode="&#x1d7;" horiz-adv-x="2032" 
d="M1556 2048h556l-218 -1312q-37 -231 -177 -404t-355.5 -264.5t-477.5 -91.5q-264 0 -448 92t-266 264.5t-44 403.5l218 1312h556l-210 -1264q-23 -143 54.5 -235.5t219.5 -92.5q144 0 251.5 92.5t130.5 235.5zM1134 2712l330 386h452l-410 -386h-372zM1562 2176
q-106 0 -170 70t-47 168q14 76 81 128t151 52q103 0 164.5 -70t44.5 -168q-11 -75 -77 -127.5t-147 -52.5zM968 2176q-106 0 -170 70t-47 168q14 76 80.5 128t151.5 52q103 0 164.5 -70t44.5 -168q-11 -75 -77 -127.5t-147 -52.5z" />
    <glyph glyph-name="uni01D8" unicode="&#x1d8;" horiz-adv-x="1828" 
d="M1120 672l144 864h552l-256 -1536h-524l48 292h-16q-71 -146 -211 -229t-313 -83q-240 0 -361 161t-79 415l164 980h552l-144 -864q-17 -115 29.5 -179.5t150.5 -64.5t175.5 65.5t88.5 178.5zM976 2240l268 448h472l-376 -448h-364zM788 1716q-114 0 -182 78t-50 186
q15 84 86.5 142t161.5 58q111 0 176.5 -78t47.5 -186q-12 -84 -82.5 -142t-157.5 -58zM1424 1716q-114 0 -182 78t-50 186q15 84 86.5 142t161.5 58q111 0 176.5 -78t47.5 -186q-12 -84 -82.5 -142t-157.5 -58z" />
    <glyph glyph-name="uni01D9" unicode="&#x1d9;" horiz-adv-x="2032" 
d="M1556 2048h556l-218 -1312q-37 -231 -177 -404t-355.5 -264.5t-477.5 -91.5q-264 0 -448 92t-266 264.5t-44 403.5l218 1312h556l-210 -1264q-23 -143 54.5 -235.5t219.5 -92.5q144 0 251.5 92.5t130.5 235.5zM1210 2976l152 -140l200 140h440l-4 -20l-484 -328h-372
l-380 336l4 12h444zM1366 2440q11 70 80 119t164 49q90 0 144 -48t44 -120q-13 -74 -83.5 -123t-160.5 -49q-96 0 -149 49.5t-39 122.5zM778 2440q11 70 79.5 119t160.5 49q94 0 146.5 -49t41.5 -119q-13 -75 -82 -123.5t-162 -48.5q-91 0 -144 49t-40 123z" />
    <glyph glyph-name="uni01DA" unicode="&#x1da;" horiz-adv-x="1828" 
d="M1120 672l144 864h552l-256 -1536h-524l48 292h-16q-71 -146 -211 -229t-313 -83q-240 0 -361 161t-79 415l164 980h552l-144 -864q-17 -115 29.5 -179.5t150.5 -64.5t175.5 65.5t88.5 178.5zM1000 2584l188 -164l240 164h436v-16l-548 -392h-336l-424 396v12h444z
M488 1892q11 80 87.5 138t168.5 58t149.5 -57.5t46.5 -138.5q-16 -83 -92.5 -139.5t-167.5 -56.5q-92 0 -150 58t-42 138zM1256 1892q11 80 87.5 138t168.5 58t149.5 -57.5t46.5 -138.5q-16 -81 -92 -138.5t-168 -57.5t-150 58t-42 138z" />
    <glyph glyph-name="uni01DB" unicode="&#x1db;" horiz-adv-x="2032" 
d="M1556 2048h556l-218 -1312q-37 -231 -177 -404t-355.5 -264.5t-477.5 -91.5q-264 0 -448 92t-266 264.5t-44 403.5l218 1312h556l-210 -1264q-23 -143 54.5 -235.5t219.5 -92.5q144 0 251.5 92.5t130.5 235.5zM1362 2440q13 72 84 120t160 48q96 0 148.5 -49t39.5 -119
q-11 -73 -79.5 -122.5t-164.5 -49.5q-90 0 -144.5 49t-43.5 123zM774 2440q14 70 83 119t157 49q96 0 150.5 -49t41.5 -119q-10 -74 -81.5 -123t-166.5 -49q-89 0 -142 49t-42 123zM1322 2860l144 -232h-256l-216 232h328z" />
    <glyph glyph-name="uni01DC" unicode="&#x1dc;" horiz-adv-x="1828" 
d="M1120 672l144 864h552l-256 -1536h-524l48 292h-16q-71 -146 -211 -229t-313 -83q-240 0 -361 161t-79 415l164 980h552l-144 -864q-17 -115 29.5 -179.5t150.5 -64.5t175.5 65.5t88.5 178.5zM1164 2584l216 -440h-416l-340 440h540zM1252 1892q12 82 90 139t170 57
q90 0 147 -57.5t45 -138.5q-15 -81 -90.5 -138.5t-165.5 -57.5q-94 0 -152.5 58t-43.5 138zM484 1892q12 80 88.5 138t167.5 58q93 0 150.5 -57.5t45.5 -138.5q-15 -81 -91 -138.5t-169 -57.5q-91 0 -149 58t-43 138z" />
    <glyph glyph-name="uni01DD" unicode="&#x1dd;" horiz-adv-x="1712" 
d="M968 1564q370 0 546.5 -210.5t113.5 -581.5q-60 -358 -308 -575t-604 -217q-349 0 -520.5 211.5t-111.5 576.5l20 128h1000l4 24q18 114 -39 185t-177 71q-86 0 -155.5 -35.5t-104.5 -100.5h-504q82 243 302.5 383.5t537.5 140.5zM1046 592h-482q-15 -99 41.5 -161.5
t158.5 -62.5q101 0 180 62t102 162z" />
    <glyph glyph-name="uni01DE" unicode="&#x1de;" horiz-adv-x="2240" 
d="M536 0h-600l1016 2048h760l336 -2048h-600l-53 392h-675zM2006 3072l-40 -252h-1004l40 252h1004zM1080 2228q-114 0 -182 78t-50 186q15 84 86.5 142t161.5 58q111 0 176.5 -78t47.5 -186q-12 -84 -82.5 -142t-157.5 -58zM1716 2228q-114 0 -182 78t-50 186
q15 84 86.5 142t161.5 58q111 0 176.5 -78t47.5 -186q-12 -84 -82.5 -142t-157.5 -58zM915 808h424l-91 676h-16z" />
    <glyph glyph-name="uni01DF" unicode="&#x1df;" horiz-adv-x="1664" 
d="M436 -24q-228 0 -345 114t-79 334q16 98 58 177t100.5 133t137 92t164 58.5t184.5 27.5q202 16 285 44t95 92v4q9 59 -30.5 91.5t-113.5 32.5q-81 0 -136.5 -35t-75.5 -105h-508q19 85 62 161.5t112 142.5t158.5 114t207 75t252.5 27q160 0 287.5 -39t206.5 -106.5
t113.5 -160t16.5 -198.5l-176 -1052h-516l36 216h-12q-167 -240 -484 -240zM1646 2560l-40 -252h-1004l40 252h1004zM720 1716q-114 0 -182 78t-50 186q15 84 86.5 142t161.5 58q111 0 176.5 -78t47.5 -186q-12 -84 -82.5 -142t-157.5 -58zM1356 1716q-114 0 -182 78
t-50 186q15 84 86.5 142t161.5 58q111 0 176.5 -78t47.5 -186q-12 -84 -82.5 -142t-157.5 -58zM676 324q99 0 181 60t99 160l20 128q-67 -27 -228 -56q-96 -15 -149.5 -56.5t-62.5 -103.5t29 -97t111 -35z" />
    <glyph glyph-name="uni01E0" unicode="&#x1e0;" horiz-adv-x="2240" 
d="M536 0h-600l1016 2048h760l336 -2048h-600l-53 392h-675zM2010 3072l-40 -252h-1004l40 252h1004zM1369 2227q-101 0 -162.5 68.5t-45.5 163.5q16 97 98 164.5t183 67.5t161 -67.5t46 -164.5q-15 -95 -97.5 -163.5t-182.5 -68.5zM915 808h424l-91 676h-16z" />
    <glyph glyph-name="uni01E1" unicode="&#x1e1;" horiz-adv-x="1664" 
d="M436 -24q-228 0 -345 114t-79 334q16 98 58 177t100.5 133t137 92t164 58.5t184.5 27.5q202 16 285 44t95 92v4q9 59 -30.5 91.5t-113.5 32.5q-81 0 -136.5 -35t-75.5 -105h-508q19 85 62 161.5t112 142.5t158.5 114t207 75t252.5 27q160 0 287.5 -39t206.5 -106.5
t113.5 -160t16.5 -198.5l-176 -1052h-516l36 216h-12q-167 -240 -484 -240zM1610 2548l-40 -252h-1004l40 252h1004zM969 1703q-101 0 -162.5 68.5t-45.5 163.5q16 97 98 164.5t183 67.5t161 -67.5t46 -164.5q-15 -95 -97.5 -163.5t-182.5 -68.5zM676 324q99 0 181 60
t99 160l20 128q-67 -27 -228 -56q-96 -15 -149.5 -56.5t-62.5 -103.5t29 -97t111 -35z" />
    <glyph glyph-name="uni01E2" unicode="&#x1e2;" horiz-adv-x="2976" 
d="M-64 0l1140 2048h1968l-76 -448h-920l-56 -352h844l-76 -448h-844l-56 -352h916l-76 -448h-1472l66 392h-538l-208 -392h-612zM2656 2560l-40 -252h-1004l40 252h1004zM977 808h386l113 676h-140z" />
    <glyph glyph-name="uni01E3" unicode="&#x1e3;" horiz-adv-x="2552" 
d="M1628 -28q-182 0 -317 65t-190 195h-5q-89 -124 -264 -190t-376 -66q-258 0 -380 112.5t-84 335.5q16 98 58 177t100.5 133t137 92t164 58.5t184.5 27.5q204 15 286 43.5t94 92.5v4q9 59 -30.5 91.5t-113.5 32.5q-81 0 -136.5 -35t-75.5 -105h-508q26 108 88.5 200
t159.5 164.5t240 114t316 41.5q276 0 365 -171q203 171 495 171q349 0 520.5 -211.5t111.5 -576.5l-20 -128h-1000l-4 -24q-18 -114 39 -185t177 -71q86 0 155.5 35.5t104.5 100.5h504q-81 -239 -298.5 -381.5t-497.5 -142.5zM1964 2048l-40 -252h-1004l40 252h1004z
M676 324q99 0 181 60t99 160l20 128q-67 -27 -228 -56q-96 -15 -149.5 -56.5t-62.5 -103.5t29 -97t111 -35zM1496 944h492q15 98 -43 161t-161 63t-185 -63t-103 -161z" />
    <glyph glyph-name="uni01E4" unicode="&#x1e4;" horiz-adv-x="2176" 
d="M2100 688l-20 -124h-106q-130 -281 -390 -436.5t-588 -155.5q-297 0 -503 126t-293 364.5t-34 557.5q41 247 153 449t270 333.5t351.5 202.5t401.5 71q239 0 422 -90t278 -250.5t82 -363.5h-562q-16 220 -268 220q-213 0 -362 -150t-192 -414q-46 -275 36 -423.5
t294 -148.5q218 0 337 108h-299l20 124h364q9 26 16 60h-370l64 396h908l-46 -284q-15 -89 -42 -172h78z" />
    <glyph glyph-name="uni01E5" unicode="&#x1e5;" horiz-adv-x="1828" 
d="M656 -608q-339 0 -515 140t-157 368h532q5 -136 216 -136q252 0 284 240l44 260h-16q-62 -116 -188 -180t-284 -64q-101 0 -184.5 26.5t-151.5 83.5t-107.5 145t-52 211t15.5 282q27 162 82.5 295t127.5 223t159.5 152t178.5 90t184 28q161 0 258 -80.5t126 -207.5h12
l44 268h552l-100 -596h256l-52 -296h-253l-107 -640q-29 -193 -152.5 -332t-316 -209.5t-435.5 -70.5zM840 412q91 0 162 60.5t111 171.5h-269l52 296h254q-12 93 -60.5 142.5t-129.5 49.5q-114 0 -193.5 -96.5t-106.5 -267.5t19.5 -263.5t160.5 -92.5z" />
    <glyph glyph-name="uni01E6" unicode="&#x1e6;" horiz-adv-x="2176" 
d="M1562 1372q-16 220 -268 220q-213 0 -362 -150t-192 -414q-46 -275 36 -423.5t294 -148.5q185 0 299 78t139 214h-370l64 396h908l-46 -284q-46 -274 -198 -477t-376.5 -307t-493.5 -104q-297 0 -503 126t-293 364.5t-34 557.5q41 247 153 449t270 333.5t351.5 202.5
t401.5 71q239 0 422 -90t278 -250.5t82 -363.5h-562zM1230 2700l160 -220l232 220h456l-2 -12l-534 -456h-384l-386 456l2 12h456z" />
    <glyph glyph-name="uni01E7" unicode="&#x1e7;" horiz-adv-x="1828" 
d="M656 -608q-339 0 -515 140t-157 368h532q5 -136 216 -136q252 0 284 240l44 260h-16q-62 -116 -188 -180t-284 -64q-101 0 -184.5 26.5t-151.5 83.5t-107.5 145t-52 211t15.5 282q27 162 82.5 295t127.5 223t159.5 152t178.5 90t184 28q161 0 258 -80.5t126 -207.5h12
l44 268h552l-256 -1532q-29 -193 -152.5 -332t-316 -209.5t-435.5 -70.5zM916 2188l160 -220l232 220h456l-2 -12l-534 -456h-384l-386 456l2 12h456zM840 412q115 0 196 94.5t108 261.5q27 171 -21.5 267.5t-162.5 96.5t-193.5 -96.5t-106.5 -267.5t19.5 -263.5
t160.5 -92.5z" />
    <glyph glyph-name="uni01E8" unicode="&#x1e8;" horiz-adv-x="2012" 
d="M4 0l340 2048h556l-136 -828h28l752 828h648l-840 -912l516 -1136h-664l-328 768l-228 -244l-88 -524h-556zM1120 2700l160 -220l232 220h456l-2 -12l-534 -456h-384l-386 456l2 12h456z" />
    <glyph glyph-name="uni01E9" unicode="&#x1e9;" horiz-adv-x="1708" 
d="M12 0l340 2048h552l-171 -1028h19l460 516h620l-633 -674l393 -862h-632l-224 540l-100 -105l-72 -435h-552zM540 2700l160 -220l232 220h456l-2 -12l-534 -456h-384l-386 456l2 12h456z" />
    <glyph glyph-name="uni01EA" unicode="&#x1ea;" horiz-adv-x="2240" 
d="M2152 988q-36 -214 -122.5 -391t-210.5 -300.5t-275.5 -201.5t-324.5 -107q-76 -27 -116.5 -59.5t-46.5 -80.5q-9 -50 11 -77t61 -27q21 0 53 8t35 8l24 -248q-122 -60 -252 -60q-138 0 -222.5 69t-101.5 195q-11 73 3.5 152t49.5 144q-152 44 -267.5 132t-190.5 219.5
t-98 304t11 384.5q40 245 146.5 441t258.5 322.5t339 193.5t392 67q172 0 318.5 -46t259 -135.5t184.5 -221t94 -303.5t-12 -382zM1592 1052q42 266 -34 403t-270 137q-221 0 -366 -159t-190 -445q-47 -264 33 -398t275 -134q218 0 361 155t191 441z" />
    <glyph glyph-name="uni01EB" unicode="&#x1eb;" horiz-adv-x="1760" 
d="M688 -556q-138 0 -222.5 69t-101.5 195q-12 80 6.5 165.5t59.5 152.5q-210 82 -300.5 276t-45.5 462q29 176 107.5 322.5t196.5 250.5t278 161.5t346 57.5q184 0 324 -57.5t224 -161.5t114.5 -250.5t1.5 -322.5q-51 -306 -243 -512t-484 -262q-92 -30 -139 -63.5
t-54 -86.5q-9 -50 11 -77t61 -27q21 0 53 8t35 8l24 -248q-122 -60 -252 -60zM816 380q107 0 186.5 104t109.5 284q29 181 -15.5 284.5t-152.5 103.5t-187.5 -104t-108.5 -284q-30 -181 14.5 -284.5t153.5 -103.5z" />
    <glyph glyph-name="uni01EC" unicode="&#x1ec;" horiz-adv-x="2240" 
d="M2152 988q-36 -214 -122.5 -391t-210.5 -300.5t-275.5 -201.5t-324.5 -107q-76 -27 -116.5 -59.5t-46.5 -80.5q-9 -50 11 -77t61 -27q21 0 53 8t35 8l24 -248q-122 -60 -252 -60q-138 0 -222.5 69t-101.5 195q-11 73 3.5 152t49.5 144q-152 44 -267.5 132t-190.5 219.5
t-98 304t11 384.5q40 245 146.5 441t258.5 322.5t339 193.5t392 67q172 0 318.5 -46t259 -135.5t184.5 -221t94 -303.5t-12 -382zM1592 1052q42 266 -34 403t-270 137q-221 0 -366 -159t-190 -445q-47 -264 33 -398t275 -134q218 0 361 155t191 441zM1916 2560l-40 -252
h-1004l40 252h1004z" />
    <glyph glyph-name="uni01ED" unicode="&#x1ed;" horiz-adv-x="1760" 
d="M688 -556q-138 0 -222.5 69t-101.5 195q-12 80 6.5 165.5t59.5 152.5q-210 82 -300.5 276t-45.5 462q29 176 107.5 322.5t196.5 250.5t278 161.5t346 57.5q184 0 324 -57.5t224 -161.5t114.5 -250.5t1.5 -322.5q-51 -306 -243 -512t-484 -262q-92 -30 -139 -63.5
t-54 -86.5q-9 -50 11 -77t61 -27q21 0 53 8t35 8l24 -248q-122 -60 -252 -60zM816 380q107 0 186.5 104t109.5 284q29 181 -15.5 284.5t-152.5 103.5t-187.5 -104t-108.5 -284q-30 -181 14.5 -284.5t153.5 -103.5zM1588 2048l-40 -252h-1004l40 252h1004z" />
    <glyph glyph-name="uni01EE" unicode="&#x1ee;" horiz-adv-x="1940" 
d="M-24 188h560q-19 -150 56 -243t212 -93q157 0 265.5 122t140.5 320q35 214 -45.5 340t-242.5 126h-268l64 384l568 432l2 16h-968l76 456h1636l-66 -400l-718 -540l-4 -20q304 -34 454.5 -247.5t97.5 -536.5q-43 -261 -194.5 -469.5t-378.5 -325.5t-487 -117
q-189 0 -343.5 60t-254.5 164.5t-144 252.5t-18 319zM1092 2700l160 -220l232 220h456l-2 -12l-534 -456h-384l-386 456l2 12h456z" />
    <glyph glyph-name="uni01EF" unicode="&#x1ef;" horiz-adv-x="1900" 
d="M-4 112h560q-12 -90 57 -147t187 -57q117 0 197 61.5t99 154.5q15 100 -56.5 156t-203.5 56h-260l64 368l480 376v12h-856l72 444h1516l-68 -400l-632 -484v-16q86 -11 159 -32t127 -49t96.5 -62t70 -74t46 -81.5t25.5 -86.5t7 -88t-7 -87q-31 -182 -167 -323.5
t-341 -217t-444 -75.5q-149 0 -274.5 31t-217 89t-151 138t-81.5 180.5t-4 213.5zM984 2188l160 -220l232 220h456l-2 -12l-534 -456h-384l-386 456l2 12h456z" />
    <glyph glyph-name="uni01F0" unicode="&#x1f0;" horiz-adv-x="832" 
d="M268 1536h552l-266 -1588q-20 -119 -67.5 -209t-114.5 -149.5t-159 -97t-195.5 -53t-229.5 -15.5q-53 0 -106 4l68 408q31 -4 64 -4q96 0 138 30t54 98zM452 2188l160 -220l232 220h456l-2 -12l-534 -456h-384l-386 456l2 12h456z" />
    <glyph glyph-name="uni01F1" unicode="&#x1f1;" horiz-adv-x="4020" 
d="M804 0h-800l340 2048h768q314 0 527.5 -126.5t301.5 -364.5t35 -561q-78 -469 -390 -732.5t-782 -263.5zM2076 0l52 308l1184 1292h-968l76 448h1672l-52 -308l-1184 -1292h968l-76 -448h-1672zM638 472h202q118 0 210.5 29.5t169.5 95t129.5 179.5t78.5 276
q15 89 16 160t-9.5 125.5t-35 95t-58.5 68t-82.5 44.5t-104 24t-126.5 7h-206z" />
    <glyph glyph-name="uni01F2" unicode="&#x1f2;" horiz-adv-x="3740" 
d="M804 0h-800l340 2048h768q314 0 527.5 -126.5t301.5 -364.5t35 -561q-78 -469 -390 -732.5t-782 -263.5zM2096 0l48 304l804 804l4 8h-648l72 420h1300l-52 -336l-740 -772l-4 -8h636l-68 -420h-1352zM638 472h202q118 0 210.5 29.5t169.5 95t129.5 179.5t78.5 276
q15 89 16 160t-9.5 125.5t-35 95t-58.5 68t-82.5 44.5t-104 24t-126.5 7h-206z" />
    <glyph glyph-name="uni01F3" unicode="&#x1f3;" horiz-adv-x="3264" 
d="M566 -20q-125 0 -225 48.5t-168.5 146t-90 245.5t9.5 348q27 162 82 295t127 223t159.5 152t178 90t183.5 28q162 0 259 -81t125 -207h8l130 780h552l-340 -2048h-548l42 252h-12q-71 -123 -194 -197.5t-278 -74.5zM1620 0l48 304l804 804l4 8h-648l72 420h1300l-52 -336
l-740 -772l-4 -8h636l-68 -420h-1352zM840 404q113 0 194.5 98t109.5 266q28 171 -21 267.5t-163 96.5t-193 -96.5t-107 -267.5q-29 -172 18.5 -268t161.5 -96z" />
    <glyph glyph-name="uni01F4" unicode="&#x1f4;" horiz-adv-x="2176" 
d="M1562 1372q-16 220 -268 220q-213 0 -362 -150t-192 -414q-46 -275 36 -423.5t294 -148.5q185 0 299 78t139 214h-370l64 396h908l-46 -284q-46 -274 -198 -477t-376.5 -307t-493.5 -104q-297 0 -503 126t-293 364.5t-34 557.5q41 247 153 449t270 333.5t351.5 202.5
t401.5 71q239 0 422 -90t278 -250.5t82 -363.5h-562zM1166 2240l268 448h472l-376 -448h-364z" />
    <glyph glyph-name="uni01F5" unicode="&#x1f5;" horiz-adv-x="1828" 
d="M656 -608q-339 0 -515 140t-157 368h532q5 -136 216 -136q252 0 284 240l44 260h-16q-62 -116 -188 -180t-284 -64q-101 0 -184.5 26.5t-151.5 83.5t-107.5 145t-52 211t15.5 282q27 162 82.5 295t127.5 223t159.5 152t178.5 90t184 28q161 0 258 -80.5t126 -207.5h12
l44 268h552l-256 -1532q-29 -193 -152.5 -332t-316 -209.5t-435.5 -70.5zM840 412q115 0 196 94.5t108 261.5q27 171 -21.5 267.5t-162.5 96.5t-193.5 -96.5t-106.5 -267.5t19.5 -263.5t160.5 -92.5zM852 1728l268 448h472l-376 -448h-364z" />
    <glyph glyph-name="uni01F6" unicode="&#x1f6;" horiz-adv-x="3180" 
d="M2100 -28q-375 0 -558 199.5t-126 544.5l12 84h-736l-132 -800h-556l340 2048h556l-132 -800h736l132 800h556l-220 -1332q-24 -134 31 -211t173 -77q117 0 196.5 76.5t103.5 211.5l124 752h556l-124 -752q-57 -346 -306 -545t-626 -199z" />
    <glyph glyph-name="uni01F7" unicode="&#x1f7;" horiz-adv-x="2324" 
d="M1024 2044l-7 -41q159 69 365 69q189 0 343.5 -63.5t256 -183.5t137 -294t-12.5 -395l-16 -72q-183 -820 -1431 -1252l-63 -388h-532l428 2620h532zM733 263q359 151 554 342.5t251 458.5l16 76q107 504 -238 504q-193 0 -378 -128z" />
    <glyph glyph-name="uni01F8" unicode="&#x1f8;" horiz-adv-x="2036" 
d="M2116 2048l-340 -2048h-464l-560 1076h-12l-180 -1076h-556l340 2048h472l552 -1072h16l176 1072h556zM1088 2240l-228 448h472l120 -448h-364z" />
    <glyph glyph-name="uni01F9" unicode="&#x1f9;" horiz-adv-x="1820" 
d="M712 864l-144 -864h-552l256 1536h524l-48 -292h16q72 146 212.5 229t311.5 83q160 0 270.5 -74t154 -204.5t15.5 -297.5l-164 -980h-552l144 864q19 115 -28 179.5t-152 64.5q-102 0 -173.5 -65.5t-90.5 -178.5zM896 1728l-228 448h472l120 -448h-364z" />
    <glyph glyph-name="uni01FA" unicode="&#x1fa;" horiz-adv-x="2240" 
d="M536 0h-600l1016 2048h760l336 -2048h-600l-53 392h-675zM1350 2174q-132 0 -210 86t-58 207q20 122 128 207.5t240 85.5q136 0 216.5 -86t55.5 -207q-24 -121 -132.5 -207t-239.5 -86zM915 808h424l-91 676h-16zM1320 2864l254 316h424l-354 -316h-324zM1382 2353
q52 0 97 34t51 80q6 49 -26 81.5t-86 32.5q-51 0 -92.5 -33t-51.5 -81q-9 -46 22.5 -80t85.5 -34z" />
    <glyph glyph-name="uni01FB" unicode="&#x1fb;" horiz-adv-x="1664" 
d="M436 -24q-228 0 -345 114t-79 334q16 98 58 177t100.5 133t137 92t164 58.5t184.5 27.5q202 16 285 44t95 92v4q9 59 -30.5 91.5t-113.5 32.5q-81 0 -136.5 -35t-75.5 -105h-508q19 85 62 161.5t112 142.5t158.5 114t207 75t252.5 27q160 0 287.5 -39t206.5 -106.5
t113.5 -160t16.5 -198.5l-176 -1052h-516l36 216h-12q-167 -240 -484 -240zM990 1662q-132 0 -210 86t-58 207q20 122 128 207.5t240 85.5q136 0 216.5 -86t55.5 -207q-24 -121 -132.5 -207t-239.5 -86zM960 2352l254 316h424l-354 -316h-324zM676 324q99 0 181 60t99 160
l20 128q-67 -27 -228 -56q-96 -15 -149.5 -56.5t-62.5 -103.5t29 -97t111 -35zM1022 1841q52 0 97 34t51 80q6 49 -26 81.5t-86 32.5q-51 0 -92.5 -33t-51.5 -81q-9 -46 22.5 -80t85.5 -34z" />
    <glyph glyph-name="uni01FC" unicode="&#x1fc;" horiz-adv-x="2976" 
d="M-64 0l1140 2048h1968l-76 -448h-920l-56 -352h844l-76 -448h-844l-56 -352h916l-76 -448h-1472l66 392h-538l-208 -392h-612zM1920 2240l268 448h472l-376 -448h-364zM977 808h386l113 676h-140z" />
    <glyph glyph-name="uni01FD" unicode="&#x1fd;" horiz-adv-x="2552" 
d="M1628 -28q-182 0 -317 65t-190 195h-5q-89 -124 -264 -190t-376 -66q-258 0 -380 112.5t-84 335.5q16 98 58 177t100.5 133t137 92t164 58.5t184.5 27.5q204 15 286 43.5t94 92.5v4q9 59 -30.5 91.5t-113.5 32.5q-81 0 -136.5 -35t-75.5 -105h-508q26 108 88.5 200
t159.5 164.5t240 114t316 41.5q276 0 365 -171q203 171 495 171q349 0 520.5 -211.5t111.5 -576.5l-20 -128h-1000l-4 -24q-18 -114 39 -185t177 -71q86 0 155.5 35.5t104.5 100.5h504q-81 -239 -298.5 -381.5t-497.5 -142.5zM1228 1728l268 448h472l-376 -448h-364z
M676 324q99 0 181 60t99 160l20 128q-67 -27 -228 -56q-96 -15 -149.5 -56.5t-62.5 -103.5t29 -97t111 -35zM1496 944h492q15 98 -43 161t-161 63t-185 -63t-103 -161z" />
    <glyph glyph-name="uni01FE" unicode="&#x1fe;" horiz-adv-x="2240" 
d="M340 -108l-200 152l189 216q-115 141 -157 341t0 451q40 245 146.5 441t258.5 322.5t339 193.5t392 67q290 0 499 -127l177 203l200 -152l-188 -215q114 -142 156 -343.5t0 -453.5q-33 -196 -109 -361.5t-182.5 -285t-240.5 -203.5t-285.5 -125t-314.5 -41
q-292 0 -501 125zM723 710l737 843q-69 39 -172 39q-221 0 -366 -159t-190 -445q-29 -160 -9 -278zM1592 1052q26 167 7 279l-733 -838q71 -37 174 -37q218 0 361 155t191 441zM1180 2240l268 448h472l-376 -448h-364z" />
    <glyph glyph-name="uni01FF" unicode="&#x1ff;" horiz-adv-x="1760" 
d="M284 -108l-200 152l122 139q-183 214 -122 581q29 176 107.5 322.5t196.5 250.5t278 161.5t346 57.5q194 0 338 -63l122 139l200 -152l-119 -136q182 -215 123 -580q-60 -359 -309 -575.5t-619 -216.5q-193 0 -339 63zM852 1728l268 448h472l-376 -448h-364zM637 677
l397 454q-39 25 -90 25q-108 0 -187.5 -104t-108.5 -284q-8 -54 -11 -91zM816 380q107 0 186.5 104t109.5 284q7 39 10 82l-392 -448q38 -22 86 -22z" />
    <glyph glyph-name="uni0200" unicode="&#x200;" horiz-adv-x="2240" 
d="M536 0h-600l1016 2048h760l336 -2048h-600l-53 392h-675zM930 2240l-224 448h472l116 -448h-364zM1472 2240l-118 448h446l26 -448h-354zM915 808h424l-91 676h-16z" />
    <glyph glyph-name="uni0201" unicode="&#x201;" horiz-adv-x="1664" 
d="M436 -24q-228 0 -345 114t-79 334q16 98 58 177t100.5 133t137 92t164 58.5t184.5 27.5q202 16 285 44t95 92v4q9 59 -30.5 91.5t-113.5 32.5q-81 0 -136.5 -35t-75.5 -105h-508q19 85 62 161.5t112 142.5t158.5 114t207 75t252.5 27q160 0 287.5 -39t206.5 -106.5
t113.5 -160t16.5 -198.5l-176 -1052h-516l36 216h-12q-167 -240 -484 -240zM570 1728l-224 448h472l116 -448h-364zM1112 1728l-118 448h446l26 -448h-354zM676 324q99 0 181 60t99 160l20 128q-67 -27 -228 -56q-96 -15 -149.5 -56.5t-62.5 -103.5t29 -97t111 -35z" />
    <glyph glyph-name="uni0202" unicode="&#x202;" horiz-adv-x="2240" 
d="M536 0h-600l1016 2048h760l336 -2048h-600l-53 392h-675zM824 2288q32 197 200.5 320.5t419.5 123.5q249 0 380.5 -123.5t99.5 -320.5h-348q8 71 -33 117.5t-143 46.5q-103 0 -161.5 -47.5t-66.5 -116.5h-348zM915 808h424l-91 676h-16z" />
    <glyph glyph-name="uni0203" unicode="&#x203;" horiz-adv-x="1664" 
d="M436 -24q-228 0 -345 114t-79 334q16 98 58 177t100.5 133t137 92t164 58.5t184.5 27.5q202 16 285 44t95 92v4q9 59 -30.5 91.5t-113.5 32.5q-81 0 -136.5 -35t-75.5 -105h-508q19 85 62 161.5t112 142.5t158.5 114t207 75t252.5 27q160 0 287.5 -39t206.5 -106.5
t113.5 -160t16.5 -198.5l-176 -1052h-516l36 216h-12q-167 -240 -484 -240zM464 1776q32 197 200.5 320.5t419.5 123.5q249 0 380.5 -123.5t99.5 -320.5h-348q8 71 -33 117.5t-143 46.5q-103 0 -161.5 -47.5t-66.5 -116.5h-348zM676 324q99 0 181 60t99 160l20 128
q-67 -27 -228 -56q-96 -15 -149.5 -56.5t-62.5 -103.5t29 -97t111 -35z" />
    <glyph glyph-name="uni0204" unicode="&#x204;" horiz-adv-x="1752" 
d="M4 0l340 2048h1476l-76 -448h-920l-56 -352h844l-76 -448h-844l-56 -352h916l-76 -448h-1472zM686 2240l-224 448h472l116 -448h-364zM1228 2240l-118 448h446l26 -448h-354z" />
    <glyph glyph-name="uni0205" unicode="&#x205;" horiz-adv-x="1712" 
d="M744 -28q-370 0 -546.5 210.5t-113.5 581.5q60 358 308 575t604 217q349 0 520.5 -211.5t111.5 -576.5l-20 -128h-999l-5 -24q-18 -114 39 -185t177 -71q86 0 155.5 35.5t104.5 100.5h504q-82 -243 -302.5 -383.5t-537.5 -140.5zM578 1728l-224 448h472l116 -448h-364z
M1120 1728l-118 448h446l26 -448h-354zM666 944h482q15 99 -41.5 161.5t-158.5 62.5q-101 0 -180 -62t-102 -162z" />
    <glyph glyph-name="uni0206" unicode="&#x206;" horiz-adv-x="1752" 
d="M4 0l340 2048h1476l-76 -448h-920l-56 -352h844l-76 -448h-844l-56 -352h916l-76 -448h-1472zM580 2288q32 197 200.5 320.5t419.5 123.5q249 0 380.5 -123.5t99.5 -320.5h-348q8 71 -33 117.5t-143 46.5q-103 0 -161.5 -47.5t-66.5 -116.5h-348z" />
    <glyph glyph-name="uni0207" unicode="&#x207;" horiz-adv-x="1712" 
d="M744 -28q-370 0 -546.5 210.5t-113.5 581.5q60 358 308 575t604 217q349 0 520.5 -211.5t111.5 -576.5l-20 -128h-999l-5 -24q-18 -114 39 -185t177 -71q86 0 155.5 35.5t104.5 100.5h504q-82 -243 -302.5 -383.5t-537.5 -140.5zM472 1776q32 197 200.5 320.5
t419.5 123.5q249 0 380.5 -123.5t99.5 -320.5h-348q8 71 -33 117.5t-143 46.5q-103 0 -161.5 -47.5t-66.5 -116.5h-348zM666 944h482q15 99 -41.5 161.5t-158.5 62.5q-101 0 -180 -62t-102 -162z" />
    <glyph glyph-name="uni0208" unicode="&#x208;" horiz-adv-x="820" 
d="M900 2048l-340 -2048h-556l340 2048h556zM222 2240l-224 448h472l116 -448h-364zM764 2240l-118 448h446l26 -448h-354z" />
    <glyph glyph-name="uni0209" unicode="&#x209;" horiz-adv-x="832" 
d="M12 0l256 1536h552l-256 -1536h-552zM138 1728l-224 448h472l116 -448h-364zM680 1728l-118 448h446l26 -448h-354z" />
    <glyph glyph-name="uni020A" unicode="&#x20a;" horiz-adv-x="820" 
d="M900 2048l-340 -2048h-556l340 2048h556zM116 2288q32 197 200.5 320.5t419.5 123.5q249 0 380.5 -123.5t99.5 -320.5h-348q8 71 -33 117.5t-143 46.5q-103 0 -161.5 -47.5t-66.5 -116.5h-348z" />
    <glyph glyph-name="uni020B" unicode="&#x20b;" horiz-adv-x="832" 
d="M12 0l256 1536h552l-256 -1536h-552zM32 1776q32 197 200.5 320.5t419.5 123.5q249 0 380.5 -123.5t99.5 -320.5h-348q8 71 -33 117.5t-143 46.5q-103 0 -161.5 -47.5t-66.5 -116.5h-348z" />
    <glyph glyph-name="uni020C" unicode="&#x20c;" horiz-adv-x="2240" 
d="M2152 988q-33 -196 -109 -361.5t-182.5 -285t-240.5 -203.5t-285.5 -125t-314.5 -41q-217 0 -392 72t-291.5 206t-161.5 340.5t-3 461.5q40 245 146.5 441t258.5 322.5t339 193.5t392 67q172 0 318.5 -46t259 -135.5t184.5 -221t94 -303.5t-12 -382zM1592 1052
q42 266 -34 403t-270 137q-221 0 -366 -159t-190 -445q-47 -264 33 -398t275 -134q218 0 361 155t191 441zM930 2240l-224 448h472l116 -448h-364zM1472 2240l-118 448h446l26 -448h-354z" />
    <glyph glyph-name="uni020D" unicode="&#x20d;" horiz-adv-x="1760" 
d="M748 -28q-246 0 -410.5 99.5t-228.5 278t-25 414.5q29 176 107.5 322.5t196.5 250.5t278 161.5t346 57.5q184 0 324 -57.5t224 -161.5t114.5 -250.5t1.5 -322.5q-60 -359 -309 -575.5t-619 -216.5zM816 380q107 0 186.5 104t109.5 284q29 181 -15.5 284.5t-152.5 103.5
t-187.5 -104t-108.5 -284q-30 -181 14.5 -284.5t153.5 -103.5zM602 1728l-224 448h472l116 -448h-364zM1144 1728l-118 448h446l26 -448h-354z" />
    <glyph glyph-name="uni020E" unicode="&#x20e;" horiz-adv-x="2240" 
d="M2152 988q-33 -196 -109 -361.5t-182.5 -285t-240.5 -203.5t-285.5 -125t-314.5 -41q-217 0 -392 72t-291.5 206t-161.5 340.5t-3 461.5q40 245 146.5 441t258.5 322.5t339 193.5t392 67q172 0 318.5 -46t259 -135.5t184.5 -221t94 -303.5t-12 -382zM1592 1052
q42 266 -34 403t-270 137q-221 0 -366 -159t-190 -445q-47 -264 33 -398t275 -134q218 0 361 155t191 441zM824 2288q32 197 200.5 320.5t419.5 123.5q249 0 380.5 -123.5t99.5 -320.5h-348q8 71 -33 117.5t-143 46.5q-103 0 -161.5 -47.5t-66.5 -116.5h-348z" />
    <glyph glyph-name="uni020F" unicode="&#x20f;" horiz-adv-x="1760" 
d="M748 -28q-246 0 -410.5 99.5t-228.5 278t-25 414.5q29 176 107.5 322.5t196.5 250.5t278 161.5t346 57.5q184 0 324 -57.5t224 -161.5t114.5 -250.5t1.5 -322.5q-60 -359 -309 -575.5t-619 -216.5zM496 1776q32 197 200.5 320.5t419.5 123.5q249 0 380.5 -123.5
t99.5 -320.5h-348q8 71 -33 117.5t-143 46.5q-103 0 -161.5 -47.5t-66.5 -116.5h-348zM816 380q107 0 186.5 104t109.5 284q29 181 -15.5 284.5t-152.5 103.5t-187.5 -104t-108.5 -284q-30 -181 14.5 -284.5t153.5 -103.5z" />
    <glyph glyph-name="uni0210" unicode="&#x210;" horiz-adv-x="1908" 
d="M4 0l340 2048h884q346 0 521.5 -186t122.5 -510q-34 -209 -149.5 -358.5t-295.5 -229.5l289 -764h-604l-247 676h-192l-113 -676h-556zM745 1108h195q313 0 352 244q20 129 -50 190.5t-218 61.5h-196zM738 2240l-224 448h472l116 -448h-364zM1280 2240l-118 448h446
l26 -448h-354z" />
    <glyph glyph-name="uni0211" unicode="&#x211;" horiz-adv-x="1220" 
d="M12 0l256 1536h536l-48 -292h16q67 158 170 235t230 77q63 0 136 -20l-80 -472q-73 28 -200 28q-121 0 -214.5 -80.5t-117.5 -211.5l-132 -800h-552zM390 1728l-224 448h472l116 -448h-364zM932 1728l-118 448h446l26 -448h-354z" />
    <glyph glyph-name="uni0212" unicode="&#x212;" horiz-adv-x="1908" 
d="M4 0l340 2048h884q346 0 521.5 -186t122.5 -510q-34 -209 -149.5 -358.5t-295.5 -229.5l289 -764h-604l-247 676h-192l-113 -676h-556zM632 2288q32 197 200.5 320.5t419.5 123.5q249 0 380.5 -123.5t99.5 -320.5h-348q8 71 -33 117.5t-143 46.5q-103 0 -161.5 -47.5
t-66.5 -116.5h-348zM745 1108h195q313 0 352 244q20 129 -50 190.5t-218 61.5h-196z" />
    <glyph glyph-name="uni0213" unicode="&#x213;" horiz-adv-x="1220" 
d="M12 0l256 1536h536l-48 -292h16q67 158 170 235t230 77q63 0 136 -20l-80 -472q-73 28 -200 28q-121 0 -214.5 -80.5t-117.5 -211.5l-132 -800h-552zM284 1776q32 197 200.5 320.5t419.5 123.5q249 0 380.5 -123.5t99.5 -320.5h-348q8 71 -33 117.5t-143 46.5
q-103 0 -161.5 -47.5t-66.5 -116.5h-348z" />
    <glyph glyph-name="uni0214" unicode="&#x214;" horiz-adv-x="2032" 
d="M1556 2048h556l-218 -1312q-37 -231 -177 -404t-355.5 -264.5t-477.5 -91.5q-264 0 -448 92t-266 264.5t-44 403.5l218 1312h556l-210 -1264q-23 -143 54.5 -235.5t219.5 -92.5q144 0 251.5 92.5t130.5 235.5zM824 2240l-224 448h472l116 -448h-364zM1366 2240l-118 448
h446l26 -448h-354z" />
    <glyph glyph-name="uni0215" unicode="&#x215;" horiz-adv-x="1828" 
d="M1120 672l144 864h552l-256 -1536h-524l48 292h-16q-71 -146 -211 -229t-313 -83q-240 0 -361 161t-79 415l164 980h552l-144 -864q-17 -115 29.5 -179.5t150.5 -64.5t175.5 65.5t88.5 178.5zM638 1728l-224 448h472l116 -448h-364zM1180 1728l-118 448h446l26 -448h-354
z" />
    <glyph glyph-name="uni0216" unicode="&#x216;" horiz-adv-x="2032" 
d="M1556 2048h556l-218 -1312q-37 -231 -177 -404t-355.5 -264.5t-477.5 -91.5q-264 0 -448 92t-266 264.5t-44 403.5l218 1312h556l-210 -1264q-23 -143 54.5 -235.5t219.5 -92.5q144 0 251.5 92.5t130.5 235.5zM718 2288q32 197 200.5 320.5t419.5 123.5
q249 0 380.5 -123.5t99.5 -320.5h-348q8 71 -33 117.5t-143 46.5q-103 0 -161.5 -47.5t-66.5 -116.5h-348z" />
    <glyph glyph-name="uni0217" unicode="&#x217;" horiz-adv-x="1828" 
d="M1120 672l144 864h552l-256 -1536h-524l48 292h-16q-71 -146 -211 -229t-313 -83q-240 0 -361 161t-79 415l164 980h552l-144 -864q-17 -115 29.5 -179.5t150.5 -64.5t175.5 65.5t88.5 178.5zM532 1776q32 197 200.5 320.5t419.5 123.5q249 0 380.5 -123.5t99.5 -320.5
h-348q8 71 -33 117.5t-143 46.5q-103 0 -161.5 -47.5t-66.5 -116.5h-348z" />
    <glyph glyph-name="uni0218" unicode="&#x218;" horiz-adv-x="1876" 
d="M1340 1408q9 102 -49.5 157t-190.5 55q-124 0 -191.5 -42t-80.5 -114q-18 -71 42 -118.5t202 -77.5l160 -36q618 -136 536 -628q-51 -301 -297 -464.5t-639 -163.5q-202 0 -355.5 45t-255.5 134.5t-141 232.5t-8 332h528q-18 -140 61 -214t239 -74q131 0 209.5 47
t90.5 125q12 70 -51 117.5t-225 82.5l-196 44q-561 129 -488 576q32 193 161.5 342t331 229.5t443.5 80.5q371 0 559 -182t137 -486h-532zM340 -640l212 478h496l-332 -478h-376z" />
    <glyph glyph-name="uni0219" unicode="&#x219;" horiz-adv-x="1656" 
d="M1584 1036h-496q5 70 -41 111t-119 41q-85 0 -150.5 -37.5t-73.5 -94.5q-6 -27 18 -46t102 -34l304 -56q465 -86 408 -444q-26 -154 -137.5 -269.5t-282 -175t-376.5 -59.5q-356 0 -540 142.5t-168 381.5h536q2 -73 49.5 -111.5t130.5 -40.5q88 -3 154 35t74 97
q3 32 -28 49t-120 35l-264 48q-228 40 -332 164t-72 316q38 227 237 347.5t519 120.5q345 0 522.5 -138.5t145.5 -381.5zM224 -640l212 478h496l-332 -478h-376z" />
    <glyph glyph-name="uni021A" unicode="&#x21a;" horiz-adv-x="1932" 
d="M212 1600l76 448h1780l-76 -448h-616l-264 -1600h-548l264 1600h-616zM356 -640l212 478h496l-332 -478h-376z" />
    <glyph glyph-name="uni021B" unicode="&#x21b;" horiz-adv-x="1140" 
d="M1184 1536l-68 -400h-263l-107 -642q-17 -96 88 -96q16 0 112 16l16 -388q-146 -42 -276 -48q-290 -14 -417.5 104.5t-82.5 359.5l115 694h-197l68 400h195l61 368h552l-61 -368h265zM18 -640l212 478h496l-332 -478h-376z" />
    <glyph glyph-name="uni021C" unicode="&#x21c;" horiz-adv-x="1960" 
d="M284 420l66 404q199 56 336.5 99t248 86.5t177.5 82t114.5 85t70 95t33.5 112.5q24 141 -33.5 202.5t-202.5 61.5q-115 0 -184 -40t-80 -112h-536q28 168 147.5 300t309 206t415.5 74q388 0 574.5 -153t135.5 -463q-53 -322 -317 -535q112 -66 160.5 -177t24.5 -256
q-47 -282 -265 -515t-572 -383.5t-793 -193.5l70 424q442 79 714 259t312 421q14 81 1 126t-57 61q-327 -142 -870 -271z" />
    <glyph glyph-name="uni021D" unicode="&#x21d;" horiz-adv-x="1692" 
d="M264 164l60 368q255 85 399.5 157t215 148t87.5 177q29 166 -132 166q-149 0 -168 -132h-520q39 241 232 374.5t514 133.5q332 0 486.5 -124.5t113.5 -367.5q-40 -245 -259 -434q197 -105 155 -360q-49 -293 -379.5 -512.5t-930.5 -357.5l62 372q391 152 549.5 267
t182.5 259q10 59 -1 105q-268 -126 -667 -239z" />
    <glyph glyph-name="uni021E" unicode="&#x21e;" horiz-adv-x="2112" 
d="M4 0l340 2048h556l-132 -800h736l132 800h556l-340 -2048h-556l132 800h-736l-132 -800h-556zM1180 2700l160 -220l232 220h456l-2 -12l-534 -456h-384l-386 456l2 12h456z" />
    <glyph glyph-name="uni021F" unicode="&#x21f;" horiz-adv-x="1820" 
d="M712 864l-144 -864h-552l340 2048h532l-132 -804h16q75 148 210.5 230t305.5 82q241 0 361.5 -161t78.5 -415l-164 -980h-552l144 864q18 115 -29 179.5t-151 64.5q-103 0 -174.5 -65.5t-89.5 -178.5zM532 2700l160 -220l232 220h456l-2 -12l-534 -456h-384l-386 456
l2 12h456z" />
    <glyph glyph-name="uni0220" unicode="&#x220;" horiz-adv-x="1968" 
d="M1544 -572h-524l340 2068q12 76 -30 124t-164 48q-149 0 -302 -80l-264 -1588h-520l340 2048h520l-8 -50q185 78 380 78q189 0 328.5 -70t206 -203t37.5 -307z" />
    <glyph glyph-name="uni0221" unicode="&#x221;" horiz-adv-x="2016" 
d="M574 -20q-125 0 -225 48.5t-168.5 146t-90 245.5t9.5 348q27 162 82 295t127 223t159.5 152t178 90t183.5 28q162 0 259 -81t125 -207h8l130 780h552l-310 -1869q20 1 62 1q292 0 431 -110.5t109 -293.5q-28 -168 -187 -260t-445 -92q-386 0 -510 184l-322 -200l-156 320
l431 273l41 251h-2q-71 -123 -194 -197.5t-278 -74.5zM848 404q113 0 194.5 98t109.5 266q28 171 -21 267.5t-163 96.5t-193 -96.5t-107 -267.5q-29 -172 18.5 -268t161.5 -96zM1539 -124l-7 -44q-16 -120 96 -120q46 0 82.5 22.5t41.5 57.5q7 46 -27 75t-113 25
q-26 -1 -73 -16z" />
    <glyph glyph-name="uni0222" unicode="&#x222;" horiz-adv-x="1964" 
d="M1066 1372h28q142 0 207 33.5t79 126.5q8 57 -10.5 87.5t-71.5 40.5l68 416q309 7 456.5 -139t105.5 -405q-41 -257 -276 -394q177 -169 126 -470q-54 -317 -302 -506.5t-610 -189.5h-28q-366 0 -553.5 188.5t-136.5 503.5q50 306 284 474q-182 134 -140 394
q42 261 235.5 405.5t502.5 138.5l-68 -416q-58 -10 -85.5 -39.5t-36.5 -88.5q-15 -96 35 -128t191 -32zM1026 940h-28q-117 0 -198.5 -75t-103.5 -201q-21 -122 37 -197t175 -75h28q115 0 194.5 73.5t99.5 202.5q20 126 -35 199t-169 73z" />
    <glyph glyph-name="uni0223" unicode="&#x223;" horiz-adv-x="1960" 
d="M1084 1328q147 0 221 56t95 176q11 78 -17 124t-75 56l68 400q144 2 253.5 -32.5t181 -104t98.5 -179t3 -252.5q-50 -303 -277 -453q177 -159 125 -467q-35 -214 -161 -369t-315 -233t-420 -78h-28q-233 0 -397 78t-239 233t-40 369q52 307 281 467q-179 151 -129 453
q47 280 240.5 425.5t487.5 142.5l-68 -400q-48 -10 -88.5 -56t-51.5 -124q-21 -122 31 -177t197 -55h24zM1020 916h-28q-128 0 -210.5 -74t-101.5 -190t39 -190t185 -74h28q132 0 210.5 73t97.5 191t-34.5 191t-185.5 73z" />
    <glyph glyph-name="uni0224" unicode="&#x224;" horiz-adv-x="1956" 
d="M280 1600l76 448h1672l-52 -308l-1196 -1292h356q323 0 467 -158.5t97 -449.5l-40 -224h-444l20 124q12 52 10 99.5t-17 83t-57.5 56.5t-111.5 21h-1048l52 308l1196 1292h-980z" />
    <glyph glyph-name="uni0225" unicode="&#x225;" horiz-adv-x="1648" 
d="M924 -408l20 120q56 288 -168 288h-752l48 284l788 836h-604l68 416h1280l-48 -288l-788 -832h76q323 0 469 -159t95 -453l-36 -212h-448z" />
    <glyph glyph-name="uni0226" unicode="&#x226;" horiz-adv-x="2240" 
d="M536 0h-600l1016 2048h760l336 -2048h-600l-53 392h-675zM1360 2208q-113 0 -181.5 74.5t-50.5 177.5q18 105 109.5 178.5t204.5 73.5q112 0 179.5 -73.5t50.5 -178.5q-17 -104 -108.5 -178t-203.5 -74zM915 808h424l-91 676h-16z" />
    <glyph glyph-name="uni0227" unicode="&#x227;" horiz-adv-x="1664" 
d="M436 -24q-228 0 -345 114t-79 334q16 98 58 177t100.5 133t137 92t164 58.5t184.5 27.5q202 16 285 44t95 92v4q9 59 -30.5 91.5t-113.5 32.5q-81 0 -136.5 -35t-75.5 -105h-508q19 85 62 161.5t112 142.5t158.5 114t207 75t252.5 27q160 0 287.5 -39t206.5 -106.5
t113.5 -160t16.5 -198.5l-176 -1052h-516l36 216h-12q-167 -240 -484 -240zM1000 1696q-113 0 -181.5 74.5t-50.5 177.5q18 105 109.5 178.5t204.5 73.5q112 0 179.5 -73.5t50.5 -178.5q-17 -104 -108.5 -178t-203.5 -74zM676 324q99 0 181 60t99 160l20 128
q-67 -27 -228 -56q-96 -15 -149.5 -56.5t-62.5 -103.5t29 -97t111 -35z" />
    <glyph glyph-name="uni0228" unicode="&#x228;" horiz-adv-x="1752" 
d="M4 0l340 2048h1476l-76 -448h-920l-56 -352h844l-76 -448h-844l-56 -352h916l-76 -448h-623l-29 -84q114 -18 170 -85t38 -163q-24 -162 -199 -255t-457 -93l36 212q297 0 328 124q12 57 -29.5 93t-134.5 51l81 200h-653z" />
    <glyph glyph-name="uni0229" unicode="&#x229;" horiz-adv-x="1712" 
d="M828 -25l-20 -59q114 -18 170 -85t38 -163q-24 -162 -199 -255t-457 -93l36 212q297 0 328 124q12 57 -29.5 93t-134.5 51l72 178q-315 32 -460.5 238.5t-87.5 547.5q60 358 308 575t604 217q349 0 520.5 -211.5t111.5 -576.5l-20 -128h-999l-5 -24q-18 -114 39 -185
t177 -71q86 0 155.5 35.5t104.5 100.5h504q-77 -227 -274 -364.5t-482 -156.5zM666 944h482q15 99 -41.5 161.5t-158.5 62.5q-101 0 -180 -62t-102 -162z" />
    <glyph glyph-name="uni022A" unicode="&#x22a;" horiz-adv-x="2240" 
d="M2152 988q-33 -196 -109 -361.5t-182.5 -285t-240.5 -203.5t-285.5 -125t-314.5 -41q-217 0 -392 72t-291.5 206t-161.5 340.5t-3 461.5q40 245 146.5 441t258.5 322.5t339 193.5t392 67q172 0 318.5 -46t259 -135.5t184.5 -221t94 -303.5t-12 -382zM1592 1052
q42 266 -34 403t-270 137q-221 0 -366 -159t-190 -445q-47 -264 33 -398t275 -134q218 0 361 155t191 441zM2006 3072l-40 -252h-1004l40 252h1004zM1080 2228q-114 0 -182 78t-50 186q15 84 86.5 142t161.5 58q111 0 176.5 -78t47.5 -186q-12 -84 -82.5 -142t-157.5 -58z
M1716 2228q-114 0 -182 78t-50 186q15 84 86.5 142t161.5 58q111 0 176.5 -78t47.5 -186q-12 -84 -82.5 -142t-157.5 -58z" />
    <glyph glyph-name="uni022B" unicode="&#x22b;" horiz-adv-x="1760" 
d="M748 -28q-246 0 -410.5 99.5t-228.5 278t-25 414.5q29 176 107.5 322.5t196.5 250.5t278 161.5t346 57.5q184 0 324 -57.5t224 -161.5t114.5 -250.5t1.5 -322.5q-60 -359 -309 -575.5t-619 -216.5zM816 380q107 0 186.5 104t109.5 284q29 181 -15.5 284.5t-152.5 103.5
t-187.5 -104t-108.5 -284q-30 -181 14.5 -284.5t153.5 -103.5zM1678 2560l-40 -252h-1004l40 252h1004zM752 1716q-114 0 -182 78t-50 186q15 84 86.5 142t161.5 58q111 0 176.5 -78t47.5 -186q-12 -84 -82.5 -142t-157.5 -58zM1388 1716q-114 0 -182 78t-50 186
q15 84 86.5 142t161.5 58q111 0 176.5 -78t47.5 -186q-12 -84 -82.5 -142t-157.5 -58z" />
    <glyph glyph-name="uni022C" unicode="&#x22c;" horiz-adv-x="2240" 
d="M2152 988q-33 -196 -109 -361.5t-182.5 -285t-240.5 -203.5t-285.5 -125t-314.5 -41q-217 0 -392 72t-291.5 206t-161.5 340.5t-3 461.5q40 245 146.5 441t258.5 322.5t339 193.5t392 67q172 0 318.5 -46t259 -135.5t184.5 -221t94 -303.5t-12 -382zM1592 1052
q42 266 -34 403t-270 137q-221 0 -366 -159t-190 -445q-47 -264 33 -398t275 -134q218 0 361 155t191 441zM1988 2972l-44 -252h-1004l44 252h1004zM1652 2592l204 -60q-19 -99 -100 -173.5t-180 -74.5q-65 0 -123 21t-110.5 42t-102.5 21q-34 0 -63 -34t-37 -82l-196 60
q15 99 91.5 173.5t176.5 74.5q62 0 170 -42t166 -42q33 0 65 34.5t39 81.5z" />
    <glyph glyph-name="uni022D" unicode="&#x22d;" horiz-adv-x="1760" 
d="M748 -28q-246 0 -410.5 99.5t-228.5 278t-25 414.5q29 176 107.5 322.5t196.5 250.5t278 161.5t346 57.5q184 0 324 -57.5t224 -161.5t114.5 -250.5t1.5 -322.5q-60 -359 -309 -575.5t-619 -216.5zM1388 2144l280 -12q-24 -155 -141 -273.5t-263 -118.5q-59 0 -113 17.5
t-89 38.5t-84 38.5t-98 17.5q-46 0 -80.5 -26.5t-43.5 -85.5l-280 16q15 93 70 180.5t143 145.5t183 58q62 0 130 -27t134 -54t124 -27q48 0 83 26.5t45 85.5zM816 380q107 0 186.5 104t109.5 284q29 181 -15.5 284.5t-152.5 103.5t-187.5 -104t-108.5 -284
q-30 -181 14.5 -284.5t153.5 -103.5zM1676 2572l-40 -252h-1004l40 252h1004z" />
    <glyph glyph-name="uni022E" unicode="&#x22e;" horiz-adv-x="2240" 
d="M2152 988q-33 -196 -109 -361.5t-182.5 -285t-240.5 -203.5t-285.5 -125t-314.5 -41q-217 0 -392 72t-291.5 206t-161.5 340.5t-3 461.5q40 245 146.5 441t258.5 322.5t339 193.5t392 67q172 0 318.5 -46t259 -135.5t184.5 -221t94 -303.5t-12 -382zM1592 1052
q42 266 -34 403t-270 137q-221 0 -366 -159t-190 -445q-47 -264 33 -398t275 -134q218 0 361 155t191 441zM1360 2208q-113 0 -181.5 74.5t-50.5 177.5q18 105 109.5 178.5t204.5 73.5q112 0 179.5 -73.5t50.5 -178.5q-17 -104 -108.5 -178t-203.5 -74z" />
    <glyph glyph-name="uni022F" unicode="&#x22f;" horiz-adv-x="1760" 
d="M748 -28q-246 0 -410.5 99.5t-228.5 278t-25 414.5q29 176 107.5 322.5t196.5 250.5t278 161.5t346 57.5q184 0 324 -57.5t224 -161.5t114.5 -250.5t1.5 -322.5q-60 -359 -309 -575.5t-619 -216.5zM816 380q107 0 186.5 104t109.5 284q29 181 -15.5 284.5t-152.5 103.5
t-187.5 -104t-108.5 -284q-30 -181 14.5 -284.5t153.5 -103.5zM1032 1696q-113 0 -181.5 74.5t-50.5 177.5q18 105 109.5 178.5t204.5 73.5q112 0 179.5 -73.5t50.5 -178.5q-17 -104 -108.5 -178t-203.5 -74z" />
    <glyph glyph-name="uni0230" unicode="&#x230;" horiz-adv-x="2240" 
d="M2152 988q-33 -196 -109 -361.5t-182.5 -285t-240.5 -203.5t-285.5 -125t-314.5 -41q-217 0 -392 72t-291.5 206t-161.5 340.5t-3 461.5q40 245 146.5 441t258.5 322.5t339 193.5t392 67q172 0 318.5 -46t259 -135.5t184.5 -221t94 -303.5t-12 -382zM1592 1052
q42 266 -34 403t-270 137q-221 0 -366 -159t-190 -445q-47 -264 33 -398t275 -134q218 0 361 155t191 441zM2010 3072l-40 -252h-1004l40 252h1004zM1369 2227q-101 0 -162.5 68.5t-45.5 163.5q16 97 98 164.5t183 67.5t161 -67.5t46 -164.5q-15 -95 -97.5 -163.5
t-182.5 -68.5z" />
    <glyph glyph-name="uni0231" unicode="&#x231;" horiz-adv-x="1760" 
d="M748 -28q-246 0 -410.5 99.5t-228.5 278t-25 414.5q29 176 107.5 322.5t196.5 250.5t278 161.5t346 57.5q184 0 324 -57.5t224 -161.5t114.5 -250.5t1.5 -322.5q-60 -359 -309 -575.5t-619 -216.5zM816 380q107 0 186.5 104t109.5 284q29 181 -15.5 284.5t-152.5 103.5
t-187.5 -104t-108.5 -284q-30 -181 14.5 -284.5t153.5 -103.5zM1642 2548l-40 -252h-1004l40 252h1004zM1001 1703q-101 0 -162.5 68.5t-45.5 163.5q16 97 98 164.5t183 67.5t161 -67.5t46 -164.5q-15 -95 -97.5 -163.5t-182.5 -68.5z" />
    <glyph glyph-name="uni0232" unicode="&#x232;" horiz-adv-x="2152" 
d="M260 2048h620l260 -832h20l536 832h620l-984 -1404l-108 -644h-552l108 644zM1872 2560l-40 -252h-1004l40 252h1004z" />
    <glyph glyph-name="uni0233" unicode="&#x233;" horiz-adv-x="1704" 
d="M254 -576q-194 0 -324 54l186 392q211 -79 284 34l18 28l-274 1604h556l70 -1064h16l430 1064h600l-836 -1664q-51 -100 -114.5 -178t-150.5 -140.5t-204 -96t-257 -33.5zM1558 2048l-40 -252h-1004l40 252h1004z" />
    <glyph glyph-name="uni0234" unicode="&#x234;" horiz-adv-x="1336" 
d="M864 2048l-270 -1624h2l-28 -164q85 16 148 16q97 0 174.5 -34.5t123.5 -91t65.5 -129t8.5 -149.5q-14 -79 -62 -158t-119.5 -144t-171.5 -105.5t-207 -40.5q-65 0 -133.5 15t-137.5 45.5t-129 84t-98 123.5q-1 0 -3 -2t-3 -2l-312 -200l-200 296l180 100q158 87 286 151
l334 2013h552zM511 -80q-14 -75 4 -111.5t81 -36.5q25 0 50 27t30 57q2 18 -16.5 45t-51.5 27q-46 0 -97 -8z" />
    <glyph glyph-name="uni0235" unicode="&#x235;" horiz-adv-x="2336" 
d="M712 864l-144 -864h-552l256 1536h524l-48 -292h16q72 146 212.5 229t311.5 83q160 0 270.5 -74t154 -204.5t15.5 -297.5l-96 -576h57h43q135 0 236.5 -56.5t149 -157.5t26.5 -226q-34 -198 -209.5 -323t-438.5 -125q-87 0 -162.5 15t-143 47.5t-114 91t-63.5 139.5
l-173 -173l-216 212l196 196q117 117 232 198l104 622q19 115 -28 179.5t-152 64.5q-102 0 -173.5 -65.5t-90.5 -178.5zM1581 100l-17 -100q-7 -47 13.5 -75.5t62.5 -28.5q38 0 64.5 28t35.5 76q9 46 -16.5 74t-67.5 30q-28 2 -75 -4z" />
    <glyph glyph-name="uni0236" unicode="&#x236;" horiz-adv-x="1576" 
d="M572 1904h552l-61 -368h265l-68 -400h-262l-55 -330q84 14 145 14q194 0 298 -114.5t74 -289.5q-9 -59 -32 -116t-70 -119t-112 -108t-166 -75.5t-224 -29.5q-377 0 -485 230q-131 -93 -243 -194l-164 288q183 161 387 280l94 564h-197l68 400h195zM886 458l-6 -38
q-9 -45 14.5 -74.5t65.5 -29.5q35 0 60.5 23.5t31.5 60.5q6 32 -14 52t-54 20q-37 0 -98 -14z" />
    <glyph glyph-name="uni0237" unicode="&#x237;" horiz-adv-x="832" 
d="M268 1536h552l-266 -1588q-20 -119 -67.5 -209t-114.5 -149.5t-159 -97t-195.5 -53t-229.5 -15.5q-53 0 -106 4l68 408q31 -4 64 -4q96 0 138 30t54 98z" />
    <glyph glyph-name="uni0238" unicode="&#x238;" horiz-adv-x="2776" 
d="M2598 776l-4 -28q-38 -227 -137.5 -402.5t-248 -274.5t-324.5 -99q-222 0 -341 156l-21 -128h-468l4 163q-183 -191 -430 -191q-175 0 -290.5 99t-156.5 274.5t-3 402.5l4 28q50 352 246.5 566t467.5 214q224 0 338 -157l108 649h520l-107 -646q167 154 389 154
q177 0 291.5 -97t155.5 -272.5t7 -410.5zM2074 748l4 28q30 185 -4 278.5t-154 93.5q-143 0 -228 -127l-85 -509q41 -128 187 -128q69 0 119.5 27.5t81.5 80.5t49 113t30 143zM702 776l-4 -28q-10 -69 -13.5 -116t2 -98t23.5 -81t55 -49.5t93 -19.5q145 0 228 121l83 502
q-38 141 -185 141q-121 0 -186.5 -94t-95.5 -278z" />
    <glyph glyph-name="uni0239" unicode="&#x239;" horiz-adv-x="2776" 
d="M908 -572l116 702q-171 -158 -394 -158q-176 0 -292 99t-157 274.5t-3 402.5l6 28q75 357 261.5 568.5t450.5 211.5q248 0 363 -194l65 174h416l-5 -154q172 174 409 174q178 0 296.5 -97.5t160.5 -274.5t-1 -408l-6 -32q-38 -227 -137.5 -402t-247.5 -272.5t-323 -97.5
q-223 0 -342 156l-116 -700h-520zM704 776l-6 -28q-14 -63 -19 -114t1 -99t25.5 -80t58 -51.5t94.5 -19.5q148 0 232 138l83 500q-46 126 -189 126q-121 0 -186 -94t-94 -278zM2074 748l6 28q29 185 -5.5 278.5t-154.5 93.5q-147 0 -232 -147l-83 -502q48 -115 189 -115
q47 0 84 12.5t64.5 39t47 55.5t35.5 76t26 84.5t23 96.5z" />
    <glyph glyph-name="uni023A" unicode="&#x23a;" horiz-adv-x="2240" 
d="M2080 2308l-304 -649l272 -1659h-600l-53 392h-213l-306 -652h-284l306 652h-178l-184 -392h-600l1016 2048h722l122 260h284zM1093 808l191 408l-36 268h-16l-317 -676h178z" />
    <glyph glyph-name="uni023B" unicode="&#x23b;" horiz-adv-x="2160" 
d="M384 -260l159 340q-226 124 -326 374t-43 602q33 197 108.5 363.5t182 286.5t239.5 204t283 125t311 41q88 0 176 -11l114 243h284l-146 -311q210 -89 315 -272.5t85 -444.5h-556q12 157 -68 239l-498 -1062q13 -1 38 -1q164 0 278 76.5t158 207.5h560
q-26 -107 -82.5 -213.5t-148 -207t-206 -177.5t-268 -123.5t-323.5 -46.5q-118 0 -223 21l-119 -253h-284zM778 580l474 1010q-202 -16 -337.5 -173.5t-180.5 -424.5q-45 -278 44 -412z" />
    <glyph glyph-name="uni023C" unicode="&#x23c;" horiz-adv-x="1716" 
d="M1620 2048l-264 -558q169 -76 243.5 -230t40.5 -364h-512q4 56 -5 101l-285 -605q89 5 155 69.5t95 178.5h512q-57 -308 -284.5 -488t-567.5 -180q-49 0 -107 5l-261 -553h-280l291 619q-190 89 -270.5 277t-36.5 444q28 176 107 322.5t197.5 250.5t278.5 161.5t345 57.5
q51 0 91 -4l233 496h284zM908 1140q-98 -17 -166 -111t-94 -261q-18 -113 -7 -195z" />
    <glyph glyph-name="uni023D" unicode="&#x23d;" horiz-adv-x="1608" 
d="M4 0l157 948h-265l52 296h263l133 804h556l-133 -804h257l-52 -296h-253l-83 -500h828l-76 -448h-1384z" />
    <glyph glyph-name="uni023E" unicode="&#x23e;" horiz-adv-x="1932" 
d="M304 -260l335 715l189 1145h-616l76 448h1098l122 260h284l-122 -260h398l-76 -448h-532l-130 -277l-218 -1323h-402l-122 -260h-284z" />
    <glyph glyph-name="uni023F" unicode="&#x23f;" horiz-adv-x="1664" 
d="M1584 1036h-496q5 70 -41 111t-119 41q-85 0 -150.5 -37.5t-73.5 -94.5q-6 -27 18 -46t102 -34l304 -56q465 -86 408 -444q-26 -154 -137.5 -269.5t-282 -175t-376.5 -59.5q-69 0 -132 6q28 -65 53.5 -105.5t52 -61.5t51 -28t59.5 -7q94 0 170 32.5t154 87.5l108 -264
q-51 -36 -83.5 -58t-89.5 -54t-104.5 -50t-111.5 -32t-127 -14q-62 0 -116.5 14.5t-96.5 36.5t-80.5 58t-65 70t-53.5 81.5t-43.5 83.5t-36.5 84l-160 380l3 2q-70 113 -59 262h536q2 -73 49.5 -111.5t130.5 -40.5q88 -3 154 35t74 97q3 32 -28 49t-120 35l-264 48
q-228 40 -332 164t-72 316q38 227 237 347.5t519 120.5q345 0 522.5 -138.5t145.5 -381.5z" />
    <glyph glyph-name="uni0240" unicode="&#x240;" horiz-adv-x="1964" 
d="M768 416h8q99 0 176 -30.5t124.5 -79t84.5 -107.5t66 -118t58.5 -107.5t72.5 -79t98 -30.5q90 0 258 117q7 5 10 7l112 -356q-256 -208 -508 -208q-100 0 -177.5 32t-127 82.5t-89.5 112t-75.5 123t-74 112t-96.5 82.5t-132 32h-532l48 284l788 836h-604l68 416h1280
l-48 -288z" />
    <glyph glyph-name="uni0241" unicode="&#x241;" horiz-adv-x="1684" 
d="M616 760h208q62 0 106 21t73 65.5t46 99.5t31 138l38 224q6 33 9 56.5t5 61t-1.5 64t-14 57t-28.5 49.5t-49 31.5t-73 12.5q-101 0 -160.5 -58.5t-67.5 -145.5h-516q28 194 146.5 341.5t289.5 223t368 75.5q234 0 393.5 -99t222 -272.5t24.5 -396.5l-38 -224
q-43 -254 -194 -440.5t-382 -265.5l-64 -378h-540l128 760h40z" />
    <glyph glyph-name="uni0242" unicode="&#x242;" horiz-adv-x="1692" 
d="M194 936q46 280 250.5 450t503.5 170q208 0 355.5 -72t214 -206.5t36.5 -313.5q-34 -208 -165.5 -340.5t-336.5 -167.5l-76 -456h-520l118 712h176q122 0 192 58.5t92 185.5q15 96 -16.5 142t-113.5 46q-86 0 -129.5 -48.5t-60.5 -159.5h-520z" />
    <glyph glyph-name="uni0243" unicode="&#x243;" horiz-adv-x="2072" 
d="M196 0l85 512h-281l52 296h278l206 1240h888q345 0 508.5 -137t123.5 -375q-30 -167 -159 -289.5t-313 -158.5l-4 -20q202 -6 316.5 -141t79.5 -347q-43 -256 -265.5 -418t-550.5 -162h-964zM956 1220h228q110 0 187.5 52.5t92.5 143.5q15 93 -43.5 144.5t-164.5 51.5
h-236zM828 444h260q138 0 217.5 53t94.5 155q18 107 -44 165.5t-192 58.5h-268l-11 -68h243l-52 -296h-237z" />
    <glyph glyph-name="uni0244" unicode="&#x244;" horiz-adv-x="2176" 
d="M2256 1148l-52 -304h-208l-18 -108q-37 -231 -177 -404t-355.5 -264.5t-477.5 -91.5q-264 0 -448 92t-266 264.5t-44 403.5l18 108h-232l52 304h230l150 900h556l-150 -900h656l150 900h556l-150 -900h210zM1440 844h-656l-10 -60q-23 -143 54.5 -235.5t219.5 -92.5
q144 0 251.5 92.5t130.5 235.5z" />
    <glyph glyph-name="uni0245" unicode="&#x245;" horiz-adv-x="2224" 
d="M1376 0l-154 1439l-634 -1439h-600l1034 2048h596l358 -2048h-600z" />
    <glyph glyph-name="uni0246" unicode="&#x246;" horiz-adv-x="1752" 
d="M1668 2308l-118 -260h270l-76 -448h-398l-160 -352h426l-76 -448h-554l-160 -352h730l-76 -448h-858l-118 -260h-228l118 260h-386l340 2048h978l118 260h228zM1118 1600h-294l-56 -352h190zM754 800h-62l-33 -210z" />
    <glyph glyph-name="uni0247" unicode="&#x247;" horiz-adv-x="1728" 
d="M1620 2048l-269 -569q173 -90 246 -273.5t31 -437.5l-20 -128h-653l-133 -280q85 1 154 36.5t104 99.5h504q-82 -243 -302.5 -383.5t-537.5 -140.5q-48 0 -103 5l-261 -553h-280l290 615q-191 86 -271 272.5t-35 452.5q60 358 308 575t604 217q55 0 106 -6l234 498h284z
M816 944l105 223q-93 -8 -163.5 -69t-91.5 -154h150zM673 640h-64l-5 -24q-11 -64 3 -115zM1143 1039l-45 -95h50q7 52 -5 95z" />
    <glyph glyph-name="uni0248" unicode="&#x248;" horiz-adv-x="1656" 
d="M1188 2048h548l-111 -672h259l-52 -296h-256l-72 -436q-34 -197 -157.5 -350.5t-314 -237.5t-416.5 -84q-120 0 -221 24t-184 75t-134 130t-70.5 188.5t5.5 250.5h556q-30 -236 156 -236q93 0 152 61.5t80 178.5l72 436h-272l52 296h269z" />
    <glyph glyph-name="uni0249" unicode="&#x249;" horiz-adv-x="832" 
d="M268 1536h552l-72 -432h260l-52 -296h-258l-144 -860q-20 -119 -67.5 -209t-114.5 -149.5t-159 -97t-195.5 -53t-229.5 -15.5q-53 0 -106 4l68 408q31 -4 64 -4q96 0 138 30t54 98l141 848h-267l52 296h264zM568 1696q-113 0 -181.5 74.5t-50.5 177.5q18 105 109.5 178.5
t204.5 73.5q112 0 179.5 -73.5t50.5 -178.5q-17 -104 -108.5 -178t-203.5 -74z" />
    <glyph glyph-name="uni024A" unicode="&#x24a;" horiz-adv-x="2428" 
d="M2308 2048l-348 -2096q-5 -33 8.5 -56t43 -34.5t62.5 -16.5t74 -5q36 0 128 8l-68 -408q-14 -1 -65.5 -5.5t-104 -7.5t-110.5 -3q-59 0 -108.5 3t-100.5 11.5t-91.5 22t-78.5 35t-65.5 50.5t-48.5 68.5t-30.5 88.5t-9 112t12.5 137l56 336h-16q-105 -140 -258.5 -228
t-345.5 -88q-121 0 -227.5 37.5t-188 106t-144 165t-95.5 213t-42 251t17 279.5q36 216 135 410.5t236 335t309 223.5t348 83q100 0 184 -25.5t144 -71t101.5 -99.5t70.5 -120h16l48 288h552zM1068 456q206 0 338.5 146t177.5 422q47 276 -37.5 422t-290.5 146
q-207 0 -340 -145.5t-180 -422.5q-45 -276 40 -422t292 -146z" />
    <glyph glyph-name="uni024B" unicode="&#x24b;" horiz-adv-x="2016" 
d="M1516 -576q-59 0 -108.5 3t-100.5 11.5t-91.5 22t-78 35t-65 50.5t-48.5 68.5t-30.5 88.5t-9.5 112t12 137l20 112l30 188h-6q-72 -123 -196 -197.5t-280 -74.5q-125 0 -224.5 48.5t-167.5 146t-89.5 245.5t9.5 348q27 162 82.5 295t127.5 223t159.5 152t178.5 90t184 28
q161 0 258 -80.5t126 -207.5h10l46 268h548l-244 -1472l-20 -112q-6 -33 9 -56t45.5 -34.5t64 -16.5t73.5 -5q36 0 124 8l-68 -408q-4 0 -62 -5.5t-110 -8t-108 -2.5zM840 404q114 0 195.5 98t108.5 266q27 171 -21.5 267.5t-162.5 96.5t-193.5 -96.5t-106.5 -267.5
q-27 -172 20 -268t160 -96z" />
    <glyph glyph-name="uni024C" unicode="&#x24c;" horiz-adv-x="1952" 
d="M60 0l120 724h-168l64 392h169l155 932h884q346 0 521.5 -186t122.5 -510q-34 -209 -149.5 -358.5t-295.5 -229.5l289 -764h-604l-247 676h-192l-113 -676h-556zM801 1108h195q313 0 352 244q20 129 -50 190.5t-218 61.5h-196z" />
    <glyph glyph-name="uni024D" unicode="&#x24d;" horiz-adv-x="1220" 
d="M12 0l100 600h-264l52 296h261l107 640h536l-48 -292h16q67 158 170 235t230 77q63 0 136 -20l-80 -472q-73 28 -200 28q-97 0 -177.5 -52.5t-123.5 -143.5h249l-52 -296h-261l-99 -600h-552z" />
    <glyph glyph-name="uni024E" unicode="&#x24e;" horiz-adv-x="2152" 
d="M2256 1616l-44 -260h-381l-499 -712l-108 -644h-552l108 644l-264 712h-384l44 260h244l-160 432h620l135 -432h403l278 432h620l-303 -432h243zM1096 1356l44 -140h20l90 140h-154z" />
    <glyph glyph-name="uni024F" unicode="&#x24f;" horiz-adv-x="1736" 
d="M1756 996l-36 -236h-266l-446 -888q-51 -100 -114.5 -178t-150.5 -140.5t-204 -96t-257 -33.5q-194 0 -324 54l186 392q211 -79 284 34l18 28l-141 828h-285l36 236h208l-92 540h556l36 -540h262l218 540h600l-271 -540h183zM930 760h-151l19 -288h16z" />
    <glyph glyph-name="uni0250" unicode="&#x250;" horiz-adv-x="1664" 
d="M1228 1560q228 0 345 -114t79 -334q-16 -98 -58 -177t-100.5 -133t-137 -92t-164 -58.5t-184.5 -27.5q-202 -16 -285 -44t-95 -92v-4q-9 -59 30.5 -91.5t113.5 -32.5q81 0 136.5 35t75.5 105h508q-19 -85 -62 -161.5t-112 -142.5t-158.5 -114t-207 -75t-252.5 -27
q-160 0 -287.5 39t-206.5 106.5t-113.5 160t-16.5 198.5l176 1052h516l-36 -216h12q167 240 484 240zM988 1212q-99 0 -181 -60t-99 -160l-20 -128q67 27 228 56q96 15 149.5 56.5t62.5 103.5t-29 97t-111 35z" />
    <glyph glyph-name="uni0251" unicode="&#x251;" horiz-adv-x="1848" 
d="M660 -32q-148 0 -268 61.5t-194 171t-104 261.5t2 334q28 167 104 310.5t181.5 241t235 153t263.5 55.5q180 0 309.5 -91t162.5 -241l7 1l117 311h400l-288 -772l-8 -15l48 -749h-404l-6 309l-10 -1q-79 -155 -218.5 -247.5t-329.5 -92.5zM1207 820q-11 148 -66 230
t-169 82q-137 0 -230.5 -107t-121.5 -277q-24 -154 23 -249t149 -95q123 0 236 113t164 263z" />
    <glyph glyph-name="uni0252" unicode="&#x252;" horiz-adv-x="1964" 
d="M1776 760l-4 -28q-37 -220 -132 -392.5t-237.5 -272t-310.5 -99.5q-247 0 -352 214l-68 -186h-456l162 980q14 86 -1 129t-71 43q-2 0 -7 -2t-13 -2l32 388q96 24 174 24q156 0 257 -63.5t141 -187.5q180 251 450 251q267 0 382.5 -214t53.5 -582zM1252 732l4 28
q9 59 12.5 101t3.5 90t-10 79.5t-28.5 59t-52.5 41t-81 13.5q-124 0 -188 -60q-3 -50 -12 -104l-89 -528q46 -68 165 -68q58 0 105 26t80 73.5t55.5 109.5t35.5 139z" />
    <glyph glyph-name="uni0253" unicode="&#x253;" horiz-adv-x="1824" 
d="M996 -20q-156 0 -254 74.5t-126 197.5h-12l-44 -252h-548l256 1548q14 81 38 148.5t53 118t69 90.5t79.5 67t90 47t94 30.5t99.5 17t99 8t98 1.5q59 0 109.5 -3t97.5 -7.5t61 -5.5l-64 -408q-88 8 -120 8q-58 0 -107.5 -8t-93.5 -34.5t-51 -69.5l-44 -280h8
q68 126 193 207t287 81q118 0 214.5 -45t168 -140.5t94 -245t-8.5 -357.5q-32 -194 -105.5 -346.5t-173 -247.5t-216 -144.5t-241.5 -49.5zM864 404q114 0 193.5 96.5t106.5 267.5q27 172 -20 268t-160 96q-114 0 -195.5 -97t-108.5 -267q-27 -169 21.5 -266.5t162.5 -97.5z
" />
    <glyph glyph-name="uni0254" unicode="&#x254;" horiz-adv-x="1684" 
d="M106 556h484q-33 -168 168 -168q36 0 66.5 7t53.5 22t41 32t32.5 45t24.5 52.5t19 63t14.5 68t12.5 74.5l4 24l1 3q25 156 17 222q-23 139 -162 143q-199 0 -236 -248h-484q26 164 96.5 291.5t174 207t232 120.5t275.5 41q143 0 256 -37t188 -105t121 -164.5t54 -215.5
t-13 -258l-4 -24q-29 -175 -100 -318t-179.5 -246t-259 -159.5t-331.5 -56.5q-142 0 -257 40t-192 113.5t-108.5 184.5t-8.5 246z" />
    <glyph glyph-name="uni0255" unicode="&#x255;" horiz-adv-x="1724" 
d="M764 -28q-103 0 -187 16q-31 -39 -145 -180l-308 212q6 7 49 59.5t65 77.5q-102 104 -140 258.5t-6 348.5q28 176 107 322.5t197.5 250.5t278.5 161.5t345 57.5q338 0 507 -179.5t121 -480.5h-512q9 120 -37 184t-139 64q-112 0 -193.5 -96t-110.5 -280q-15 -92 -10 -167
q136 121 262.5 176t275.5 55q205 0 317.5 -94.5t86.5 -269.5q-12 -79 -50 -150t-107 -135t-162 -110.5t-222.5 -73.5t-282.5 -27zM907 378q192 10 209 74q6 21 -4.5 34.5t-31.5 13.5q-31 0 -68 -25t-105 -97z" />
    <glyph glyph-name="uni0256" unicode="&#x256;" horiz-adv-x="1824" 
d="M1508 -576q-59 0 -108.5 3t-100.5 11.5t-91.5 22t-78 35t-64.5 50t-48 68.5t-30 89t-8.5 112t13.5 137l51 300h-5q-71 -123 -194 -197.5t-278 -74.5q-125 0 -225 48.5t-168.5 146t-90 245.5t9.5 348q27 162 82 295t127 223t159.5 152t178 90t183.5 28q162 0 259 -81
t125 -207h8l130 780h552l-340 -2048h-8l-8 -52q-5 -33 9.5 -56t45.5 -34.5t64 -16.5t73 -5q36 0 124 8l-68 -404q-4 0 -62 -5.5t-110 -8t-108 -2.5zM840 404q113 0 194.5 98t109.5 266q28 171 -21 267.5t-163 96.5t-193 -96.5t-107 -267.5q-29 -172 18.5 -268t161.5 -96z
" />
    <glyph glyph-name="uni0257" unicode="&#x257;" horiz-adv-x="1924" 
d="M572 -20q-126 0 -226 48.5t-169 146t-90.5 245.5t9.5 348q26 162 81.5 295t126.5 223t158.5 152t178 90t183.5 28q162 0 260 -81t124 -207h8l40 260q17 105 54 189.5t83.5 140.5t109.5 97.5t121.5 64t131 36t126.5 17t118 3.5q115 0 268 -24l-68 -404q-71 12 -116 12
q-16 0 -25 1q-25 -1 -55 0t-62 -6t-59 -19.5t-47.5 -40t-27.5 -67.5l-248 -1528h-548l44 252h-16q-68 -122 -190.5 -197t-277.5 -75zM844 404q113 0 194 97.5t110 266.5q29 170 -20.5 267t-163.5 97q-113 0 -192 -96t-108 -268q-30 -171 17.5 -267.5t162.5 -96.5z" />
    <glyph glyph-name="uni0258" unicode="&#x258;" horiz-adv-x="1680" 
d="M632 -28q-209 0 -360.5 74t-219.5 178l284 296q93 -132 310 -132q130 0 225.5 55t143.5 153h-947l36 216q59 352 283.5 548t562.5 196q108 0 199.5 -21t160.5 -60t123.5 -94t87.5 -122.5t52.5 -146.5t19 -165.5t-12.5 -178.5l-8 -52q-22 -143 -99 -275.5t-196 -237.5
t-287.5 -168t-357.5 -63zM1072 912q-4 232 -210 232q-91 0 -150 -45.5t-78 -126.5l-14 -60h452z" />
    <glyph glyph-name="uni0259" unicode="&#x259;" horiz-adv-x="1712" 
d="M968 1564q370 0 546.5 -210.5t113.5 -581.5q-60 -358 -308 -575t-604 -217q-349 0 -520.5 211.5t-111.5 576.5l20 128h1000l4 24q18 114 -39 185t-177 71q-86 0 -155.5 -35.5t-104.5 -100.5h-504q82 243 302.5 383.5t537.5 140.5zM1046 592h-482q-15 -99 41.5 -161.5
t158.5 -62.5q101 0 180 62t102 162z" />
    <glyph glyph-name="uni025A" unicode="&#x25a;" horiz-adv-x="2588" 
d="M992 1516q262 0 433.5 -110.5t234.5 -293.5l444 100q0 -103 -1 -148q-1 -55 -0.5 -101t3 -83t11 -65t23 -46.5t38.5 -27.5t58 -9q10 0 38 2t46 2l8 -320q-127 -68 -264 -68q-62 0 -110.5 13t-82 33.5t-58 56.5t-39 71.5t-23.5 89t-13 98.5t-6 110l-45 -11l-3 -21l-8 -48
q-27 -157 -96 -293t-177.5 -243.5t-266.5 -169.5t-348 -62q-333 0 -493.5 193t-102.5 531l12 76l934 220q-72 112 -250 112q-245 0 -384 -136l-172 300q86 98 266.5 173t393.5 75zM1152 685l-480 -109l-4 -20q-16 -89 30 -128.5t162 -39.5q223 0 292 297z" />
    <glyph glyph-name="uni025B" unicode="&#x25b;" horiz-adv-x="1652" 
d="M457 784q-151 43 -229.5 133.5t-59.5 202.5q22 138 137.5 238t293 149t397.5 49q139 0 257 -32t201.5 -90.5t123.5 -148t22 -197.5h-520q9 53 -39.5 72.5t-144.5 19.5q-99 0 -155.5 -35.5t-64.5 -80.5q-8 -51 48 -81.5t152 -30.5h240l-26 -144h2l-32 -196h-240
q-247 0 -272 -132q-6 -51 45.5 -91.5t158.5 -40.5q236 0 248 92h512q-18 -117 -94 -209t-186.5 -147t-238 -83.5t-261.5 -28.5q-219 0 -385.5 53t-254 156t-64.5 239q23 141 134 234t295 130z" />
    <glyph glyph-name="uni025C" unicode="&#x25c;" horiz-adv-x="1678" 
d="M550 752l34 200h240q94 0 159 30.5t75 81.5q6 45 -38.5 80.5t-141.5 35.5t-152.5 -19.5t-63.5 -72.5h-520q23 143 135.5 251.5t275.5 162.5t351 54q219 0 379.5 -49t243 -148.5t61.5 -238.5q-19 -112 -128.5 -202t-274.5 -134q171 -37 252 -130t59 -234
q-24 -136 -146 -239t-306 -156t-402 -53q-106 0 -204 17t-183 54.5t-144 91.5t-86 132.5t-11 172.5h512q-9 -44 46 -68t176 -24q106 0 170.5 40.5t75.5 91.5q5 32 -7.5 56.5t-34.5 38.5t-55 22.5t-63.5 11.5t-65.5 3h-240l23 140h-1z" />
    <glyph glyph-name="uni025D" unicode="&#x25d;" horiz-adv-x="2464" 
d="M558 752l34 200h240q94 0 159 30.5t75 81.5q6 45 -38.5 80.5t-141.5 35.5t-152.5 -19.5t-63.5 -72.5h-520q23 143 135.5 251.5t275.5 162.5t351 54q276 0 457.5 -79t220.5 -225l402 84q-1 -25 -2.5 -68.5t-1.5 -60.5q-4 -83 -3 -147t11 -107.5t39 -66t81 -22.5
q17 0 25 -1q35 -2 55 1l16 -324q-123 -60 -264 -60q-63 0 -111.5 13.5t-82 32t-58.5 57t-39 69.5t-24.5 89t-14.5 96.5t-10 110.5l-154 -41q-108 -83 -261 -123q171 -37 252 -130t59 -234q-24 -136 -146 -239t-306 -156t-402 -53q-106 0 -204 17t-183 54.5t-144 91.5
t-86 132.5t-11 172.5h512q-9 -44 45.5 -68t176.5 -24q106 0 170.5 40.5t75.5 91.5q5 32 -7.5 56.5t-34.5 38.5t-55 22.5t-63.5 11.5t-65.5 3h-240l23 140h-1z" />
    <glyph glyph-name="uni025E" unicode="&#x25e;" horiz-adv-x="1726" 
d="M728 -28q-85 0 -165.5 20t-156 62t-132.5 106.5t-96.5 155t-48.5 207t13 261.5q27 161 89.5 293t146 219.5t186.5 147t209.5 86t216.5 26.5q209 0 356.5 -49t219 -148.5t48.5 -238.5q-19 -112 -115.5 -202t-246.5 -133q158 -37 227.5 -129t46.5 -236
q-23 -137 -134.5 -239.5t-283.5 -155.5t-380 -53zM867 808l23 136h16q79 0 124.5 33t55.5 87q5 20 0.5 40.5t-14.5 37t-38 27.5t-70 11q-32 0 -62 -7.5t-69 -32.5t-70 -66t-60 -115.5t-45 -174.5q-72 -432 174 -432q89 0 131.5 37t52.5 91q12 77 -31.5 108.5t-132.5 31.5
h-16l30 188h1z" />
    <glyph glyph-name="uni025F" unicode="&#x25f;" horiz-adv-x="832" 
d="M268 1536h552l-72 -432h260l-52 -296h-258l-144 -860q-20 -119 -67.5 -209t-114.5 -149.5t-159 -97t-195.5 -53t-229.5 -15.5q-53 0 -106 4l68 408q31 -4 64 -4q96 0 138 30t54 98l141 848h-267l52 296h264z" />
    <glyph glyph-name="uni0260" unicode="&#x260;" horiz-adv-x="1896" 
d="M664 -608q-339 0 -515 140t-157 368h532q5 -136 216 -136q252 0 284 240l44 260h-16q-62 -116 -188 -180t-284 -64q-101 0 -184.5 26.5t-151.5 83.5t-107.5 145t-52 211t15.5 282q27 162 82.5 295t127.5 223t159.5 152t178.5 90t184 28q161 0 258 -80.5t126 -207.5h12
l44 268l2 12q14 101 47 182t74.5 135.5t99.5 94t113.5 61.5t127 35t127.5 16.5t127 3.5q61 0 112 -3t97.5 -7.5t62.5 -5.5l-64 -408q-91 8 -124 8q-42 0 -79 -4.5t-75 -16t-63 -35t-31 -56.5l-2 -12l-256 -1532q-29 -193 -152.5 -332t-316 -209.5t-435.5 -70.5zM848 412
q115 0 196 94.5t108 261.5q27 171 -21.5 267.5t-162.5 96.5t-193.5 -96.5t-106.5 -267.5t19.5 -263.5t160.5 -92.5z" />
    </font>
</defs>
</svg>
